<svg width="64" height="65" fill="none" xmlns="http://www.w3.org/2000/svg"><path d="M3.152 25.005L0 64.405h18.503l-4.203-39.4H3.152zm.752-9.389l-.45 5.634H13.9l-.601-5.634H3.904zm54.955 11.267L48.8 39.042V26.883h-5.138l-10.6 12.744V26.883h-5.144l-8.535 10.361 1.298 12.173h5.763v3.756h-5.362l1.202 11.267H64V26.883h-5.14zM37.71 53.173h-7.512v-3.756h7.512v3.756zm11.267 0h-7.512v-3.756h7.512v3.756zm11.267 0h-7.512v-3.756h7.512v3.756z" fill="#DE6518"/><path d="M16.674 11.86l1.264 11.853a10.043 10.043 0 005.33-2.123 11.307 11.307 0 005.678 1.537 11.27 11.27 0 008.16-3.5c1.35.656 2.83.997 4.359.997 2.2 0 4.337-.734 6.07-2.052a9.029 9.029 0 004.884 1.426c5.005 0 9.076-4.072 9.076-9.077 0-5.004-4.072-9.076-9.076-9.076a9.076 9.076 0 00-4.435 1.16 9.98 9.98 0 00-6.52-2.412c-2.195 0-4.324.729-6.053 2.04a11.198 11.198 0 00-6.465-2.04 11.24 11.24 0 00-8.4 3.76 10.016 10.016 0 00-3.493-.63c-4.88 0-8.955 3.51-9.836 8.137h9.457z" fill="#DE6518"/></svg>