<svg width="372" height="628" viewBox="0 0 372 628" fill="none" xmlns="http://www.w3.org/2000/svg">
<g opacity="0.21" filter="url(#filter0_d)">
<path d="M352 42.0909C352 56.5005 277.679 68.1818 186 68.1818C94.3207 68.1818 20 56.5005 20 42.0909C20 27.6813 94.3207 16 186 16C277.679 16 352 27.6813 352 42.0909Z" fill="white"/>
<path d="M352 577.909C352 592.319 277.679 604 186 604C94.3207 604 20 592.319 20 577.909C20 563.499 94.3207 551.818 186 551.818C277.679 551.818 352 563.499 352 577.909Z" fill="white"/>
<path d="M20 41.4545H352V577.273H20V41.4545Z" fill="white"/>
</g>
<defs>
<filter id="filter0_d" x="0" y="0" width="372" height="628" filterUnits="userSpaceOnUse" color-interpolation-filters="sRGB">
<feFlood flood-opacity="0" result="BackgroundImageFix"/>
<feColorMatrix in="SourceAlpha" type="matrix" values="0 0 0 0 0 0 0 0 0 0 0 0 0 0 0 0 0 0 127 0"/>
<feOffset dy="4"/>
<feGaussianBlur stdDeviation="10"/>
<feColorMatrix type="matrix" values="0 0 0 0 0 0 0 0 0 0 0 0 0 0 0 0 0 0 0.08 0"/>
<feBlend mode="normal" in2="BackgroundImageFix" result="effect1_dropShadow"/>
<feBlend mode="normal" in="SourceGraphic" in2="effect1_dropShadow" result="shape"/>
</filter>
</defs>
</svg>
