<svg width="372" height="628" fill="none" xmlns="http://www.w3.org/2000/svg"><g opacity=".21" filter="url(#filter0_d)" fill="#fff"><path d="M352 42.09c0 14.41-74.321 26.092-166 26.092-91.68 0-166-11.681-166-26.091C20 27.68 94.32 16 186 16c91.679 0 166 11.681 166 26.09zm0 535.819C352 592.319 277.679 604 186 604c-91.68 0-166-11.681-166-26.091 0-14.41 74.32-26.091 166-26.091 91.679 0 166 11.681 166 26.091z"/><path d="M20 41.455h332v535.818H20V41.455z"/></g><path d="M371 65.961c0 13.233-82.827 23.961-185 23.961S1 79.194 1 65.961C1 52.728 83.827 42 186 42s185 10.728 185 23.961zm0 492.078C371 571.272 288.173 582 186 582S1 571.272 1 558.039c0-13.233 82.827-23.961 185-23.961s185 10.728 185 23.961z" fill="#fff"/><path d="M1 65.377h370v492.078H1V65.377z" fill="#fff"/><defs><filter id="filter0_d" x="0" y="0" width="372" height="628" filterUnits="userSpaceOnUse" color-interpolation-filters="sRGB"><feFlood flood-opacity="0" result="BackgroundImageFix"/><feColorMatrix in="SourceAlpha" values="0 0 0 0 0 0 0 0 0 0 0 0 0 0 0 0 0 0 127 0"/><feOffset dy="4"/><feGaussianBlur stdDeviation="10"/><feColorMatrix values="0 0 0 0 0 0 0 0 0 0 0 0 0 0 0 0 0 0 0.08 0"/><feBlend in2="BackgroundImageFix" result="effect1_dropShadow"/><feBlend in="SourceGraphic" in2="effect1_dropShadow" result="shape"/></filter></defs></svg>