<svg width="310" height="325" fill="none" xmlns="http://www.w3.org/2000/svg"><g filter="url(#filter0_d)"><path d="M20 26c0-5.523 4.477-10 10-10h250c5.523 0 10 4.477 10 10v112.231a3.644 3.644 0 01-2.277 3.378c-15.179 6.145-15.179 27.637 0 33.782a3.644 3.644 0 012.277 3.378V291c0 5.523-4.477 10-10 10H30c-5.523 0-10-4.477-10-10V178.878c0-1.535.975-2.9 2.427-3.397 16.177-5.541 16.177-28.421 0-33.962A3.59 3.59 0 0120 138.122V26z" fill="#fff"/></g><defs><filter id="filter0_d" x="0" y="0" width="310" height="325" filterUnits="userSpaceOnUse" color-interpolation-filters="sRGB"><feFlood flood-opacity="0" result="BackgroundImageFix"/><feColorMatrix in="SourceAlpha" values="0 0 0 0 0 0 0 0 0 0 0 0 0 0 0 0 0 0 127 0"/><feOffset dy="4"/><feGaussianBlur stdDeviation="10"/><feColorMatrix values="0 0 0 0 0 0 0 0 0 0 0 0 0 0 0 0 0 0 0.04 0"/><feBlend in2="BackgroundImageFix" result="effect1_dropShadow"/><feBlend in="SourceGraphic" in2="effect1_dropShadow" result="shape"/></filter></defs></svg>