<svg width="40" height="40" fill="none" xmlns="http://www.w3.org/2000/svg"><path d="M26.101 33.942l-3.711-3.711a1.575 1.575 0 00-2.228 0l-2.227 2.227A21.85 21.85 0 017.542 22.065l2.227-2.228a1.575 1.575 0 000-2.227L6.058 13.9a1.575 1.575 0 00-2.228 0L.861 16.87c-2.46 2.46.531 9.439 6.681 15.589s13.13 9.14 15.59 6.68l2.97-2.968a1.575 1.575 0 000-2.228zM36.387 3.028C34.11 1.075 31.092 0 27.891 0c-3.201 0-6.219 1.075-8.497 3.028-2.33 1.997-3.613 4.667-3.613 7.519 0 2.852 1.283 5.522 3.613 7.519.418.358.86.686 1.324.983a19.978 19.978 0 01-2.984 3.532 19.744 19.744 0 006.906-1.87c1.046.252 2.137.383 3.25.383 3.202 0 6.22-1.076 8.497-3.028 2.33-1.997 3.613-4.667 3.613-7.52 0-2.85-1.283-5.521-3.613-7.518zm-13.965 9.081a1.562 1.562 0 110-3.125 1.562 1.562 0 010 3.125zm5.469 0a1.563 1.563 0 110-3.125 1.563 1.563 0 010 3.125zm5.468 0a1.562 1.562 0 110-3.125 1.562 1.562 0 010 3.125z" fill="#DE6518"/></svg>