<svg width="40" height="40" fill="none" xmlns="http://www.w3.org/2000/svg"><path d="M37.266 14.14h-6.641v5.47H40v-2.735a2.738 2.738 0 00-2.734-2.734zm-6.641 8.985c0 2.8-2.278 5.078-5.078 5.078H11.719v1.953a2.737 2.737 0 002.734 2.735h22.813A2.737 2.737 0 0040 30.156v-8.203h-9.375v1.172z" fill="#DE6518"/><path d="M28.281 23.125V9.844a2.737 2.737 0 00-2.734-2.735H2.734A2.737 2.737 0 000 9.844v13.281a2.738 2.738 0 002.734 2.734h22.813a2.737 2.737 0 002.734-2.734zM7.656 21.172H4.688v-2.344h2.968v2.344zm5.313 0H10v-2.344h2.969v2.344zm5.312 0h-2.968v-2.344h2.968v2.344zm5.313 0h-2.969v-2.344h2.969v2.344zm0-7.031h-7.188v-2.344h7.188v2.344z" fill="#DE6518"/></svg>