<svg width="40" height="40" fill="none" xmlns="http://www.w3.org/2000/svg"><g clip-path="url(#clip0)"><path d="M1.377 31.625l17.982-17.982c-1.082-3.523-.206-7.455 2.27-10.185C24.07.765 27.832-.492 31.403.177c1.195.223 2.324.7 3.459 1.12l-4.112 3.98.78 3.11 3.082.88 4.132-4.045c.286.793.605 1.582.839 2.392.531 1.84.55 3.816.055 5.666-.922 3.448-3.611 6.249-7.012 7.325a10.6 10.6 0 01-6.28.027L8.367 38.614c-1.828 1.828-5.171 1.868-6.99 0-1.836-1.887-1.834-5.022 0-6.989z" fill="#DE6518"/></g><defs><clipPath id="clip0"><path fill="#fff" d="M0 0h40v40H0z"/></clipPath></defs></svg>