<svg width="40" height="40" fill="none" xmlns="http://www.w3.org/2000/svg"><path d="M39.567 28.704V11L28 19.852l11.567 8.852zM0 11.147v17.706L11.567 20 0 11.147zm1.094-2.114L18.31 22.21c.489.373 1.073.57 1.689.57.615 0 1.198-.197 1.687-.57l17.22-13.178c.365-.28.648-.637.835-1.039H.258c.187.402.47.759.836 1.039z" fill="#DE6518"/><path d="M38.906 30.967l-12.402-9.491s-3.333 2.55-3.395 2.594A5.06 5.06 0 0120 25.125a5.087 5.087 0 01-3.11-1.052l-3.394-2.597-12.401 9.491c-.366.28-.65.637-.836 1.039h39.484a2.782 2.782 0 00-.836-1.04z" fill="#DE6518"/></svg>