<svg width="40" height="40" fill="none" xmlns="http://www.w3.org/2000/svg"><g clip-path="url(#clip0)"><path d="M34.545 12.727h-5.454V5.455H3.636A3.635 3.635 0 000 9.09v20h3.636a5.459 5.459 0 005.455 5.454 5.459 5.459 0 005.455-5.454h10.909a5.459 5.459 0 005.454 5.454 5.459 5.459 0 005.455-5.454H40V20l-5.455-7.273zM9.091 31.818a2.724 2.724 0 01-2.727-2.727 2.724 2.724 0 012.727-2.727 2.724 2.724 0 012.727 2.727 2.724 2.724 0 01-2.727 2.727zm21.818 0a2.724 2.724 0 01-2.727-2.727 2.724 2.724 0 012.727-2.727 2.724 2.724 0 012.727 2.727 2.724 2.724 0 01-2.727 2.727zM29.091 20v-4.545h4.545L37.21 20h-8.118z" fill="#DE6518"/></g><defs><clipPath id="clip0"><path fill="#fff" d="M0 0h40v40H0z"/></clipPath></defs></svg>