<svg width="38" height="38" fill="none" xmlns="http://www.w3.org/2000/svg"><path d="M19 5.195C11.378 5.195 5.195 11.378 5.195 19S11.378 32.805 19 32.805 32.805 26.622 32.805 19 26.622 5.195 19 5.195zm6.843 10.306l-6.605 9.129a.295.295 0 01-.48 0l-6.605-9.13a.298.298 0 01.242-.47h1.74c.382 0 .738.181.961.49L19 20.914l3.904-5.396c.223-.308.582-.49.961-.49h1.74c.242 0 .383.275.238.472z" fill="#767676" fill-opacity=".1"/><path d="M19 2.375C9.82 2.375 2.375 9.819 2.375 19c0 9.18 7.444 16.625 16.625 16.625 9.18 0 16.625-7.444 16.625-16.625 0-9.18-7.444-16.625-16.625-16.625zm0 30.43c-7.622 0-13.805-6.183-13.805-13.805S11.378 5.195 19 5.195 32.805 11.378 32.805 19 26.622 32.805 19 32.805z" fill="#828282"/><path d="M25.605 15.03h-1.74c-.378 0-.738.181-.961.49L19 20.914l-3.904-5.396a1.183 1.183 0 00-.961-.49h-1.74c-.242 0-.383.275-.242.472l6.606 9.129c.119.163.36.163.479 0l6.605-9.13a.296.296 0 00-.238-.47z" fill="#828282"/></svg>