<svg width="111" height="40" fill="none" xmlns="http://www.w3.org/2000/svg"><path d="M.064 34.647c.017-.627.044-1.248.049-1.875.06-6.738.124-13.475.183-20.213.011-1.4.022-2.796.049-4.197.005-.196.065-.393.124-.578.022-.06.13-.109.205-.12 1.354-.163 2.709-.327 4.068-.485.766-.093 1.533-.218 2.304-.256a15.03 15.03 0 012.045.065c1.43.12 2.86.273 4.284.415 1.052.109 2.104.223 3.162.332.08.011.156.033.259.05-.022.223-.043.435-.076.697-1.532-.164-3.06-.322-4.624-.49.238.217.464.397.659.599 1.181 1.226 1.845 2.725 2.195 4.377.34 1.592.357 3.205.351 4.824-.016 2.862-.01 5.724-.032 8.58-.011 1.554-.151 3.102-.594 4.601-.47 1.586-1.22 2.998-2.466 4.11-.178.158-.377.3-.555.502 1.149-.06 2.298-.12 3.464-.186.021.246.037.458.059.703-.227.022-.437.044-.653.06-1.759.099-3.523.148-5.277.295-1.694.142-3.372.054-5.06-.05a116.8 116.8 0 00-3.286-.174c-.41-.016-.788-.005-.837-.55v-1.036zm6.324-6.078c.34-.033.647-.027.939-.093.518-.114.906-.403 1.003-.964.076-.41.178-.823.184-1.232.037-3.178.054-6.356.059-9.534 0-.387-.08-.774-.167-1.15-.092-.382-.362-.665-.74-.71-.372-.043-.766.039-1.17.066-.033 4.536-.07 9.044-.108 13.617z" fill="url(#paint0_linear)"/><path d="M110.617 28.16c-.037.496-.064.992-.113 1.488-.146 1.592-.415 3.157-1.209 4.563-.588 1.041-1.321 1.973-2.422 2.524-.901.447-1.867.55-2.86.512-.696-.027-1.376-.13-2.018-.42-.75-.337-1.332-.872-1.856-1.498-1.467-1.745-2.077-3.822-2.309-6.046-.113-1.074-.2-2.153-.102-3.232.172-1.848.636-3.598 1.608-5.195.091-.153.34-.3.188-.518-.895-1.287-1.203-2.764-1.349-4.28-.167-1.754-.091-3.504.319-5.221a7.95 7.95 0 012.131-3.843c.626-.627 1.424-.916 2.304-1.009 1.672-.174 2.994.453 4.122 1.68 1.268 1.373 1.915 3.025 2.261 4.824.264 1.373.415 2.769.334 4.17-.081 1.384-.291 2.741-1.02 3.957 1.36 1.684 1.738 3.696 1.937 5.762.017.158.033.321.054.48v1.302zm-5.206-1.482c-.006-.807-.135-1.587-.459-2.328-.146-.327-.415-.333-.696-.333-.264.006-.496.077-.599.366-.502 1.406-.496 2.802.065 4.192.119.294.356.457.642.447.335-.011.626-.137.75-.502.205-.6.297-1.215.297-1.842zm-.567-10.668c-.038-.97-.135-1.739-.518-2.42-.091-.159-.323-.268-.512-.322-.049-.016-.227.229-.27.376-.356 1.238-.27 2.453.221 3.641.081.202.205.366.426.344a.46.46 0 00.427-.393c.091-.469.178-.943.226-1.226z" fill="url(#paint1_linear)"/><path d="M51.521 6.05c.238-.773.454-1.482.664-2.19.189-.627.378-1.249.561-1.876.043-.152.119-.223.275-.24 1.36-.147 2.714-.3 4.074-.452 1.047-.115 2.088-.267 3.135-.333.593-.038 1.197.028 1.79.088.75.076 1.495.207 2.24.3 1.095.141 2.19.272 3.286.403.275.033.555.07.83.07.276-.005.314.126.314.366.016 1.897.037 3.8.064 5.696.108 7.703.222 15.405.335 23.107.038 2.644.075 5.288.124 7.932.005.207-.065.261-.259.272-1.111.055-2.223.126-3.34.191-1.31.076-2.617.19-3.928.213-1.057.021-2.12-.06-3.178-.115-1.5-.076-3-.169-4.494-.256a148.81 148.81 0 00-1.122-.065v-8.57c-.027-.005-.06-.005-.087-.01l-.097.37c-.232.829-.464 1.657-.685 2.491-.048.18-.119.246-.307.24-1.716-.038-3.432-.06-5.148-.092-.334-.006-.663-.028-.998-.028-.167 0-.248-.049-.297-.223-.2-.742-.415-1.483-.63-2.219-.022-.082-.05-.169-.087-.305v7.015c1.948-.103 3.858-.207 5.79-.31v-3.293h.825v3.974c-.513.027-1.036.066-1.565.093-1.527.082-3.054.125-4.575.245-2.029.158-4.041-.06-6.06-.158-.814-.038-1.634-.087-2.449-.13-.4-.023-.4-.012-.405-.431v-1.003c-.113.043-.194.07-.27.098.265-.126.27-.344.265-.594-.038-10.646-.07-21.292-.097-31.938v-.72c.674-.076 1.306-.152 1.937-.223 1.538-.17 3.07-.371 4.608-.496.598-.05 1.213.06 1.823.12 1.117.109 2.234.24 3.35.354.945.098 1.895.18 2.839.289.091.01.216.152.253.256.232.665.448 1.34.696 2.088zM62.14 1.816c.15 12.358.296 24.655.447 36.997 1.964-.104 3.896-.213 5.854-.316-.172-12.004-.34-23.969-.512-35.967-1.92-.24-3.83-.474-5.79-.714zM44.437 3.794c1.344 4.165 2.67 8.286 4.004 12.418a.867.867 0 00.048-.11 5186.51 5186.51 0 002.617-8.683.609.609 0 00-.01-.31c-.222-.71-.454-1.413-.686-2.121-.2-.61-.2-.589-.836-.649-1.117-.103-2.234-.234-3.346-.354-.588-.066-1.176-.126-1.79-.191z" fill="url(#paint2_linear)"/><path d="M18.43 35.121c-.485.267-.97.53-1.456.79-.01-.016-.016-.032-.027-.048.41-.344.82-.682 1.241-1.03-.194-.279-.372-.518-.529-.764-1.165-1.804-1.893-3.772-1.996-5.93-.08-1.723-.07-3.451-.075-5.174-.006-2.098.01-4.197.016-6.296.01-1.815.15-3.62.825-5.32.367-.921.88-1.777 1.333-2.665.048-.099.119-.18.194-.29a34.514 34.514 0 01-.496-.425c.005-.01.01-.027.016-.038.2.088.394.175.534.24.594-.589 1.133-1.204 1.754-1.717 1.645-1.368 3.55-2.033 5.686-1.935.885.038 1.77.18 2.65.278l2.837.31c1.134.12 2.267.246 3.4.366.205.022.404.044.642.065-.027.246-.054.464-.081.714a3766.59 3766.59 0 01-4.344-.457c-.005.016-.016.032-.021.049.167.125.34.245.507.376 1.705 1.395 2.74 3.205 3.275 5.336.378 1.5.459 3.026.464 4.563.005 3.423.027 6.846.022 10.27 0 1.897-.222 3.766-.912 5.554-.664 1.717-1.657 3.195-3.113 4.329-.346.267-.723.495-1.106.757.965-.049 1.91-.103 2.864-.152.022.24.044.452.065.697-.215.022-.42.05-.62.06-1.84.098-3.68.202-5.52.278-.922.038-1.856.098-2.773.006-2.007-.207-3.685-1.134-5.066-2.611-.049-.055-.097-.104-.146-.158-.016-.017-.032-.022-.043-.028zm8.553-14.036c.005-1.706.005-3.418 0-5.124a8.85 8.85 0 00-.044-.845c-.102-.987-.695-1.7-1.64-1.973a.544.544 0 00-.264-.011c-1.122.3-1.932.948-2.223 2.126a4.666 4.666 0 00-.124 1.024c-.01 1.608-.005 3.216 0 4.825.005 1.87 0 3.739.032 5.614.016 1.058.556 1.8 1.506 2.224.248.11.55.24.793.18.75-.174 1.403-.583 1.71-1.325.178-.436.243-.948.248-1.428.022-1.766.006-3.526.006-5.287z" fill="url(#paint3_linear)"/><path d="M82.993 20.632c-.032-2.436-.097-4.867-.092-7.304.006-2.453.626-4.737 2.077-6.749.988-1.368 2.294-2.13 3.977-2.305 2.207-.23 3.847.768 5.244 2.344 1.732 1.962 2.585 4.3 2.757 6.884.14 2.11.173 4.23.232 6.345.076 2.862.162 5.719.184 8.58.016 1.745-.222 3.462-.955 5.07-.686 1.504-1.587 2.845-2.984 3.783-1.052.703-2.218.943-3.47.834-2.028-.18-3.495-1.248-4.601-2.905-.75-1.118-1.376-2.295-1.71-3.615a16.847 16.847 0 01-.492-3.635c-.06-2.186-.091-4.378-.135-6.569-.005-.256 0-.507 0-.763-.01.005-.021.005-.032.005zm8.552.878c-.049-2.104-.076-4.214-.151-6.318-.022-.561-.178-1.123-.303-1.673-.097-.436-.442-.665-.825-.834-.194-.088-.372-.06-.567.038-.485.24-.642.681-.663 1.166a40.19 40.19 0 00-.022 2.42c.07 3.778.146 7.556.238 11.333.01.491.13.987.248 1.467.097.387.647.78.987.768.362-.01.89-.392.971-.79.108-.518.205-1.052.2-1.58-.005-2.001-.07-3.997-.113-5.997z" fill="url(#paint4_linear)"/><path d="M75.493 17.105l-.588.693c-.221.256-.68.229-.869-.05-1.052-1.547-2.099-3.1-3.15-4.649-.103-.153-.098-.256-.011-.409 1.78-3.047 3.571-6.089 5.325-9.147.232-.409.54-.474.9-.436 1.339.147 2.677.316 4.015.49.092.012.216.115.237.197.076.267.157.545.162.818.108 5.701.205 11.409.308 17.11.07 3.969.145 7.937.216 11.906.021 1.237.059 2.469.064 3.706 0 .267-.086.535-.156.79-.016.055-.13.11-.2.115-1.1.077-2.206.153-3.307.213-.718.038-1.435.054-2.153.082-.162.005-.248-.044-.27-.218-.037-.322-.135-.644-.14-.965-.113-6.356-.221-12.718-.324-19.073-.005-.382 0-.764 0-1.145-.016-.011-.037-.017-.059-.027z" fill="url(#paint5_linear)"/><defs><linearGradient id="paint0_linear" x1="8.43" y1="6.911" x2="8.43" y2="36.531" gradientUnits="userSpaceOnUse"><stop stop-color="#F2C94C"/><stop offset="1" stop-color="#F29C4C"/></linearGradient><linearGradient id="paint1_linear" x1="104.151" y1="5.957" x2="104.151" y2="37.255" gradientUnits="userSpaceOnUse"><stop stop-color="#F2C94C"/><stop offset="1" stop-color="#F29C4C"/></linearGradient><linearGradient id="paint2_linear" x1="52.531" y1=".948" x2="52.531" y2="39.6" gradientUnits="userSpaceOnUse"><stop stop-color="#F2C94C"/><stop offset="1" stop-color="#F29C4C"/></linearGradient><linearGradient id="paint3_linear" x1="25.282" y1="4.509" x2="25.282" y2="37.967" gradientUnits="userSpaceOnUse"><stop stop-color="#F2C94C"/><stop offset="1" stop-color="#F29C4C"/></linearGradient><linearGradient id="paint4_linear" x1="90.137" y1="4.241" x2="90.137" y2="38.139" gradientUnits="userSpaceOnUse"><stop stop-color="#F2C94C"/><stop offset="1" stop-color="#F29C4C"/></linearGradient><linearGradient id="paint5_linear" x1="76.456" y1="3.098" x2="76.456" y2="38.534" gradientUnits="userSpaceOnUse"><stop stop-color="#F2C94C"/><stop offset="1" stop-color="#F29C4C"/></linearGradient></defs></svg>