<svg width="26" height="26" fill="none" xmlns="http://www.w3.org/2000/svg"><path d="M20.125 8.909L13 15.187 5.875 8.909a.685.685 0 10-.905 1.027l7.578 6.677a.683.683 0 00.905 0l7.577-6.677a.685.685 0 10-.905-1.027z" fill="#4F4F4F"/><path d="M21.947 6H4.053A2.056 2.056 0 002 8.053v10.86c0 1.133.921 2.054 2.053 2.054h17.894A2.056 2.056 0 0024 18.914V8.054A2.056 2.056 0 0021.947 6zm.684 12.914a.685.685 0 01-.684.684H4.053a.685.685 0 01-.684-.684V8.054c0-.378.307-.685.684-.685h17.894c.377 0 .684.307.684.684v10.86z" fill="#4F4F4F"/></svg>