<svg width="32" height="32" fill="none" xmlns="http://www.w3.org/2000/svg"><g clip-path="url(#clip0)"><path d="M13 11.5V19h6v-7.5l-.5-1.5-1-1-1-.5-2 .5-1 1-.5 1.5zm-4.5 3h2V13h-2v1.5zm12.5 0h2V13h-2v1.5zm-13.5 7H6V29h1.5v-7.5z" fill="#F2C94C"/><path d="M3 10.5V14l13-9.5L28.5 14l.5-3.5L16 1 3 10.5z" fill="#F2C94C"/><path d="M31.444 21.241c-.44-.37-1.078-.535-1.682-.43L16.71 23.42l-2.465-2.465a.531.531 0 00-.377-.156H.533a.533.533 0 00-.533.533v8c0 .295.238.534.533.534H8a.533.533 0 00.533-.534V28.8h1.464l5.748 3.135A.535.535 0 0016 32h1.6a.53.53 0 00.275-.076l13.327-7.997c.507-.296.798-.852.798-1.527a1.5 1.5 0 00-.556-1.159zM5.334 28.8H1.066v-6.933h4.266V28.8zm2.133 0H6.4v-6.933h1.067V28.8zm23.192-5.79l-13.207 7.923h-1.316l-5.747-3.135a.535.535 0 00-.256-.065h-1.6v-5.866h5.113l4.644 4.644c.235.235.377.493.377.689 0 .538-.528 1.067-1.067 1.067-.195 0-.453-.142-.69-.377l-3.2-3.2-.754.754 3.2 3.2c.446.445.958.69 1.444.69 1.136 0 2.133-.997 2.133-2.134 0-.487-.245-1-.69-1.444l-1.428-1.429 12.343-2.468c.28-.05.6.03.8.198.175.148.175.295.175.343 0 .135-.026.465-.274.61zM16 13.334a.534.534 0 11.533-.534.533.533 0 101.067 0 1.6 1.6 0 00-1.067-1.502v-.631h-1.066v.632c-.62.22-1.067.807-1.067 1.501 0 .882.718 1.6 1.6 1.6a.534.534 0 11-.533.534H14.4c0 .694.447 1.28 1.067 1.502v.631h1.066v-.631a1.598 1.598 0 001.067-1.502c0-.882-.718-1.6-1.6-1.6z" fill="#000"/><path d="M29.131 10.248L16.331.116a.534.534 0 00-.662 0l-5.002 3.96V2.667a.533.533 0 00-.534-.534h-3.2a.533.533 0 00-.533.534v4.786l-3.531 2.795a.534.534 0 00-.202.419V14.4a.534.534 0 00.864.418l2.336-1.849V19.2c0 .294.238.533.533.533h19.2a.533.533 0 00.533-.533v-6.23l2.336 1.848a.533.533 0 00.864-.418v-3.733a.534.534 0 00-.202-.418zM7.467 3.2H9.6v1.72L7.467 6.608V3.2zm11.2 15.467h-5.334v-6.934A2.67 2.67 0 0116 9.067a2.67 2.67 0 012.667 2.666v6.934zm6.4 0h-5.334v-6.934A3.738 3.738 0 0016 8a3.738 3.738 0 00-3.733 3.733v6.934H6.933v-6.542L16 4.947l9.067 7.178v6.542zm3.2-5.37l-2.335-1.849-9.6-7.6a.534.534 0 00-.663 0l-9.6 7.6-2.336 1.85v-2.373l3.53-2.795h.002l3.2-2.534L16 1.212l12.267 9.711v2.373z" fill="#000"/><path d="M10.667 12.267H8.533A.533.533 0 008 12.8v2.133c0 .295.238.534.533.534h2.134a.533.533 0 00.533-.534V12.8a.533.533 0 00-.533-.533zm-.534 2.133H9.067v-1.067h1.066V14.4zm13.334-2.133h-2.134a.533.533 0 00-.533.533v2.133c0 .295.238.534.533.534h2.134a.533.533 0 00.533-.534V12.8a.533.533 0 00-.533-.533zm-.534 2.133h-1.066v-1.067h1.066V14.4z" fill="#000"/></g><defs><clipPath id="clip0"><path fill="#fff" d="M0 0h32v32H0z"/></clipPath></defs></svg>