<svg width="32" height="32" fill="none" xmlns="http://www.w3.org/2000/svg"><path d="M11.79 16.42l2.947-.42.42-1.684-.841-.843-1.263-1.263V8h3.368l1.684-1.263 1.263.842 2.106.42v2.106l-.421 2.105-1.685 2.106V16l.422.42H24l2.105.422.842-1.263V12.63l-.842-1.684V8l-.842-1.684L24 5.895V4.63l-1.684-1.684-1.684-1.684L17.684.42l-2.947.421-2.527 1.684-1.684 2.526-1.263 1.264L8.421 8v3.368l-.842 2.105v1.685l1.263 1.684 2.947-.421z" fill="#F2C94C"/><path d="M6.685 22.565c.656 0 1.19-.534 1.19-1.19a.625.625 0 00-1.247-.058.625.625 0 00.057 1.248zm10.531-9.949c.425 0 .85-.162 1.173-.485a.625.625 0 00-.884-.884.409.409 0 01-.578 0 .625.625 0 00-.884.884c.324.323.748.485 1.173.485z" fill="#000"/><path d="M30.763 22.855a.625.625 0 10-1.224.254c.107.514.161 1.043.161 1.573v2.88a3.19 3.19 0 01-3.187 3.187H19.84v-3.26h4.984a.624.624 0 00.625-.624v-3.49a.625.625 0 10-1.25 0v2.865h-6.73c-.066 0-.133.003-.2.008a5.15 5.15 0 00-1.461-2.997l-5.864-5.864a7.648 7.648 0 012.448-.398h.32a4.537 4.537 0 004.487 3.905 4.537 4.537 0 004.488-3.905h.32c1.772 0 3.501.617 4.87 1.738a.622.622 0 00.88-.088.625.625 0 00-.088-.88 8.872 8.872 0 00-1.018-.719 5.39 5.39 0 00.95-3.02 5.39 5.39 0 00-1.134-3.353 4.947 4.947 0 00-1.195-5.108 4.99 4.99 0 00-.783-.639A7.867 7.867 0 0017.216 0a7.867 7.867 0 00-7.274 4.92c-.282.186-.544.4-.783.639a4.947 4.947 0 00-1.195 5.108 5.437 5.437 0 00-.803 5.167 5.174 5.174 0 00-.986-.095 5.091 5.091 0 00-3.624 1.502 5.091 5.091 0 00-1.501 3.623c0 1.37.533 2.656 1.5 3.624l.002.002 1.75 1.75h-.156a2.883 2.883 0 00-2.88 2.88 2.883 2.883 0 002.88 2.879h5.87c.324 0 .634-.054.925-.153a5.127 5.127 0 004.325-.877 2.87 2.87 0 002.205 1.03h9.042a4.442 4.442 0 004.437-4.437v-2.88c0-.615-.063-1.23-.187-1.827zM7.455 25.828a5.093 5.093 0 002.343-1.34 5.092 5.092 0 001.487-3.993l3.504 3.503a8.334 8.334 0 01-7.334 1.83zm9.746-6.184a3.287 3.287 0 01-3.222-2.655h1.305c.345 0 .625-.28.625-.625V15.11a4.874 4.874 0 002.583 0v1.255c0 .346.28.625.625.625h1.305a3.287 3.287 0 01-3.221 2.655zM13.562 8.452h1.978a3.39 3.39 0 002.313-.91 3.1 3.1 0 002.194.91h.792v1.944a3.642 3.642 0 01-3.638 3.637 3.642 3.642 0 01-3.638-3.637V8.451zM9.253 10.54a3.706 3.706 0 01.79-4.097c.218-.219.463-.41.727-.567a.625.625 0 00.267-.32 6.611 6.611 0 016.18-4.306 6.612 6.612 0 016.179 4.305c.05.135.143.248.266.32.264.159.51.35.728.568a3.706 3.706 0 01.79 4.097.625.625 0 00.11.663 4.131 4.131 0 01.239 5.26 8.959 8.959 0 00-3.521-.724h-2.266v-1.17a4.89 4.89 0 002.347-4.173V7.827a.625.625 0 00-.625-.625h-1.417a1.852 1.852 0 01-1.437-.684 3.37 3.37 0 00.335-1.47.625.625 0 00-1.25 0 2.157 2.157 0 01-2.155 2.154h-2.603a.625.625 0 00-.625.625v2.569a4.89 4.89 0 002.347 4.173v1.17h-2.266c-1.217 0-2.392.24-3.498.711a4.171 4.171 0 01.248-5.247.625.625 0 00.11-.663zm-5.818 7.584a3.85 3.85 0 012.74-1.135 3.85 3.85 0 012.74 1.135v.001a3.85 3.85 0 011.135 2.74 3.85 3.85 0 01-1.135 2.74 3.85 3.85 0 01-2.74 1.134 3.849 3.849 0 01-2.74-1.135 3.85 3.85 0 01-1.135-2.74 3.85 3.85 0 011.135-2.74zM2.516 29.12c0-.898.731-1.63 1.63-1.63h3.5v3.26h-3.5c-.899 0-1.63-.731-1.63-1.63zm6.38 1.63v-3.26h1.12a1.63 1.63 0 010 3.26h-1.12zm3.497-.005a2.873 2.873 0 00-.492-3.8 9.493 9.493 0 003.665-1.964c.282.499.448 1.054.485 1.636a2.881 2.881 0 00-1.37 3.221 3.874 3.874 0 01-2.288.907zm3.448-1.624c0-.9.731-1.63 1.63-1.63h1.12v3.26h-1.12c-.899 0-1.63-.732-1.63-1.63z" fill="#000"/><path d="M29.12 20.99a.63.63 0 00.624-.625.63.63 0 00-.625-.625.63.63 0 00-.442.183.629.629 0 000 .884.63.63 0 00.442.183z" fill="#000"/></svg>