<svg width="32" height="32" fill="none" xmlns="http://www.w3.org/2000/svg"><path d="M11 14.5V16h10l-.5-2-1-1.5-1.5-1-2-.5-2 .5-2 1.5-1 1.5zm2 4L11.5 20l-.5 2.5.5 2 1 1.5 1.5 1 2 .5 1.5-.5 2-1 1-1 .5-2v-1.5l-.5-1.5-1-1-1-1-1.5-.5h-2l-2 1z" fill="#F2C94C"/><path d="M31 15.5h-4.293l4.646-4.646a.5.5 0 000-.707l-9.5-9.5a.5.5 0 00-.707 0L6.293 15.5H1a.5.5 0 00-.5.5v13a.5.5 0 00.5.5h7.293l1.854 1.854a.499.499 0 00.707 0l1.854-1.854H31a.5.5 0 00.5-.5V16a.5.5 0 00-.5-.5zM21.5 1.707l8.793 8.793-5 5h-3.817a5.456 5.456 0 00-1.587-3.389 5.507 5.507 0 00-7.778 0 5.462 5.462 0 00-1.587 3.39H7.707L21.5 1.706zM13.614 15.5a1 1 0 01.264-.914l.915.914h-1.18zm5.393 0A2.002 2.002 0 0016 15.293l-1.413-1.414a1.024 1.024 0 011.413 0l.707-.707a1.988 1.988 0 00-1.413-.585c-.534 0-1.037.208-1.414.585h-.001l-.354-.353-.706.707.353.354a1.984 1.984 0 00-.572 1.62h-1.071a4.468 4.468 0 011.288-2.682 4.506 4.506 0 016.364 0 4.465 4.465 0 011.288 2.682h-1.462zM10.5 30.293l-.793-.793h1.586l-.793.793zm20-1.793h-29v-12h29v12z" fill="#000"/><path d="M14.5 24h-1c0 1.103.897 2 2 2v.5h1V26c1.103 0 2-.897 2-2s-.897-2-2-2v-2a1 1 0 011 1h1c0-1.103-.897-2-2-2v-.5h-1v.5c-1.103 0-2 .897-2 2s.897 2 2 2v2a1 1 0 01-1-1zm0-3a1 1 0 011-1v2a1 1 0 01-1-1zm2 2a1.001 1.001 0 010 2v-2z" fill="#000"/><path d="M16 28c3.032 0 5.5-2.468 5.5-5.5S19.032 17 16 17a5.506 5.506 0 00-5.5 5.5c0 3.032 2.467 5.5 5.5 5.5zm0-10c2.482 0 4.5 2.019 4.5 4.5S18.482 27 16 27a4.505 4.505 0 01-4.5-4.5c0-2.481 2.018-4.5 4.5-4.5zm13.5 9v-9a.5.5 0 00-.5-.5h-6v1h5.5v8H23v1h6a.5.5 0 00.5-.5zM3 27.5h6v-1H3.5v-8H9v-1H3a.5.5 0 00-.5.5v9a.5.5 0 00.5.5z" fill="#000"/><path d="M23 24.5h1v1h-1v-1zm2 0h1v1h-1v-1zm-2-5h1v1h-1v-1zm2 0h1v1h-1v-1zM21.636 4.707l5.657 5.657-3.89 3.889.707.707 4.243-4.243a.5.5 0 000-.707l-6.364-6.364a.515.515 0 00-.707 0L17.04 7.89l.707.707 3.889-3.889z" fill="#000"/><path d="M21.986 12.84l.708-.707.707.707-.707.707-.707-.707zm1.414-1.415l.707-.707.707.707-.707.707-.707-.707zm-4.949-2.12l.707-.707.708.707-.707.707-.708-.707zm1.414-1.415l.707-.706.707.707-.707.707-.707-.707zM6 19.5h1v1H6v-1zm2 0h1v1H8v-1zm-2 5h1v1H6v-1zm2 0h1v1H8v-1z" fill="#000"/></svg>