<svg width="98" height="98" fill="none" xmlns="http://www.w3.org/2000/svg"><path d="M36.79 36.71l9.187.03a1.531 1.531 0 001.532-1.53l.026-7.657a1.53 1.53 0 00-1.532-1.53l-9.187-.032a1.531 1.531 0 00-1.531 1.532l-.026 7.656a1.531 1.531 0 001.53 1.531zm1.557-7.656l6.125.02-.015 4.594-6.125-.02.015-4.594z" fill="url(#paint0_linear)"/><path d="M18.415 36.65l9.187.03a1.531 1.531 0 001.532-1.532l.024-7.656a1.53 1.53 0 00-1.531-1.531l-9.188-.03a1.531 1.531 0 00-1.53 1.532l-.025 7.656a1.53 1.53 0 001.53 1.532zm1.557-7.656l6.125.02-.015 4.594-6.125-.02.015-4.594z" fill="url(#paint1_linear)"/><path d="M55.165 36.77l9.188.03a1.531 1.531 0 001.53-1.53l.027-7.657a1.531 1.531 0 00-1.531-1.531l-9.188-.031a1.532 1.532 0 00-1.531 1.531l-.026 7.657a1.531 1.531 0 001.531 1.53zm1.556-7.657l6.125.022-.014 4.594-6.125-.02.014-4.596z" fill="url(#paint2_linear)"/><path d="M93.426 43.028l-18.375-.06.054-16.246 2.57.865c.158.05.323.075.49.078.32.007.632-.095.887-.288a1.504 1.504 0 00.648-1.238l.02-6.125a1.555 1.555 0 00-1.037-1.46L61.37 12.72l.026-8.085a1.531 1.531 0 00-1.53-1.532l-7.657-.024a1.531 1.531 0 00-1.531 1.531l-.016 4.517-8.688-2.947a1.531 1.531 0 00-.98 0L4.203 18.305a1.554 1.554 0 00-1.046 1.451l-.02 6.125a1.502 1.502 0 00.64 1.242 1.52 1.52 0 001.379.22l2.574-.852-.133 40.746-3.063-.01a1.532 1.532 0 00-1.531 1.53l-.02 6.126a1.531 1.531 0 001.531 1.531l18.375.06-.055 16.843a1.531 1.531 0 001.531 1.532l58.188.19a1.531 1.531 0 001.531-1.532l.055-16.843 9.188.03a1.532 1.532 0 001.531-1.531l.101-30.625a1.531 1.531 0 00-1.533-1.51zM53.735 6.14l4.593.016-.018 5.528-4.594-1.547.019-3.997zM6.208 23.762l.009-2.894L41.474 9.24l35.18 11.86-.009 2.893-34.689-11.69a1.606 1.606 0 00-.98 0L6.208 23.763zm4.431 49.612l-4.594-.015.01-3.062 4.593.015-.009 3.063zm.02-6.124l.136-41.773 30.66-10.106 30.59 10.307-.056 17.272-33.688-.11a1.505 1.505 0 00-1.458 1.19 12.236 12.236 0 00-20.64 3.382 12.235 12.235 0 003.244 13.742l-2.65-.01a1.531 1.531 0 00-1.53 1.532l-.016 4.593-4.592-.02zm33.544-21.328a6.153 6.153 0 01-4.39 4.364l.015-4.38 4.375.016zM18.315 67.275l.01-3.062 18.375.06-.01 3.062-18.375-.06zm18.365 3.123l-.01 3.062h-1.53l.008-3.062h1.532zm-1.088-9.188c.397-.347.77-.72 1.121-1.113v1.118l-1.12-.005zm-8.07-.026a9.187 9.187 0 119.219-9.157 9.188 9.188 0 01-9.218 9.153v.004zm-13.82 12.201l.009-3.062 18.375.06-.01 3.062-18.374-.06zm27.5 18.464L25.89 91.8v-1.531l15.313.05v1.53zm.016-4.594l-15.312-.05v-1.531l15.312.05v1.531zm.016-4.593L25.92 82.61v-1.53l15.313.05v1.532zm.015-4.594l-15.313-.05v-1.532l15.313.05v1.532zm-1.516-4.594l.014-4.38a6.153 6.153 0 014.365 4.395l-4.38-.015zm22.907 18.45l-18.375-.06.051-15.312 18.375.06-.05 15.312zm18.376.061l-15.313-.05v-1.532l15.313.051v1.531zm.015-4.593l-15.313-.051V85.81l15.313.05v1.532zm.015-4.594l-15.312-.05v-1.532l15.312.05v1.532zm.015-4.594l-15.312-.05v-1.532l15.312.05v1.532zm10.734-4.56l-4.379-.014a6.147 6.147 0 014.393-4.364l-.013 4.378zm.025-7.518a9.176 9.176 0 00-7.543 7.493L47.251 73.5a9.178 9.178 0 00-7.494-7.543l.042-12.525a9.175 9.175 0 007.543-7.494l37.024.122a9.178 9.178 0 007.494 7.534l-.04 12.532zm.055-15.668a6.156 6.156 0 01-4.365-4.395l4.379.015-.014 4.38z" fill="url(#paint3_linear)"/><path d="M47.416 61.23l.01-3.063 4.593.014-.01 3.062-4.593-.014z" fill="url(#paint4_linear)"/><path d="M79.563 61.334l.01-3.063 4.593.014-.01 3.063-4.593-.014z" fill="url(#paint5_linear)"/><path d="M65.844 47.524a12.25 12.25 0 1012.21 12.29 12.265 12.265 0 00-12.21-12.29zm-.07 21.438a9.188 9.188 0 119.217-9.157 9.198 9.198 0 01-9.213 9.157h-.005z" fill="url(#paint6_linear)"/><path d="M26.797 48.928h1.531a.765.765 0 01.766.766l3.062.01a3.828 3.828 0 00-3.05-3.76v-1.61l-3.063-.009v1.61a3.829 3.829 0 00.742 7.58h1.53a.766.766 0 110 1.532h-1.53a.766.766 0 01-.766-.766l-3.063-.01a3.828 3.828 0 003.046 3.764v1.609l3.063.009v-1.608a3.828 3.828 0 00-.741-7.581h-1.532a.766.766 0 010-1.531l.005-.005z" fill="url(#paint7_linear)"/><defs><linearGradient id="paint0_linear" x1="41.397" y1="25.991" x2="41.397" y2="36.741" gradientUnits="userSpaceOnUse"><stop stop-color="#F2C94C"/><stop offset="1" stop-color="#F29C4C"/></linearGradient><linearGradient id="paint1_linear" x1="23.021" y1="25.932" x2="23.021" y2="36.68" gradientUnits="userSpaceOnUse"><stop stop-color="#F2C94C"/><stop offset="1" stop-color="#F29C4C"/></linearGradient><linearGradient id="paint2_linear" x1="59.772" y1="26.051" x2="59.772" y2="36.8" gradientUnits="userSpaceOnUse"><stop stop-color="#F2C94C"/><stop offset="1" stop-color="#F29C4C"/></linearGradient><linearGradient id="paint3_linear" x1="48.971" y1="3.078" x2="48.971" y2="95.039" gradientUnits="userSpaceOnUse"><stop stop-color="#F2C94C"/><stop offset="1" stop-color="#F29C4C"/></linearGradient><linearGradient id="paint4_linear" x1="47.42" y1="59.698" x2="52.014" y2="59.712" gradientUnits="userSpaceOnUse"><stop stop-color="#F2C94C"/><stop offset="1" stop-color="#F29C4C"/></linearGradient><linearGradient id="paint5_linear" x1="79.568" y1="59.803" x2="84.161" y2="59.816" gradientUnits="userSpaceOnUse"><stop stop-color="#F2C94C"/><stop offset="1" stop-color="#F29C4C"/></linearGradient><linearGradient id="paint6_linear" x1="65.804" y1="47.524" x2="65.804" y2="72.024" gradientUnits="userSpaceOnUse"><stop stop-color="#F2C94C"/><stop offset="1" stop-color="#F29C4C"/></linearGradient><linearGradient id="paint7_linear" x1="27.556" y1="44.325" x2="27.556" y2="59.653" gradientUnits="userSpaceOnUse"><stop stop-color="#F2C94C"/><stop offset="1" stop-color="#F29C4C"/></linearGradient></defs></svg>