<svg width="98" height="98" fill="none" xmlns="http://www.w3.org/2000/svg"><path d="M93.406 42.875H59.72v-4.226l2.465 1.041c.19.077.392.119.597.123a1.548 1.548 0 001.532-1.532v-6.125a1.521 1.521 0 00-.935-1.409l-9.784-4.119v-9.784a1.531 1.531 0 00-1.532-1.532h-7.656a1.531 1.531 0 00-1.531 1.532v5.267l-8.59-3.614a1.474 1.474 0 00-1.195 0L3.997 30.747a1.521 1.521 0 00-.935 1.41v6.124a1.532 1.532 0 00.69 1.271 1.508 1.508 0 001.439.138l2.465-1.041v28.726H6.125a1.531 1.531 0 00-1.531 1.531v6.125a1.531 1.531 0 001.53 1.531H22.97v16.844a1.531 1.531 0 001.531 1.531h58.188a1.531 1.531 0 001.53-1.53V76.562h9.188a1.531 1.531 0 001.531-1.532V44.406a1.531 1.531 0 00-1.53-1.531zm-47.469-24.5h4.594v6.967l-4.593-1.944v-5.023zM6.126 35.969v-2.802L33.688 21.56 61.25 33.167v2.802L34.285 24.622a1.517 1.517 0 00-1.195 0L6.125 35.97zm32.156 6.906a1.531 1.531 0 00-1.531 1.531v5.13A8.951 8.951 0 0033.687 49a9.188 9.188 0 00-9.187 9.188v9.187H10.719V37.362l22.969-9.677 22.968 9.677v5.513H38.281zm5.91 3.063a6.15 6.15 0 01-4.379 4.379v-4.38h4.38zm-7.441 6.951v14.486h-9.188v-9.188a6.125 6.125 0 016.125-6.124 6.04 6.04 0 013.063.826zM7.656 73.5v-3.063H36.75V73.5H7.656zm33.688 18.375H26.03v-1.531h15.313v1.531zm0-4.594H26.03V85.75h15.313v1.531zm0-4.594H26.03v-1.53h15.313v1.53zm0-4.593H26.03v-1.531h15.313v1.53zM39.812 73.5v-4.38a6.151 6.151 0 014.38 4.38h-4.38zm22.97 18.375H44.405V76.562H62.78v15.313zm18.374 0H65.844v-1.531h15.312v1.531zm0-4.594H65.844V85.75h15.312v1.531zm0-4.594H65.844v-1.53h15.312v1.53zm0-4.593H65.844v-1.531h15.312v1.53zM91.875 73.5h-4.38a6.15 6.15 0 014.38-4.38v4.38zm0-7.518a9.174 9.174 0 00-7.519 7.518H47.331a9.175 9.175 0 00-7.519-7.518V53.456a9.174 9.174 0 007.519-7.519h37.025a9.175 9.175 0 007.519 7.519v12.526zm0-15.665a6.151 6.151 0 01-4.38-4.38h4.38v4.38z" fill="url(#paint0_linear)"/><path d="M47.469 58.188h4.593v3.062H47.47v-3.063z" fill="url(#paint1_linear)"/><path d="M79.625 58.188h4.594v3.062h-4.594v-3.063z" fill="url(#paint2_linear)"/><path d="M65.078 56.656h1.531a.766.766 0 01.766.766h3.063a3.828 3.828 0 00-3.063-3.75v-1.61h-3.063v1.61a3.829 3.829 0 00.766 7.578h1.531a.766.766 0 010 1.531h-1.53a.766.766 0 01-.766-.765H61.25a3.828 3.828 0 003.063 3.75v1.609h3.062v-1.61a3.829 3.829 0 00-.766-7.578h-1.53a.766.766 0 010-1.53z" fill="url(#paint3_linear)"/><path d="M65.844 47.469a12.25 12.25 0 1012.25 12.25 12.264 12.264 0 00-12.25-12.25zm0 21.437a9.188 9.188 0 119.187-9.187 9.197 9.197 0 01-9.187 9.187z" fill="url(#paint4_linear)"/><path d="M24.5 49a1.531 1.531 0 001.531-1.531v-7.657a1.532 1.532 0 00-1.531-1.53h-9.188a1.532 1.532 0 00-1.53 1.53v7.657A1.531 1.531 0 0015.311 49H24.5zm-7.656-7.656h6.125v4.593h-6.125v-4.593z" fill="url(#paint5_linear)"/><path d="M29.094 59.719h3.062v3.062h-3.062V59.72z" fill="url(#paint6_linear)"/><path d="M67.375 24.5a6.036 6.036 0 003.89-1.407 10.872 10.872 0 0011.17-.352A7.58 7.58 0 0087.28 24.5a7.657 7.657 0 10-.995-15.24 10.72 10.72 0 00-20.356 3.161A6.125 6.125 0 0067.374 24.5zm0-9.188a1.531 1.531 0 001.531-1.53 7.656 7.656 0 0114.971-2.267 1.531 1.531 0 001.953.998 4.52 4.52 0 011.451-.263 4.594 4.594 0 11-3.522 7.503 1.532 1.532 0 00-1.053-.553h-.127a1.53 1.53 0 00-1.003.374 7.773 7.773 0 01-9.607.317 1.532 1.532 0 00-2.144.306 3.03 3.03 0 01-2.45 1.24 3.062 3.062 0 110-6.125z" fill="url(#paint7_linear)"/><defs><linearGradient id="paint0_linear" x1="49" y1="15.313" x2="49" y2="94.938" gradientUnits="userSpaceOnUse"><stop stop-color="#F2C94C"/><stop offset="1" stop-color="#F29C4C"/></linearGradient><linearGradient id="paint1_linear" x1="49.766" y1="58.188" x2="49.766" y2="61.25" gradientUnits="userSpaceOnUse"><stop stop-color="#F2C94C"/><stop offset="1" stop-color="#F29C4C"/></linearGradient><linearGradient id="paint2_linear" x1="81.922" y1="58.188" x2="81.922" y2="61.25" gradientUnits="userSpaceOnUse"><stop stop-color="#F2C94C"/><stop offset="1" stop-color="#F29C4C"/></linearGradient><linearGradient id="paint3_linear" x1="65.844" y1="52.063" x2="65.844" y2="67.375" gradientUnits="userSpaceOnUse"><stop stop-color="#F2C94C"/><stop offset="1" stop-color="#F29C4C"/></linearGradient><linearGradient id="paint4_linear" x1="65.844" y1="47.469" x2="65.844" y2="71.969" gradientUnits="userSpaceOnUse"><stop stop-color="#F2C94C"/><stop offset="1" stop-color="#F29C4C"/></linearGradient><linearGradient id="paint5_linear" x1="19.906" y1="38.281" x2="19.906" y2="49" gradientUnits="userSpaceOnUse"><stop stop-color="#F2C94C"/><stop offset="1" stop-color="#F29C4C"/></linearGradient><linearGradient id="paint6_linear" x1="30.625" y1="59.719" x2="30.625" y2="62.781" gradientUnits="userSpaceOnUse"><stop stop-color="#F2C94C"/><stop offset="1" stop-color="#F29C4C"/></linearGradient><linearGradient id="paint7_linear" x1="78.121" y1="3.053" x2="78.121" y2="24.5" gradientUnits="userSpaceOnUse"><stop stop-color="#F2C94C"/><stop offset="1" stop-color="#F29C4C"/></linearGradient></defs></svg>