<svg width="98" height="98" fill="none" xmlns="http://www.w3.org/2000/svg"><path d="M13.781 84.219H59.72v3.062H13.78V84.22z" fill="url(#paint0_linear)"/><path d="M24.5 61.25h3.063v3.063H24.5V61.25z" fill="url(#paint1_linear)"/><path d="M30.625 61.25h3.063v3.063h-3.063V61.25z" fill="url(#paint2_linear)"/><path d="M39.813 61.25h3.062v3.063h-3.063V61.25z" fill="url(#paint3_linear)"/><path d="M45.938 61.25H49v3.063h-3.063V61.25z" fill="url(#paint4_linear)"/><path d="M85.75 27.563h-6.125a1.531 1.531 0 00-1.531 1.53v6.126H61.25v-6.125a1.531 1.531 0 00-1.531-1.532h-1.593A23.324 23.324 0 0041.344 7.305v-2.71a1.532 1.532 0 00-1.532-1.532h-12.25a1.531 1.531 0 00-1.53 1.532v2.71A23.325 23.325 0 009.248 27.562H7.656a1.531 1.531 0 00-1.531 1.532v6.125H4.594a1.531 1.531 0 00-1.532 1.531v56.656a1.531 1.531 0 001.532 1.531H85.75a9.187 9.187 0 009.188-9.187v-49a9.187 9.187 0 00-9.188-9.188zm-44.406-17.06a20.2 20.2 0 0113.704 17.059H41.344V10.503zm-12.25-4.379h9.187v21.438h-9.187V6.125zm-3.063 4.38v17.057H12.327A20.2 20.2 0 0126.03 10.505zM9.188 30.624h49v4.594h-49v-4.594zm76.562 61.25H6.125V38.281h71.969v39.813a1.531 1.531 0 001.531 1.531h6.125a6.125 6.125 0 110 12.25zm6.125-12.954a9.156 9.156 0 00-6.125-2.359h-4.594V30.626h4.594a6.125 6.125 0 016.125 6.125v42.17z" fill="url(#paint5_linear)"/><path d="M57.774 61.189c.134.042.273.063.413.061a1.531 1.531 0 001.532-1.531v-6.125a1.532 1.532 0 00-1.118-1.47l-6.538-1.868v-5.85a1.531 1.531 0 00-1.532-1.531h-7.656a1.531 1.531 0 00-1.531 1.531v2.787L37.164 46a1.516 1.516 0 00-.827 0l-21.438 6.125a1.53 1.53 0 00-1.118 1.47v6.125a1.554 1.554 0 00.613 1.225 1.485 1.485 0 001.332.245l1.118-.322v17.227H13.78v3.062h45.94v-3.062h-3.063V60.867l1.118.322zM44.406 45.937H49v3.446l-4.594-1.317v-2.129zm-4.593 32.157h-6.126V73.5a3.063 3.063 0 016.126 0v4.594zm13.78 0H42.876V73.5a6.125 6.125 0 10-12.25 0v4.594h-10.72v-18.1l16.844-4.808 16.844 4.808v18.1zm-16.43-25.97a1.425 1.425 0 00-.826 0l-19.493 5.558v-2.94l19.906-5.68 19.906 5.68v2.94l-19.493-5.558z" fill="url(#paint6_linear)"/><path d="M62.781 41.344h3.063V87.28H62.78V41.344z" fill="url(#paint7_linear)"/><path d="M67.375 44.406h4.594v3.063h-4.594v-3.063z" fill="url(#paint8_linear)"/><path d="M67.375 52.063H73.5v3.062h-6.125v-3.063z" fill="url(#paint9_linear)"/><path d="M67.375 59.719h3.063v3.062h-3.063V59.72z" fill="url(#paint10_linear)"/><path d="M67.375 67.375h9.188v3.063h-9.188v-3.063z" fill="url(#paint11_linear)"/><path d="M67.375 75.031h3.063v3.063h-3.063V75.03z" fill="url(#paint12_linear)"/><path d="M16.844 22.969h3.062v3.062h-3.062V22.97z" fill="url(#paint13_linear)"/><path d="M21.438 22.969H24.5v3.062h-3.063V22.97z" fill="url(#paint14_linear)"/><path d="M42.875 22.969h3.063v3.062h-3.063V22.97z" fill="url(#paint15_linear)"/><path d="M47.469 22.969h3.062v3.062H47.47V22.97z" fill="url(#paint16_linear)"/><defs><linearGradient id="paint0_linear" x1="36.75" y1="84.219" x2="36.75" y2="87.281" gradientUnits="userSpaceOnUse"><stop stop-color="#F2C94C"/><stop offset="1" stop-color="#F29C4C"/></linearGradient><linearGradient id="paint1_linear" x1="26.031" y1="61.25" x2="26.031" y2="64.313" gradientUnits="userSpaceOnUse"><stop stop-color="#F2C94C"/><stop offset="1" stop-color="#F29C4C"/></linearGradient><linearGradient id="paint2_linear" x1="32.156" y1="61.25" x2="32.156" y2="64.313" gradientUnits="userSpaceOnUse"><stop stop-color="#F2C94C"/><stop offset="1" stop-color="#F29C4C"/></linearGradient><linearGradient id="paint3_linear" x1="41.344" y1="61.25" x2="41.344" y2="64.313" gradientUnits="userSpaceOnUse"><stop stop-color="#F2C94C"/><stop offset="1" stop-color="#F29C4C"/></linearGradient><linearGradient id="paint4_linear" x1="47.469" y1="61.25" x2="47.469" y2="64.313" gradientUnits="userSpaceOnUse"><stop stop-color="#F2C94C"/><stop offset="1" stop-color="#F29C4C"/></linearGradient><linearGradient id="paint5_linear" x1="49" y1="3.063" x2="49" y2="94.938" gradientUnits="userSpaceOnUse"><stop stop-color="#F2C94C"/><stop offset="1" stop-color="#F29C4C"/></linearGradient><linearGradient id="paint6_linear" x1="36.75" y1="42.875" x2="36.75" y2="81.156" gradientUnits="userSpaceOnUse"><stop stop-color="#F2C94C"/><stop offset="1" stop-color="#F29C4C"/></linearGradient><linearGradient id="paint7_linear" x1="64.313" y1="41.344" x2="64.313" y2="87.281" gradientUnits="userSpaceOnUse"><stop stop-color="#F2C94C"/><stop offset="1" stop-color="#F29C4C"/></linearGradient><linearGradient id="paint8_linear" x1="69.672" y1="44.406" x2="69.672" y2="47.469" gradientUnits="userSpaceOnUse"><stop stop-color="#F2C94C"/><stop offset="1" stop-color="#F29C4C"/></linearGradient><linearGradient id="paint9_linear" x1="70.438" y1="52.063" x2="70.438" y2="55.125" gradientUnits="userSpaceOnUse"><stop stop-color="#F2C94C"/><stop offset="1" stop-color="#F29C4C"/></linearGradient><linearGradient id="paint10_linear" x1="68.906" y1="59.719" x2="68.906" y2="62.781" gradientUnits="userSpaceOnUse"><stop stop-color="#F2C94C"/><stop offset="1" stop-color="#F29C4C"/></linearGradient><linearGradient id="paint11_linear" x1="71.969" y1="67.375" x2="71.969" y2="70.438" gradientUnits="userSpaceOnUse"><stop stop-color="#F2C94C"/><stop offset="1" stop-color="#F29C4C"/></linearGradient><linearGradient id="paint12_linear" x1="68.906" y1="75.031" x2="68.906" y2="78.094" gradientUnits="userSpaceOnUse"><stop stop-color="#F2C94C"/><stop offset="1" stop-color="#F29C4C"/></linearGradient><linearGradient id="paint13_linear" x1="18.375" y1="22.969" x2="18.375" y2="26.031" gradientUnits="userSpaceOnUse"><stop stop-color="#F2C94C"/><stop offset="1" stop-color="#F29C4C"/></linearGradient><linearGradient id="paint14_linear" x1="22.969" y1="22.969" x2="22.969" y2="26.031" gradientUnits="userSpaceOnUse"><stop stop-color="#F2C94C"/><stop offset="1" stop-color="#F29C4C"/></linearGradient><linearGradient id="paint15_linear" x1="44.406" y1="22.969" x2="44.406" y2="26.031" gradientUnits="userSpaceOnUse"><stop stop-color="#F2C94C"/><stop offset="1" stop-color="#F29C4C"/></linearGradient><linearGradient id="paint16_linear" x1="49" y1="22.969" x2="49" y2="26.031" gradientUnits="userSpaceOnUse"><stop stop-color="#F2C94C"/><stop offset="1" stop-color="#F29C4C"/></linearGradient></defs></svg>