<svg width="98" height="98" fill="none" xmlns="http://www.w3.org/2000/svg"><g clip-path="url(#clip0)"><path d="M97.793 41.296a9.799 9.799 0 00-7.664-7.622c-.102-.019-.201-.025-.303-.04v-8.312a8.175 8.175 0 00-8.166-8.166H68.595a8.136 8.136 0 00-6.533 3.317 8.137 8.137 0 00-6.533-3.317H42.463a8.137 8.137 0 00-6.532 3.317 8.136 8.136 0 00-6.533-3.317H16.332a8.175 8.175 0 00-8.166 8.166v8.318A9.765 9.765 0 000 43.288a9.858 9.858 0 003.266 7.301v26.996a3.267 3.267 0 003.267 3.266h6.533a3.267 3.267 0 003.266-3.266v-3.266H81.66v3.266a3.267 3.267 0 003.267 3.266h6.533a3.267 3.267 0 003.266-3.266V50.591a9.765 9.765 0 003.067-9.295zM68.595 20.423H81.66a4.9 4.9 0 014.9 4.9v8.317a9.492 9.492 0 00-5.652 3.115H68.595a4.9 4.9 0 01-4.9-4.9v-6.533a4.9 4.9 0 014.9-4.9zM81.66 50.589v.865H63.695v-13.11a8.08 8.08 0 004.9 1.677h10.361A9.789 9.789 0 0081.66 50.59zM19.4 41.296c-.09-.433-.21-.86-.36-1.275h10.359a8.08 8.08 0 004.9-1.676v13.109H16.331v-.863a9.765 9.765 0 003.067-9.295zm41.03 10.158H37.564v-13.11a8.081 8.081 0 004.9 1.677h13.065a8.081 8.081 0 004.9-1.676v13.109zM16.332 54.72H81.66v9.8H16.332v-9.8zm26.131-34.297H55.53a4.9 4.9 0 014.9 4.9v6.532a4.9 4.9 0 01-4.9 4.9H42.463a4.9 4.9 0 01-4.9-4.9v-6.533a4.9 4.9 0 014.9-4.9zm-26.131 0h13.066a4.9 4.9 0 014.9 4.9v6.532a4.9 4.9 0 01-4.9 4.9h-12.32a9.697 9.697 0 00-5.343-3.08c-.102-.024-.201-.024-.303-.041v-8.312a4.9 4.9 0 014.9-4.9zm-3.266 57.162H6.533V49.82c0-.514-.242-.998-.653-1.307a6.53 6.53 0 01-.237-10.268 6.43 6.43 0 014.143-1.49c.446 0 .891.043 1.33.128a6.533 6.533 0 012.603 11.63 1.635 1.635 0 00-.653 1.307v27.765zm3.266-6.533v-3.266H81.66v3.266H16.332zm75.78-22.539c-.41.309-.652.793-.652 1.307v27.765h-6.533V49.82c0-.514-.242-.998-.653-1.307a6.53 6.53 0 01-.237-10.268 6.43 6.43 0 014.143-1.49c.446 0 .891.043 1.33.128a6.534 6.534 0 012.603 11.63z" fill="url(#paint0_linear)"/><path d="M47.363 23.689h3.266v3.266h-3.266V23.69z" fill="url(#paint1_linear)"/><path d="M47.363 30.222h3.266v3.266h-3.266v-3.266z" fill="url(#paint2_linear)"/><path d="M44.097 26.955h3.266v3.267h-3.266v-3.267z" fill="url(#paint3_linear)"/><path d="M50.63 26.955h3.266v3.267h-3.267v-3.267z" fill="url(#paint4_linear)"/><path d="M21.232 23.689h3.266v3.266h-3.266V23.69z" fill="url(#paint5_linear)"/><path d="M21.232 30.222h3.266v3.266h-3.266v-3.266z" fill="url(#paint6_linear)"/><path d="M17.965 26.955h3.267v3.267h-3.267v-3.267z" fill="url(#paint7_linear)"/><path d="M24.498 26.955h3.267v3.267h-3.267v-3.267z" fill="url(#paint8_linear)"/><path d="M73.494 23.689h3.267v3.266h-3.267V23.69z" fill="url(#paint9_linear)"/><path d="M73.494 30.222h3.267v3.266h-3.267v-3.266z" fill="url(#paint10_linear)"/><path d="M70.228 26.955h3.266v3.267h-3.266v-3.267z" fill="url(#paint11_linear)"/><path d="M76.76 26.955h3.267v3.267h-3.266v-3.267z" fill="url(#paint12_linear)"/></g><defs><linearGradient id="paint0_linear" x1="49" y1="17.156" x2="49" y2="80.851" gradientUnits="userSpaceOnUse"><stop stop-color="#F2C94C"/><stop offset="1" stop-color="#F29C4C"/></linearGradient><linearGradient id="paint1_linear" x1="48.996" y1="23.689" x2="48.996" y2="26.955" gradientUnits="userSpaceOnUse"><stop stop-color="#F2C94C"/><stop offset="1" stop-color="#F29C4C"/></linearGradient><linearGradient id="paint2_linear" x1="48.996" y1="30.222" x2="48.996" y2="33.488" gradientUnits="userSpaceOnUse"><stop stop-color="#F2C94C"/><stop offset="1" stop-color="#F29C4C"/></linearGradient><linearGradient id="paint3_linear" x1="45.73" y1="26.955" x2="45.73" y2="30.222" gradientUnits="userSpaceOnUse"><stop stop-color="#F2C94C"/><stop offset="1" stop-color="#F29C4C"/></linearGradient><linearGradient id="paint4_linear" x1="52.263" y1="26.955" x2="52.263" y2="30.222" gradientUnits="userSpaceOnUse"><stop stop-color="#F2C94C"/><stop offset="1" stop-color="#F29C4C"/></linearGradient><linearGradient id="paint5_linear" x1="22.865" y1="23.689" x2="22.865" y2="26.955" gradientUnits="userSpaceOnUse"><stop stop-color="#F2C94C"/><stop offset="1" stop-color="#F29C4C"/></linearGradient><linearGradient id="paint6_linear" x1="22.865" y1="30.222" x2="22.865" y2="33.488" gradientUnits="userSpaceOnUse"><stop stop-color="#F2C94C"/><stop offset="1" stop-color="#F29C4C"/></linearGradient><linearGradient id="paint7_linear" x1="19.599" y1="26.955" x2="19.599" y2="30.222" gradientUnits="userSpaceOnUse"><stop stop-color="#F2C94C"/><stop offset="1" stop-color="#F29C4C"/></linearGradient><linearGradient id="paint8_linear" x1="26.131" y1="26.955" x2="26.131" y2="30.222" gradientUnits="userSpaceOnUse"><stop stop-color="#F2C94C"/><stop offset="1" stop-color="#F29C4C"/></linearGradient><linearGradient id="paint9_linear" x1="75.127" y1="23.689" x2="75.127" y2="26.955" gradientUnits="userSpaceOnUse"><stop stop-color="#F2C94C"/><stop offset="1" stop-color="#F29C4C"/></linearGradient><linearGradient id="paint10_linear" x1="75.127" y1="30.222" x2="75.127" y2="33.488" gradientUnits="userSpaceOnUse"><stop stop-color="#F2C94C"/><stop offset="1" stop-color="#F29C4C"/></linearGradient><linearGradient id="paint11_linear" x1="71.861" y1="26.955" x2="71.861" y2="30.222" gradientUnits="userSpaceOnUse"><stop stop-color="#F2C94C"/><stop offset="1" stop-color="#F29C4C"/></linearGradient><linearGradient id="paint12_linear" x1="78.394" y1="26.955" x2="78.394" y2="30.222" gradientUnits="userSpaceOnUse"><stop stop-color="#F2C94C"/><stop offset="1" stop-color="#F29C4C"/></linearGradient><clipPath id="clip0"><path fill="#fff" d="M0 0h98v98H0z"/></clipPath></defs></svg>