<svg width="213" height="213" fill="none" xmlns="http://www.w3.org/2000/svg"><g clip-path="url(#clip0)"><path d="M186.34 28.376c-23.464 0-46.21-8.085-64.411-22.892-8.987-7.311-21.871-7.311-30.858 0a102.062 102.062 0 01-64.41 22.892c-7.327 0-13.267 5.939-13.267 13.266v35.555a151.583 151.583 0 0055.92 117.584l10.92 8.884c15.3 12.447 37.234 12.447 52.533 0l10.92-8.884a151.587 151.587 0 0055.92-117.586V41.64c-.001-7.327-5.94-13.263-13.267-13.263z" fill="#F2994A"/><path d="M106.5 201.295a11.19 11.19 0 01-7.044-2.504L78.57 181.799c-15.255-12.412-27.784-28.36-36.23-46.12-8.447-17.761-12.911-37.544-12.911-57.21V50.253c0-3.413 2.79-6.316 6.2-6.496 23.244-1.229 45.717-9.849 63.827-24.583a11.192 11.192 0 017.044-2.504c2.558 0 5.059.889 7.044 2.503 18.111 14.735 40.584 23.355 63.829 24.584 3.408.18 6.198 3.082 6.198 6.495v28.215c0 19.667-4.464 39.45-12.911 57.211-8.446 17.761-20.974 33.709-36.23 46.121l-20.886 16.992a11.193 11.193 0 01-7.044 2.504z" fill="url(#paint0_linear)"/><path d="M106.5 193.505c-2.342 0-4.633-.814-6.449-2.292l-19.124-15.558c-13.968-11.365-25.44-25.967-33.173-42.229-7.733-16.261-11.821-34.375-11.821-52.382V55.209c0-3.125 2.555-5.782 5.676-5.948 21.283-1.125 41.86-9.018 58.442-22.509a10.25 10.25 0 016.449-2.292c2.342 0 4.632.814 6.449 2.292 16.583 13.491 37.16 21.384 58.443 22.51 3.12.164 5.675 2.821 5.675 5.946v25.834c0 18.007-4.088 36.121-11.821 52.383-7.734 16.262-19.205 30.865-33.173 42.229l-19.124 15.558a10.244 10.244 0 01-6.449 2.293z" fill="#F2F2F2"/><path d="M199.606 41.639c0-7.327-5.939-13.264-13.266-13.264-23.463 0-46.21-8.084-64.411-22.891A24.405 24.405 0 00106.5 0v213a41.542 41.542 0 0026.266-9.335l10.92-8.884a151.587 151.587 0 0055.92-117.586V41.639z" fill="url(#paint1_linear)"/><path d="M176.007 61.983c-4.172-4.172-10.937-3.317-15.11.855l-52.059 52.059c-.508.508-1.942 1.469-2.338 1.469-.396 0-.975-.106-1.483-.614L85.062 95.797c-4.172-4.172-10.51-4.172-14.683 0-4.172 4.173-4.6 10.082-.427 14.255l79.652 79.652a151.59 151.59 0 0049.777-104.267l-23.374-23.454z" fill="url(#paint2_linear)"/><path d="M143.686 194.781a151.587 151.587 0 0051.003-79.297L146.54 67.336c-10.048-10.613-24.27-16.38-40.04-16.38-30.045 0-54.278 24.233-54.277 54.278 0 15.77 5.767 29.991 16.38 40.04l57.869 57.868a4.877 4.877 0 006.526.334l10.688-8.695z" fill="url(#paint3_linear)"/><path d="M106.5 160.365c30.449 0 55.132-24.683 55.132-55.132 0-30.449-24.683-55.132-55.132-55.132-30.449 0-55.132 24.683-55.132 55.132 0 30.449 24.683 55.132 55.132 55.132z" fill="#F2C94C"/><path d="M151.021 72.714l-42.183 42.183c-.508.508-1.942 1.469-2.338 1.469-.396 0-.975-.106-1.483-.614L85.062 95.797c-4.172-4.172-10.51-4.172-14.683 0-4.172 4.173-4.6 10.082-.427 14.255l48.919 48.919c24.492-5.615 42.761-27.543 42.761-53.738a54.882 54.882 0 00-10.611-32.519z" fill="url(#paint4_linear)"/><path d="M106.5 136.88a23.314 23.314 0 01-16.593-6.873l-19.955-19.954c-4.173-4.173-4.173-10.938 0-15.111 4.172-4.172 10.937-4.172 15.11 0l19.955 19.955a2.06 2.06 0 001.483.615c.396 0 .975-.107 1.482-.615l52.915-52.914c4.172-4.172 10.937-4.172 15.11 0 4.173 4.173 4.173 10.938 0 15.11l-52.914 52.914a23.313 23.313 0 01-16.593 6.873z" fill="#219653"/></g><defs><linearGradient id="paint0_linear" x1="106.5" y1="16.67" x2="106.5" y2="201.295" gradientUnits="userSpaceOnUse"><stop stop-color="#F2C94C"/><stop offset="1" stop-color="#F29C4C"/></linearGradient><linearGradient id="paint1_linear" x1="125.851" y1="110.088" x2="-2.363" y2="48.545" gradientUnits="userSpaceOnUse"><stop stop-color="#B5DBFF" stop-opacity="0"/><stop offset=".173" stop-color="#8FC5E9" stop-opacity=".173"/><stop offset=".454" stop-color="#56A4C8" stop-opacity=".454"/><stop offset=".696" stop-color="#2D8DB1" stop-opacity=".696"/><stop offset=".885" stop-color="#147EA2" stop-opacity=".885"/><stop offset="1" stop-color="#0B799D"/></linearGradient><linearGradient id="paint2_linear" x1="133.204" y1="59.249" x2="208.5" y2="174" gradientUnits="userSpaceOnUse"><stop stop-color="#F2C94C"/><stop offset="1" stop-color="#F29C4C" stop-opacity="0"/></linearGradient><linearGradient id="paint3_linear" x1="89" y1="98" x2="195" y2="197" gradientUnits="userSpaceOnUse"><stop stop-color="#F2C94C"/><stop offset="1" stop-color="#F29C4C" stop-opacity="0"/></linearGradient><linearGradient id="paint4_linear" x1="114.33" y1="72.714" x2="114.33" y2="158.971" gradientUnits="userSpaceOnUse"><stop stop-color="#F2C94C"/><stop offset="1" stop-color="#F29C4C"/></linearGradient><clipPath id="clip0"><path fill="#fff" d="M0 0h213v213H0z"/></clipPath></defs></svg>