<svg width="98" height="98" fill="none" xmlns="http://www.w3.org/2000/svg"><path d="M49 38.281H13.781a1.531 1.531 0 00-1.531 1.532V49a1.531 1.531 0 001.531 1.531H49A1.532 1.532 0 0050.531 49v-9.188A1.532 1.532 0 0049 38.282zm-1.531 9.188H15.312v-6.125H47.47v6.125z" fill="url(#paint0_linear)"/><path d="M21.438 53.594H13.78a1.531 1.531 0 00-1.531 1.531v7.656a1.531 1.531 0 001.531 1.532h7.656a1.531 1.531 0 001.532-1.532v-7.656a1.532 1.532 0 00-1.532-1.531zm-1.532 7.656h-4.593v-4.594h4.593v4.594z" fill="url(#paint1_linear)"/><path d="M35.219 53.594h-7.657a1.532 1.532 0 00-1.53 1.531v7.656a1.532 1.532 0 001.53 1.532h7.657a1.531 1.531 0 001.531-1.532v-7.656a1.531 1.531 0 00-1.531-1.531zm-1.532 7.656h-4.593v-4.594h4.593v4.594z" fill="url(#paint2_linear)"/><path d="M21.438 65.844H13.78a1.531 1.531 0 00-1.531 1.531v7.656a1.531 1.531 0 001.531 1.531h7.656a1.531 1.531 0 001.532-1.53v-7.657a1.532 1.532 0 00-1.532-1.531zM19.905 73.5h-4.593v-4.594h4.593V73.5z" fill="url(#paint3_linear)"/><path d="M35.219 65.844h-7.657a1.532 1.532 0 00-1.53 1.531v7.656a1.532 1.532 0 001.53 1.531h7.657a1.531 1.531 0 001.531-1.53v-7.657a1.531 1.531 0 00-1.531-1.531zM33.687 73.5h-4.593v-4.594h4.593V73.5z" fill="url(#paint4_linear)"/><path d="M21.438 78.094H13.78a1.531 1.531 0 00-1.531 1.531v7.656a1.531 1.531 0 001.531 1.531h7.656a1.531 1.531 0 001.532-1.53v-7.657a1.532 1.532 0 00-1.532-1.531zm-1.532 7.656h-4.593v-4.594h4.593v4.594z" fill="url(#paint5_linear)"/><path d="M35.219 78.094h-7.657a1.532 1.532 0 00-1.53 1.531v7.656a1.532 1.532 0 001.53 1.531h7.657a1.531 1.531 0 001.531-1.53v-7.657a1.531 1.531 0 00-1.531-1.531zm-1.532 7.656h-4.593v-4.594h4.593v4.594z" fill="url(#paint6_linear)"/><path d="M49 53.594h-7.656a1.531 1.531 0 00-1.532 1.531v7.656a1.531 1.531 0 001.532 1.532H49a1.531 1.531 0 001.531-1.532v-7.656A1.532 1.532 0 0049 53.594zm-1.531 7.656h-4.594v-4.594h4.594v4.594z" fill="url(#paint7_linear)"/><path d="M49 65.844h-7.656a1.531 1.531 0 00-1.532 1.531v19.906a1.531 1.531 0 001.532 1.531H49a1.531 1.531 0 001.531-1.53V67.374A1.532 1.532 0 0049 65.844zM47.469 85.75h-4.594V68.906h4.594V85.75z" fill="url(#paint8_linear)"/><path d="M21.438 9.188h6.125v3.062h-6.125V9.187z" fill="url(#paint9_linear)"/><path d="M32.156 9.188h12.25v3.062h-12.25V9.187z" fill="url(#paint10_linear)"/><path d="M21.438 15.313h10.718v3.062H21.438v-3.063z" fill="url(#paint11_linear)"/><path d="M36.75 15.313h9.188v3.062H36.75v-3.063z" fill="url(#paint12_linear)"/><path d="M74.266 55.125h1.53a.766.766 0 01.766.766h3.063a3.828 3.828 0 00-3.063-3.75v-1.61H73.5v1.61a3.828 3.828 0 00.766 7.578h1.53a.766.766 0 110 1.531h-1.53a.766.766 0 01-.766-.766h-3.063a3.828 3.828 0 003.063 3.75v1.61h3.063v-1.61a3.828 3.828 0 00-.766-7.578h-1.531a.766.766 0 110-1.531z" fill="url(#paint13_linear)"/><path d="M90.344 82.688a1.531 1.531 0 001.531-1.532v-6.125a1.531 1.531 0 00-1.531-1.531H87.28v-4.594a1.531 1.531 0 00-1.531-1.531H83.1a12.211 12.211 0 00-.412-18.742V18.375a1.581 1.581 0 00-.445-1.087L68.463 3.507a1.582 1.582 0 00-1.088-.445H16.844a1.531 1.531 0 00-1.532 1.532v29.093H12.25a4.607 4.607 0 00-4.594 4.594v52.063a4.607 4.607 0 004.594 4.594h38.281a4.607 4.607 0 004.594-4.594v-1.531h12.25v4.593a1.531 1.531 0 001.531 1.531h21.438a1.531 1.531 0 001.531-1.53V87.28a1.531 1.531 0 00-1.531-1.531h-1.531v-3.063h1.53zm-6.125-12.25V73.5H65.844v-3.063h18.375zm0-12.25a9.188 9.188 0 11-18.376 0 9.188 9.188 0 0118.376 0zM68.906 8.283l8.56 8.56h-8.56v-8.56zm-16.844 82.06a1.531 1.531 0 01-1.53 1.531H12.25a1.531 1.531 0 01-1.531-1.531V38.28a1.531 1.531 0 011.531-1.531h38.281a1.531 1.531 0 011.532 1.531v52.063zm13.782-10.719a1.531 1.531 0 00-1.531 1.531v4.594h-9.188V38.281a4.607 4.607 0 00-4.594-4.593H18.375V6.125h47.469v12.25a1.532 1.532 0 001.531 1.531h12.25v26.935a12.097 12.097 0 00-4.594-.904 12.23 12.23 0 00-8.07 21.438h-2.648a1.531 1.531 0 00-1.532 1.531v6.125a1.532 1.532 0 001.532 1.531h3.062v3.063h-1.531zm1.531 6.125v-3.063H85.75v3.063H67.375zm21.438 6.125H70.436v-3.063h18.376v3.063zm-18.376-12.25v-3.063h18.376v3.063H70.436z" fill="url(#paint14_linear)"/><defs><linearGradient id="paint0_linear" x1="31.391" y1="38.281" x2="31.391" y2="50.531" gradientUnits="userSpaceOnUse"><stop stop-color="#F2C94C"/><stop offset="1" stop-color="#F29C4C"/></linearGradient><linearGradient id="paint1_linear" x1="17.609" y1="53.594" x2="17.609" y2="64.313" gradientUnits="userSpaceOnUse"><stop stop-color="#F2C94C"/><stop offset="1" stop-color="#F29C4C"/></linearGradient><linearGradient id="paint2_linear" x1="31.391" y1="53.594" x2="31.391" y2="64.313" gradientUnits="userSpaceOnUse"><stop stop-color="#F2C94C"/><stop offset="1" stop-color="#F29C4C"/></linearGradient><linearGradient id="paint3_linear" x1="17.609" y1="65.844" x2="17.609" y2="76.563" gradientUnits="userSpaceOnUse"><stop stop-color="#F2C94C"/><stop offset="1" stop-color="#F29C4C"/></linearGradient><linearGradient id="paint4_linear" x1="31.391" y1="65.844" x2="31.391" y2="76.563" gradientUnits="userSpaceOnUse"><stop stop-color="#F2C94C"/><stop offset="1" stop-color="#F29C4C"/></linearGradient><linearGradient id="paint5_linear" x1="17.609" y1="78.094" x2="17.609" y2="88.813" gradientUnits="userSpaceOnUse"><stop stop-color="#F2C94C"/><stop offset="1" stop-color="#F29C4C"/></linearGradient><linearGradient id="paint6_linear" x1="31.391" y1="78.094" x2="31.391" y2="88.813" gradientUnits="userSpaceOnUse"><stop stop-color="#F2C94C"/><stop offset="1" stop-color="#F29C4C"/></linearGradient><linearGradient id="paint7_linear" x1="45.172" y1="53.594" x2="45.172" y2="64.313" gradientUnits="userSpaceOnUse"><stop stop-color="#F2C94C"/><stop offset="1" stop-color="#F29C4C"/></linearGradient><linearGradient id="paint8_linear" x1="45.172" y1="65.844" x2="45.172" y2="88.813" gradientUnits="userSpaceOnUse"><stop stop-color="#F2C94C"/><stop offset="1" stop-color="#F29C4C"/></linearGradient><linearGradient id="paint9_linear" x1="24.5" y1="9.188" x2="24.5" y2="12.25" gradientUnits="userSpaceOnUse"><stop stop-color="#F2C94C"/><stop offset="1" stop-color="#F29C4C"/></linearGradient><linearGradient id="paint10_linear" x1="38.281" y1="9.188" x2="38.281" y2="12.25" gradientUnits="userSpaceOnUse"><stop stop-color="#F2C94C"/><stop offset="1" stop-color="#F29C4C"/></linearGradient><linearGradient id="paint11_linear" x1="26.797" y1="15.313" x2="26.797" y2="18.375" gradientUnits="userSpaceOnUse"><stop stop-color="#F2C94C"/><stop offset="1" stop-color="#F29C4C"/></linearGradient><linearGradient id="paint12_linear" x1="41.344" y1="15.313" x2="41.344" y2="18.375" gradientUnits="userSpaceOnUse"><stop stop-color="#F2C94C"/><stop offset="1" stop-color="#F29C4C"/></linearGradient><linearGradient id="paint13_linear" x1="75.031" y1="50.531" x2="75.031" y2="65.844" gradientUnits="userSpaceOnUse"><stop stop-color="#F2C94C"/><stop offset="1" stop-color="#F29C4C"/></linearGradient><linearGradient id="paint14_linear" x1="49.766" y1="3.063" x2="49.766" y2="94.938" gradientUnits="userSpaceOnUse"><stop stop-color="#F2C94C"/><stop offset="1" stop-color="#F29C4C"/></linearGradient></defs></svg>