<svg width="98" height="98" fill="none" xmlns="http://www.w3.org/2000/svg"><path d="M93.774 38.327L82.519 35.51l-2.91-20.412a1.532 1.532 0 00-1.515-1.317H59.719V12.25a1.532 1.532 0 00-1.532-1.531H6.126a1.531 1.531 0 00-1.531 1.531v47.469a1.532 1.532 0 00-1.532 1.531v6.125a1.531 1.531 0 001.532 1.531h1.531v7.656a1.531 1.531 0 001.531 1.532h3.185a10.705 10.705 0 0021.193 0h30.87a10.705 10.705 0 0021.192 0h4.716a1.532 1.532 0 001.532-1.531v-7.657h3.062a1.531 1.531 0 001.531-1.531V39.812a1.531 1.531 0 00-1.163-1.485zM7.656 13.781h49V49h-49V13.781zm0 38.282h49v7.656h-49v-7.657zm3.185 22.968H9.188v-6.125h4.762a10.67 10.67 0 00-3.109 6.125zm10.597 9.188a7.656 7.656 0 110-15.313 7.656 7.656 0 010 15.313zm41.466-9.188h-30.87a10.67 10.67 0 00-3.109-6.125h37.087a10.67 10.67 0 00-3.108 6.125zM73.5 84.22a7.656 7.656 0 110-15.313 7.656 7.656 0 010 15.313zm13.781-9.188h-3.185a10.67 10.67 0 00-3.108-6.125h6.293v6.125zm4.594-9.187H6.125V62.78h85.75v3.063zm0-6.125H59.719V16.844h17.043l2.878 20.12a1.532 1.532 0 001.149 1.271l11.086 2.772v18.712z" fill="url(#paint0_linear)"/><path d="M52.063 18.375H18.374a1.531 1.531 0 00-1.531 1.531v21.438a1.531 1.531 0 001.531 1.531h33.688a1.531 1.531 0 001.53-1.531V19.906a1.531 1.531 0 00-1.53-1.531zM50.53 39.813H19.906V25.54l14.578 7.963a1.561 1.561 0 001.47 0L50.53 25.54v14.271zm0-17.748l-15.31 8.346-15.313-8.346v-.628h30.625v.628z" fill="url(#paint1_linear)"/><path d="M62.781 58.188h13.782a1.531 1.531 0 001.53-1.532V36.75a1.5 1.5 0 00-.025-.274l-3.063-16.844a1.531 1.531 0 00-1.505-1.257H62.781a1.531 1.531 0 00-1.531 1.531v36.75a1.531 1.531 0 001.531 1.532zm1.532-3.063V38.281H75.03v16.844H64.312zm7.908-33.688l2.504 13.782H64.313V21.437h7.908z" fill="url(#paint2_linear)"/><path d="M65.844 44.406h3.062v3.063h-3.062v-3.063z" fill="url(#paint3_linear)"/><path d="M21.438 71.969a4.594 4.594 0 100 9.187 4.594 4.594 0 000-9.187zm0 6.125a1.531 1.531 0 110-3.063 1.531 1.531 0 010 3.063z" fill="url(#paint4_linear)"/><path d="M73.5 71.969a4.593 4.593 0 100 9.186 4.593 4.593 0 000-9.186zm0 6.125a1.531 1.531 0 110-3.063 1.531 1.531 0 010 3.063z" fill="url(#paint5_linear)"/><path d="M10.719 19.906h3.062v3.063H10.72v-3.063z" fill="url(#paint6_linear)"/><path d="M10.719 26.031h3.062v3.063H10.72V26.03z" fill="url(#paint7_linear)"/><path d="M10.719 32.156h3.062v3.063H10.72v-3.063z" fill="url(#paint8_linear)"/><path d="M10.719 38.281h3.062v3.063H10.72V38.28z" fill="url(#paint9_linear)"/><defs><linearGradient id="paint0_linear" x1="49" y1="10.719" x2="49" y2="87.277" gradientUnits="userSpaceOnUse"><stop stop-color="#F2C94C"/><stop offset="1" stop-color="#F29C4C"/></linearGradient><linearGradient id="paint1_linear" x1="35.219" y1="18.375" x2="35.219" y2="42.875" gradientUnits="userSpaceOnUse"><stop stop-color="#F2C94C"/><stop offset="1" stop-color="#F29C4C"/></linearGradient><linearGradient id="paint2_linear" x1="69.672" y1="18.375" x2="69.672" y2="58.188" gradientUnits="userSpaceOnUse"><stop stop-color="#F2C94C"/><stop offset="1" stop-color="#F29C4C"/></linearGradient><linearGradient id="paint3_linear" x1="67.375" y1="44.406" x2="67.375" y2="47.469" gradientUnits="userSpaceOnUse"><stop stop-color="#F2C94C"/><stop offset="1" stop-color="#F29C4C"/></linearGradient><linearGradient id="paint4_linear" x1="21.438" y1="71.969" x2="21.438" y2="81.156" gradientUnits="userSpaceOnUse"><stop stop-color="#F2C94C"/><stop offset="1" stop-color="#F29C4C"/></linearGradient><linearGradient id="paint5_linear" x1="73.5" y1="71.969" x2="73.5" y2="81.156" gradientUnits="userSpaceOnUse"><stop stop-color="#F2C94C"/><stop offset="1" stop-color="#F29C4C"/></linearGradient><linearGradient id="paint6_linear" x1="12.25" y1="19.906" x2="12.25" y2="22.969" gradientUnits="userSpaceOnUse"><stop stop-color="#F2C94C"/><stop offset="1" stop-color="#F29C4C"/></linearGradient><linearGradient id="paint7_linear" x1="12.25" y1="26.031" x2="12.25" y2="29.094" gradientUnits="userSpaceOnUse"><stop stop-color="#F2C94C"/><stop offset="1" stop-color="#F29C4C"/></linearGradient><linearGradient id="paint8_linear" x1="12.25" y1="32.156" x2="12.25" y2="35.219" gradientUnits="userSpaceOnUse"><stop stop-color="#F2C94C"/><stop offset="1" stop-color="#F29C4C"/></linearGradient><linearGradient id="paint9_linear" x1="12.25" y1="38.281" x2="12.25" y2="41.344" gradientUnits="userSpaceOnUse"><stop stop-color="#F2C94C"/><stop offset="1" stop-color="#F29C4C"/></linearGradient></defs></svg>