<svg width="98" height="98" fill="none" xmlns="http://www.w3.org/2000/svg"><path d="M98 46.07l-14.662-7.697 14.645-9.5L49 2.933.017 28.873l14.645 9.5L0 46.071l14.662 9.51L0 63.28l49 31.788L98 63.28l-14.662-7.697L98 46.07zM86.671 29.375l-9.719 6.305-8.503-5.264 9.086-5.88 9.136 4.839zm-42.95 10.21l-8.338 5.394-9.496-6.16 8.58-5.222 9.253 5.988zm-3.813-9.3l8.79-5.35 9.026 5.588L49 36.167l-9.092-5.883zM49 43l8.344 5.399L49 53.812l-8.344-5.413 8.344-5.4zm5.28-3.417l8.84-5.72 8.511 5.268-9.014 5.847-8.337-5.395zm17.448-18.122l-8.676 5.613-8.86-5.485 8.272-5.035 9.264 4.907zM49 9.423l7.565 4.006-7.842 4.773-7.516-4.652L49 9.424zm-13.666 7.238l7.894 4.886-8.668 5.276-8.289-5.364 9.063-4.798zM11.328 29.374l9.136-4.839 8.655 5.6-8.572 5.218-9.219-5.98zm.017 17.22l8.836-4.64L49 60.65l28.819-18.696 8.836 4.64L49 71.02 11.345 46.593zm75.31 17.208L49 88.229 11.345 63.802l8.836-4.64L49 77.859l28.819-18.695 8.836 4.639z" fill="url(#paint0_linear)"/><defs><linearGradient id="paint0_linear" x1="49" y1="2.933" x2="49" y2="95.067" gradientUnits="userSpaceOnUse"><stop stop-color="#F2C94C"/><stop offset="1" stop-color="#F29C4C"/></linearGradient></defs></svg>