<svg width="98" height="98" fill="none" xmlns="http://www.w3.org/2000/svg"><path d="M89.41 49.123l-9.785-4.12V35.22a1.531 1.531 0 00-1.531-1.532H75.03V18.376a1.582 1.582 0 00-.444-1.087L60.806 3.507a1.581 1.581 0 00-1.087-.445H9.187a1.531 1.531 0 00-1.53 1.532V87.28a1.531 1.531 0 001.53 1.531h21.438v4.594a1.531 1.531 0 001.531 1.531h55.125a1.531 1.531 0 001.531-1.53V87.28a1.531 1.531 0 00-1.53-1.531H85.75V57.024l2.465 1.041c.19.077.393.119.597.123a1.548 1.548 0 001.532-1.532v-6.125a1.521 1.521 0 00-.934-1.408zM76.563 36.75v6.967l-4.594-1.944V36.75h4.594zM61.25 8.284l8.56 8.56h-8.56v-8.56zM10.719 85.75V6.125h47.468v12.25a1.531 1.531 0 001.532 1.531h12.25v13.782h-1.531a1.531 1.531 0 00-1.532 1.53v5.268l-8.59-3.613a1.474 1.474 0 00-1.194 0l-29.094 12.25a1.521 1.521 0 00-.934 1.408v6.125a1.532 1.532 0 00.689 1.271 1.508 1.508 0 001.44.138l2.465-1.041V85.75h-22.97zm75.031 6.125H33.687v-3.063H85.75v3.063zm-26.031-24.5a9.188 9.188 0 00-9.188 9.188v9.187H36.75V55.737l22.969-9.677 22.968 9.677V85.75h-13.78v-9.188a9.187 9.187 0 00-9.188-9.187zm6.125 9.188v9.187h-12.25v-9.188a6.125 6.125 0 1112.25 0zm21.436-22.22L60.316 42.998a1.517 1.517 0 00-1.194 0L32.156 54.344v-2.802L59.72 39.935l27.56 11.607v2.802z" fill="url(#paint0_linear)"/><path d="M50.531 56.656h-9.187a1.532 1.532 0 00-1.532 1.532v7.656a1.531 1.531 0 001.532 1.531h9.187a1.531 1.531 0 001.532-1.531v-7.656a1.531 1.531 0 00-1.532-1.532zM49 64.313h-6.125v-4.594H49v4.593z" fill="url(#paint1_linear)"/><path d="M68.906 67.375h9.188a1.531 1.531 0 001.531-1.531v-7.656a1.531 1.531 0 00-1.531-1.532h-9.188a1.531 1.531 0 00-1.531 1.532v7.656a1.531 1.531 0 001.531 1.531zm1.531-7.656h6.126v4.593h-6.126V59.72z" fill="url(#paint2_linear)"/><path d="M55.125 78.094h3.063v3.062h-3.063v-3.062z" fill="url(#paint3_linear)"/><path d="M28.328 24.5h-1.531a.766.766 0 01-.766-.766H22.97a3.827 3.827 0 003.062 3.75v1.61h3.063v-1.61a3.828 3.828 0 00-.766-7.578h-1.531a.766.766 0 110-1.531h1.531a.766.766 0 01.766.766h3.062a3.827 3.827 0 00-3.062-3.75v-1.61H26.03v1.61a3.828 3.828 0 00.766 7.578h1.531a.766.766 0 110 1.531z" fill="url(#paint4_linear)"/><path d="M27.563 33.688a12.25 12.25 0 10-12.25-12.25 12.263 12.263 0 0012.25 12.25zm0-21.438a9.187 9.187 0 11-9.188 9.188 9.197 9.197 0 019.188-9.188z" fill="url(#paint5_linear)"/><path d="M15.313 36.75h6.124v3.063h-6.125V36.75z" fill="url(#paint6_linear)"/><path d="M26.031 36.75h9.188v3.063H26.03V36.75z" fill="url(#paint7_linear)"/><path d="M15.313 42.875H26.03v3.063H15.313v-3.063z" fill="url(#paint8_linear)"/><defs><linearGradient id="paint0_linear" x1="49" y1="3.063" x2="49" y2="94.938" gradientUnits="userSpaceOnUse"><stop stop-color="#F2C94C"/><stop offset="1" stop-color="#F29C4C"/></linearGradient><linearGradient id="paint1_linear" x1="45.938" y1="56.656" x2="45.938" y2="67.375" gradientUnits="userSpaceOnUse"><stop stop-color="#F2C94C"/><stop offset="1" stop-color="#F29C4C"/></linearGradient><linearGradient id="paint2_linear" x1="73.5" y1="56.656" x2="73.5" y2="67.375" gradientUnits="userSpaceOnUse"><stop stop-color="#F2C94C"/><stop offset="1" stop-color="#F29C4C"/></linearGradient><linearGradient id="paint3_linear" x1="56.656" y1="78.094" x2="56.656" y2="81.156" gradientUnits="userSpaceOnUse"><stop stop-color="#F2C94C"/><stop offset="1" stop-color="#F29C4C"/></linearGradient><linearGradient id="paint4_linear" x1="27.563" y1="13.781" x2="27.563" y2="29.094" gradientUnits="userSpaceOnUse"><stop stop-color="#F2C94C"/><stop offset="1" stop-color="#F29C4C"/></linearGradient><linearGradient id="paint5_linear" x1="27.563" y1="9.188" x2="27.563" y2="33.688" gradientUnits="userSpaceOnUse"><stop stop-color="#F2C94C"/><stop offset="1" stop-color="#F29C4C"/></linearGradient><linearGradient id="paint6_linear" x1="18.375" y1="36.75" x2="18.375" y2="39.813" gradientUnits="userSpaceOnUse"><stop stop-color="#F2C94C"/><stop offset="1" stop-color="#F29C4C"/></linearGradient><linearGradient id="paint7_linear" x1="30.625" y1="36.75" x2="30.625" y2="39.813" gradientUnits="userSpaceOnUse"><stop stop-color="#F2C94C"/><stop offset="1" stop-color="#F29C4C"/></linearGradient><linearGradient id="paint8_linear" x1="20.672" y1="42.875" x2="20.672" y2="45.938" gradientUnits="userSpaceOnUse"><stop stop-color="#F2C94C"/><stop offset="1" stop-color="#F29C4C"/></linearGradient></defs></svg>