<svg width="45" height="45" fill="none" xmlns="http://www.w3.org/2000/svg"><rect width="45" height="45" rx="10" fill="#fff"/><path d="M40.179 0H4.82A4.821 4.821 0 000 4.821V40.18A4.821 4.821 0 004.821 45H40.18A4.821 4.821 0 0045 40.179V4.82A4.821 4.821 0 0040.179 0zM9.442 38.571a1.507 1.507 0 01-1.468-1.167l-1.507-6.53a1.507 1.507 0 01.875-1.723l7.031-3.013a1.507 1.507 0 011.76.43l3.113 3.806a23.287 23.287 0 0011.128-11.128l-3.806-3.113a1.507 1.507 0 01-.43-1.76l3.013-7.03a1.506 1.506 0 011.723-.875l6.53 1.506a1.506 1.506 0 011.167 1.468c0 16.1-13.052 29.13-29.129 29.13z" fill="url(#paint0_linear)"/><defs><linearGradient id="paint0_linear" x1="22.5" y1="0" x2="22.5" y2="45" gradientUnits="userSpaceOnUse"><stop stop-color="#F2C94C"/><stop offset="1" stop-color="#F29C4C"/></linearGradient></defs></svg>