<svg width="45" height="45" fill="none" xmlns="http://www.w3.org/2000/svg"><rect width="45" height="45" rx="10" fill="#fff"/><path fill-rule="evenodd" clip-rule="evenodd" d="M5.625 0A5.625 5.625 0 000 5.625v33.75A5.625 5.625 0 005.625 45h33.75A5.625 5.625 0 0045 39.375V5.625A5.625 5.625 0 0039.375 0H5.625zm9.433 23.496a1.405 1.405 0 01-1.991 0 1.405 1.405 0 010-1.992l8.437-8.437a1.406 1.406 0 011.992 0l8.437 8.437a1.408 1.408 0 11-1.991 1.992l-6.036-6.039v13.48a1.406 1.406 0 11-2.812 0v-13.48l-6.036 6.039z" fill="#4F4F4F"/></svg>