<svg width="20" height="20" fill="none" xmlns="http://www.w3.org/2000/svg"><path d="M6.433 13.713l1.468-.423 8.836-8.942a.38.38 0 00-.003-.533l-.529-.535a.37.37 0 00-.527-.003l-8.812 8.919-.433 1.517zM17.253 2.22l.529.536a1.9 1.9 0 01.013 2.663L8.69 14.634l-3.137.903a.751.751 0 01-.925-.519.763.763 0 01-.001-.421l.912-3.2 9.081-9.191a1.846 1.846 0 012.633.013v.001zm-9.6.96c.414 0 .749.34.749.758a.752.752 0 01-.749.758H4.66c-.827 0-1.497.678-1.497 1.514v9.088c0 .837.67 1.515 1.497 1.515h8.98c.827 0 1.498-.678 1.498-1.515V12.27c0-.418.335-.757.748-.757s.748.339.748.758v3.028c0 1.674-1.34 3.03-2.994 3.03H4.66c-1.653 0-2.993-1.356-2.993-3.03V6.21c0-1.673 1.34-3.03 2.993-3.03h2.993z" fill="#F2F2F2"/><path d="M7 10.5L5.5 14h3l9-9.5-.5-1-1.5-1-8.5 8z" fill="#F2F2F2"/></svg>