<svg width="195" height="95" fill="none" xmlns="http://www.w3.org/2000/svg"><path d="M.114 85.623c.028-1.098.076-2.187.085-3.285.104-11.804.218-23.607.322-35.41.02-2.455.038-4.9.086-7.354.01-.343.113-.687.218-1.012.038-.105.227-.19.36-.21 2.379-.286 4.758-.573 7.147-.85 1.345-.162 2.691-.382 4.047-.449 1.194-.057 2.398.01 3.592.115 2.512.21 5.024.477 7.526.726 1.848.19 3.697.391 5.554.582.143.02.275.057.455.086-.038.392-.075.764-.132 1.223-2.692-.287-5.375-.564-8.123-.86.417.382.815.697 1.156 1.05 2.076 2.15 3.242 4.775 3.858 7.669.597 2.788.625 5.615.616 8.451-.029 5.014-.02 10.027-.057 15.031-.019 2.722-.265 5.434-1.043 8.06-.824 2.78-2.142 5.253-4.331 7.2-.313.278-.664.526-.977.88 2.02-.106 4.038-.21 6.086-.325.037.43.066.802.104 1.232-.398.038-.768.076-1.147.105-3.09.171-6.19.257-9.27.515-2.976.249-5.924.096-8.89-.086a194.324 194.324 0 00-5.773-.305c-.72-.029-1.384-.01-1.47-.965v-1.814zm11.108-10.648c.598-.057 1.138-.048 1.65-.162.91-.2 1.592-.707 1.763-1.69.132-.717.313-1.443.322-2.159.066-5.567.095-11.135.104-16.702 0-.678-.142-1.356-.294-2.015-.16-.669-.635-1.165-1.298-1.242-.654-.076-1.346.067-2.057.115-.057 7.945-.123 15.843-.19 23.855zm183.106-.717c-.067.869-.114 1.738-.199 2.607-.256 2.788-.73 5.53-2.124 7.993-1.033 1.824-2.322 3.457-4.255 4.421-1.583.783-3.28.965-5.024.898-1.223-.048-2.417-.23-3.545-.735-1.317-.592-2.341-1.528-3.26-2.626-2.579-3.056-3.65-6.695-4.057-10.591-.199-1.881-.351-3.772-.18-5.663.303-3.237 1.118-6.303 2.824-9.1.161-.268.597-.526.332-.908-1.573-2.254-2.114-4.842-2.37-7.497-.293-3.075-.161-6.14.56-9.148.616-2.588 1.867-4.86 3.744-6.733 1.099-1.098 2.502-1.604 4.047-1.766 2.938-.306 5.26.792 7.241 2.941 2.228 2.407 3.365 5.3 3.972 8.452.464 2.406.73 4.85.587 7.305-.142 2.426-.511 4.803-1.791 6.933 2.389 2.95 3.052 6.475 3.403 10.094.028.277.057.563.095.84v2.283zm-9.147-2.598c-.01-1.413-.237-2.779-.806-4.078-.256-.572-.73-.582-1.222-.582-.465.01-.872.134-1.053.64-.881 2.464-.872 4.908.114 7.344.209.515.626.802 1.128.783.588-.02 1.1-.24 1.318-.879.36-1.05.521-2.12.521-3.228zm-.995-18.688c-.067-1.7-.237-3.047-.91-4.24-.161-.277-.569-.468-.901-.564-.085-.029-.398.401-.474.659-.625 2.168-.474 4.297.389 6.38.142.352.36.639.749.6.369-.037.673-.267.749-.687.161-.821.312-1.642.398-2.148zM90.51 35.524c.416-1.356.795-2.597 1.165-3.839.332-1.098.664-2.187.986-3.285.076-.267.208-.391.483-.42 2.389-.258 4.768-.525 7.156-.793 1.839-.2 3.669-.468 5.507-.582 1.043-.067 2.105.048 3.147.153 1.318.133 2.626.363 3.934.525 1.924.248 3.848.477 5.772.706.484.058.976.125 1.46.125.483-.01.55.22.55.64.028 3.323.066 6.656.113 9.979.19 13.494.389 26.987.588 40.48.066 4.633.133 9.264.218 13.896.01.363-.114.458-.455.477-1.952.096-3.905.22-5.867.334-2.303.134-4.597.335-6.9.373-1.858.038-3.725-.105-5.583-.2-2.635-.134-5.27-.297-7.896-.45a262.39 262.39 0 00-1.971-.114V78.517c-.048-.01-.105-.01-.152-.02-.057.22-.114.43-.17.65a327.374 327.374 0 00-1.204 4.364c-.086.315-.209.43-.54.42-3.015-.066-6.029-.105-9.043-.162-.588-.01-1.166-.048-1.754-.048-.293 0-.436-.086-.52-.391-.352-1.299-.73-2.598-1.11-3.887-.038-.143-.085-.296-.152-.535v12.29c3.422-.18 6.778-.362 10.17-.544v-5.768h1.451v6.962c-.9.048-1.82.115-2.749.162-2.682.144-5.364.22-8.037.43-3.564.277-7.1-.105-10.645-.277-1.43-.067-2.872-.153-4.303-.229-.701-.038-.701-.019-.71-.754v-1.758c-.2.077-.342.125-.475.172.465-.22.474-.601.465-1.04a52185.76 52185.76 0 01-.17-55.952v-1.26c1.184-.134 2.293-.268 3.402-.392 2.701-.296 5.393-.65 8.094-.87 1.053-.085 2.133.106 3.204.211 1.962.191 3.924.42 5.886.62 1.66.173 3.327.316 4.986.507.161.019.38.267.446.449.407 1.174.786 2.358 1.222 3.657zm18.653-7.42c.265 21.65.521 43.193.787 64.814 3.45-.182 6.843-.373 10.284-.554-.304-21.029-.598-41.99-.901-63.009-3.374-.42-6.73-.83-10.17-1.25zm-31.099 3.467c2.36 7.296 4.692 14.515 7.033 21.754.038-.077.066-.134.085-.191a8794.9 8794.9 0 004.597-15.213c.048-.162.029-.372-.019-.544-.388-1.242-.796-2.474-1.203-3.715-.351-1.07-.351-1.031-1.47-1.136-1.962-.182-3.924-.411-5.876-.621-1.033-.115-2.066-.22-3.147-.334z" fill="#BDBDBD"/><path d="M9.194 32.965c2.284-.878 4.455-1.71 6.625-2.55 6.73-2.587 13.47-5.185 20.199-7.773 12.473-4.794 24.947-9.578 37.42-14.372a7190.2 7190.2 0 0015.195-5.854c1.791-.688 3.592-1.385 5.393-2.053a1 1 0 01.625-.01c6.455 2.33 12.901 4.68 19.355 7.01 5.526 1.996 11.052 3.982 16.569 5.968 5.62 2.034 11.241 4.068 16.852 6.102 5.593 2.025 11.185 4.06 16.768 6.084 3.147 1.136 6.284 2.291 9.431 3.428 2.72.983 5.44 1.958 8.17 2.932.095.038.19.086.351.162-.161.076-.265.143-.379.181-1.356.478-2.711.917-4.047 1.433-.664.258-1.299.172-1.953.086-4.133-.535-8.265-1.07-12.388-1.614-3.299-.43-6.597-.87-9.905-1.299-3.318-.43-6.635-.85-9.953-1.28-3.535-.458-7.071-.926-10.606-1.384-3.289-.43-6.569-.85-9.858-1.28l-8.54-1.117c-3.071-.401-6.132-.793-9.203-1.175-1.015-.124-2.048-.324-3.052-.248-2.057.143-4.105.43-6.161.669-2.635.305-5.27.61-7.896.916-2.616.306-5.232.602-7.858.898-3.194.372-6.397.735-9.592 1.108l-9.64 1.117c-2.88.334-5.772.659-8.653.993-2.635.306-5.27.611-7.896.917-2.654.305-5.298.592-7.952.898-2.54.286-5.08.592-7.62.888-2.92.334-5.83.668-8.75 1.012L14 34.503c-.578.067-1.156.143-1.734.19-.152.01-.332.01-.455-.056-.844-.516-1.668-1.06-2.616-1.672z" fill="#BDBDBD"/><path d="M32.378 86.454c-.853.468-1.706.926-2.559 1.384-.019-.028-.028-.057-.047-.086.72-.601 1.44-1.193 2.18-1.804-.341-.488-.654-.908-.929-1.337-2.047-3.161-3.327-6.609-3.507-10.39-.142-3.018-.123-6.046-.133-9.063-.01-3.677.02-7.353.029-11.03.019-3.18.265-6.341 1.45-9.32.644-1.614 1.545-3.114 2.341-4.67.085-.172.209-.315.341-.506-.303-.258-.587-.497-.872-.745.01-.02.02-.048.029-.067.35.153.692.306.938.42 1.043-1.031 1.99-2.11 3.08-3.008 2.892-2.397 6.237-3.562 9.99-3.39 1.555.067 3.11.315 4.655.487l4.985.544c1.99.21 3.981.43 5.972.64.36.038.71.076 1.128.115-.048.43-.095.811-.142 1.25-2.56-.267-5.1-.534-7.63-.802-.01.03-.029.058-.038.086.293.22.597.43.89.66 2.996 2.444 4.816 5.614 5.754 9.348.663 2.627.806 5.3.815 7.993.01 5.998.047 11.995.038 17.992 0 3.323-.389 6.599-1.602 9.731-1.166 3.008-2.91 5.596-5.469 7.583-.606.468-1.27.869-1.943 1.327 1.697-.086 3.355-.181 5.033-.267.038.42.076.792.114 1.222-.38.038-.74.086-1.09.105-3.232.172-6.465.353-9.697.487-1.62.067-3.26.172-4.872.01-3.526-.363-6.473-1.987-8.9-4.575-.085-.095-.17-.181-.256-.277a.698.698 0 00-.076-.047zm15.024-24.59c.01-2.99.01-5.988 0-8.977 0-.497-.029-.984-.076-1.48-.18-1.73-1.223-2.98-2.882-3.458a.958.958 0 00-.464-.019c-1.971.526-3.393 1.662-3.905 3.725a8.16 8.16 0 00-.218 1.795 835.4 835.4 0 000 8.451c.01 3.276 0 6.551.057 9.837.028 1.852.976 3.15 2.644 3.896.436.19.967.42 1.394.315 1.317-.306 2.464-1.022 3.004-2.32.313-.765.427-1.662.436-2.503.038-3.094.01-6.178.01-9.263zm98.395-.794c-.057-4.269-.171-8.528-.161-12.796.009-4.298 1.099-8.3 3.649-11.823 1.735-2.397 4.028-3.734 6.986-4.04 3.876-.4 6.758 1.347 9.213 4.107 3.042 3.438 4.54 7.535 4.843 12.061.247 3.696.304 7.41.408 11.116.132 5.014.284 10.018.322 15.031.028 3.056-.389 6.064-1.678 8.881-1.203 2.636-2.786 4.985-5.241 6.628-1.849 1.232-3.896 1.652-6.095 1.46-3.564-.314-6.142-2.186-8.085-5.09-1.318-1.957-2.417-4.02-3.005-6.33a29.466 29.466 0 01-.862-6.37c-.104-3.83-.161-7.668-.237-11.508-.01-.448 0-.888 0-1.336-.019.01-.038.01-.057.01zm15.023 1.538c-.085-3.686-.132-7.382-.265-11.068-.038-.984-.313-1.968-.531-2.932-.17-.764-.777-1.165-1.45-1.461-.341-.153-.654-.105-.995.067-.853.42-1.128 1.193-1.166 2.043a69.708 69.708 0 00-.038 4.24c.123 6.618.256 13.236.417 19.854.019.86.227 1.728.436 2.569.171.678 1.137 1.365 1.735 1.346.635-.019 1.563-.687 1.706-1.384.189-.908.36-1.843.35-2.77-.009-3.504-.123-7-.199-10.504zm-28.197-7.716l-1.034 1.212c-.388.45-1.194.401-1.526-.086-1.848-2.712-3.687-5.433-5.535-8.145-.18-.268-.171-.45-.019-.717 3.128-5.338 6.275-10.667 9.355-16.024.408-.716.948-.83 1.583-.764 2.351.258 4.701.554 7.052.86.161.019.379.2.417.343.133.468.275.955.284 1.433.19 9.989.361 19.987.541 29.976.123 6.952.256 13.904.379 20.857.038 2.167.104 4.325.114 6.493 0 .468-.152.936-.275 1.385-.029.096-.228.191-.351.2-1.934.134-3.877.268-5.81.373-1.261.067-2.522.096-3.782.143-.284.01-.436-.076-.474-.382-.066-.563-.237-1.127-.246-1.69-.2-11.135-.389-22.28-.569-33.414-.01-.669 0-1.337 0-2.006a.822.822 0 01-.104-.047z" fill="#BDBDBD"/></svg>