<svg width="48" height="48" fill="none" xmlns="http://www.w3.org/2000/svg"><g clip-path="url(#clip0)"><path d="M0 0h48v48H0V0z" fill="url(#paint0_linear)"/><path d="M34.743 15.872a4.272 4.272 0 00-1.03-1.584 4.268 4.268 0 00-1.585-1.031c-.486-.189-1.215-.413-2.559-.474-1.453-.067-1.89-.08-5.569-.08-3.68 0-4.116.013-5.569.08-1.344.06-2.073.285-2.559.474-.598.22-1.14.573-1.584 1.03-.458.445-.81.987-1.031 1.585-.19.486-.414 1.216-.475 2.56-.066 1.453-.08 1.888-.08 5.569 0 3.68.014 4.115.08 5.569.061 1.343.286 2.073.475 2.558.22.599.573 1.14 1.03 1.585.445.457.986.81 1.585 1.03.486.19 1.215.414 2.559.475 1.453.066 1.889.08 5.569.08 3.68 0 4.116-.014 5.569-.08 1.343-.06 2.073-.285 2.559-.474a4.564 4.564 0 002.615-2.616c.189-.485.413-1.215.475-2.558.066-1.454.08-1.89.08-5.57 0-3.68-.014-4.115-.08-5.569-.061-1.343-.286-2.073-.475-2.559zM24 31.077a7.077 7.077 0 110-14.153 7.077 7.077 0 010 14.153zm7.356-12.78a1.654 1.654 0 110-3.307 1.654 1.654 0 010 3.307z" fill="#F2F2F2"/><path d="M28.594 24a4.594 4.594 0 11-9.188 0 4.594 4.594 0 019.188 0z" fill="#F2F2F2"/><path d="M44.538 0H3.462A3.462 3.462 0 000 3.462v41.076A3.462 3.462 0 003.462 48h41.076A3.462 3.462 0 0048 44.538V3.462A3.462 3.462 0 0044.538 0zm-6.84 29.682c-.066 1.467-.3 2.468-.64 3.345a7.046 7.046 0 01-4.03 4.03c-.877.341-1.88.574-3.346.641-1.47.067-1.939.083-5.682.083-3.743 0-4.212-.016-5.682-.083-1.466-.067-2.468-.3-3.345-.64a6.752 6.752 0 01-2.44-1.59 6.755 6.755 0 01-1.59-2.44c-.34-.877-.574-1.88-.64-3.346-.069-1.47-.084-1.94-.084-5.682 0-3.743.016-4.212.083-5.682.066-1.467.3-2.468.64-3.345a6.751 6.751 0 011.59-2.44 6.75 6.75 0 012.44-1.59c.878-.341 1.88-.574 3.346-.641 1.47-.067 1.94-.083 5.682-.083 3.743 0 4.212.016 5.682.083 1.467.067 2.468.3 3.345.64a6.75 6.75 0 012.441 1.59 6.753 6.753 0 011.59 2.44c.34.878.574 1.88.64 3.346.068 1.47.083 1.94.083 5.682 0 3.743-.015 4.212-.083 5.682z" fill="#F2F2F2"/><path d="M24 0v3.879h20.121V44.12H24V48h24V0H24z" fill="url(#paint1_linear)"/><path d="M3.879 44.121V3.88H24V0H0v48h24v-3.879H3.879z" fill="url(#paint2_linear)"/></g><defs><linearGradient id="paint0_linear" x1="7" y1="40.5" x2="45.5" y2="6" gradientUnits="userSpaceOnUse"><stop stop-color="#FFCD00"/><stop offset="1" stop-color="#D800B6"/></linearGradient><linearGradient id="paint1_linear" x1="-15.5" y1="24" x2="53" y2="24" gradientUnits="userSpaceOnUse"><stop stop-color="#FFCD00"/><stop offset="1" stop-color="#D800B6"/></linearGradient><linearGradient id="paint2_linear" x1="-6" y1="30" x2="73.5" y2="31" gradientUnits="userSpaceOnUse"><stop stop-color="#FFCD00"/><stop offset="1" stop-color="#D800B6"/></linearGradient><clipPath id="clip0"><path fill="#fff" d="M0 0h48v48H0z"/></clipPath></defs></svg>