<svg width="20" height="20" fill="none" xmlns="http://www.w3.org/2000/svg"><path d="M1.31 4.376c.728 1.692 1.956 3.366 3.675 4.087a3.9 3.9 0 00.648.194 6.688 6.688 0 011.598-1.69 8.03 8.03 0 011.653-.932 4.666 4.666 0 00-.515-.312c-.715-.374-1.49-.703-2.244-1.057.71.192 1.523.264 2.201.51.423.156.813.37 1.177.626 1.085-.37 2.22-.547 3.352-.682-.918-1.525-2.876-2.749-4.351-3.303-1.541-.578-3.286-.65-5-.827C2.452.88 1.31.489.473.03.283-.074.081.1.147.31c.41 1.314.619 2.802 1.162 4.065z" fill="#27AE60"/><path d="M19.427 4.176c-1.933 1.05-4.15 1.179-6.323 1.428-1.06.123-2.111.274-3.11.576a9.245 9.245 0 00-.646.221 7.61 7.61 0 00-1.815.98A6.18 6.18 0 006.18 8.765c-.592.826-1.005 1.776-1.344 2.763a15.757 15.757 0 00-.848 5.592c.022.768.034 1.567.224 2.317.043.165.084.376.213.499.167.161.468-.005.4-.24-.486-1.657-.183-3.594.489-5.178.772-1.82 2.264-2.904 4.087-3.564a23.16 23.16 0 011.482-.474c.01-.004.02-.004.03-.004.1 0 .143.147.04.194-.593.268-1.182.537-1.742.83-2.743 1.43-3.94 4.761-2.912 4.761a.778.778 0 00.294-.07c1.586-.655 3.47-.661 5.213-.984a8.66 8.66 0 001.77-.499c2.223-.928 3.813-2.742 4.76-4.925.705-1.629.978-3.552 1.512-5.244.07-.216-.084-.402-.272-.402a.28.28 0 00-.15.039z" fill="#27AE60"/></svg>