<svg width="149" height="72" fill="none" xmlns="http://www.w3.org/2000/svg"><path d="M.087 64.893c.022-.833.058-1.658.065-2.49.08-8.946.167-17.892.246-26.837.015-1.86.03-3.713.066-5.573.007-.26.086-.521.166-.767.03-.08.174-.145.275-.16 1.818-.217 3.636-.434 5.461-.644 1.029-.123 2.057-.29 3.093-.34.912-.043 1.832.007 2.745.087 1.919.16 3.838.362 5.75.55 1.412.145 2.825.297 4.244.441.109.015.21.044.348.066-.03.296-.058.579-.101.926-2.057-.217-4.107-.427-6.207-.651.318.29.622.528.883.796 1.586 1.628 2.477 3.619 2.948 5.812.456 2.113.478 4.255.47 6.405-.021 3.8-.014 7.6-.043 11.392-.014 2.063-.202 4.118-.796 6.108-.63 2.107-1.637 3.981-3.31 5.458-.24.21-.507.398-.746.666 1.542-.08 3.085-.16 4.65-.247.028.326.05.608.08.934-.305.029-.587.058-.877.08-2.361.13-4.73.195-7.083.39-2.274.189-4.527.073-6.794-.065-1.47-.094-2.94-.18-4.41-.231-.55-.022-1.058-.007-1.123-.731v-1.375zm8.488-8.07c.456-.044.87-.037 1.26-.123.696-.152 1.217-.536 1.347-1.281.102-.543.24-1.093.247-1.636.05-4.22.072-8.44.08-12.659 0-.514-.11-1.028-.225-1.527-.123-.507-.485-.883-.992-.94-.5-.059-1.029.05-1.572.086-.043 6.022-.094 12.007-.145 18.08zm139.911-.543c-.05.658-.087 1.317-.152 1.976-.195 2.113-.558 4.19-1.622 6.058-.79 1.382-1.775 2.62-3.252 3.35-1.21.594-2.506.732-3.839.681-.934-.036-1.846-.174-2.708-.557-1.007-.449-1.789-1.158-2.492-1.99-1.97-2.317-2.788-5.074-3.099-8.027-.153-1.426-.268-2.86-.138-4.292.232-2.454.855-4.777 2.158-6.898.123-.202.456-.398.254-.687-1.203-1.708-1.615-3.67-1.811-5.682-.224-2.33-.123-4.654.427-6.933a10.526 10.526 0 012.861-5.103c.84-.832 1.912-1.216 3.093-1.339 2.245-.232 4.019.6 5.533 2.23 1.702 1.823 2.571 4.016 3.035 6.405.354 1.823.557 3.676.449 5.536-.109 1.839-.392 3.641-1.369 5.255 1.825 2.236 2.332 4.907 2.6 7.65.022.21.043.427.072.637v1.73zm-6.989-1.969c-.007-1.071-.181-2.106-.615-3.09-.196-.434-.558-.442-.935-.442-.355.007-.666.102-.804.485-.673 1.867-.666 3.72.087 5.566.16.39.478.608.862.593.449-.014.84-.18 1.007-.666a7.407 7.407 0 00.398-2.446zm-.76-14.164c-.051-1.288-.181-2.309-.696-3.213-.123-.21-.434-.355-.688-.427-.065-.022-.304.304-.362.499-.478 1.643-.362 3.257.297 4.835.109.268.275.485.572.456.283-.03.515-.203.573-.521.123-.623.239-1.245.304-1.629zM69.158 26.924c.319-1.028.609-1.969.891-2.91.254-.832.507-1.657.753-2.49.058-.202.16-.296.37-.318 1.825-.195 3.643-.398 5.468-.6 1.405-.152 2.803-.355 4.208-.442.796-.05 1.608.036 2.404.116 1.007.101 2.006.275 3.006.398 1.47.188 2.94.362 4.41.535.37.044.746.095 1.116.095.37-.008.42.166.42.485.022 2.518.05 5.044.087 7.563.145 10.227.297 20.453.449 30.68.05 3.51.101 7.02.166 10.531.008.275-.086.347-.347.362-1.492.072-2.984.166-4.483.253-1.76.102-3.513.254-5.273.282-1.42.03-2.846-.08-4.266-.152-2.013-.1-4.027-.224-6.033-.34-.478-.029-.963-.058-1.506-.087V59.508c-.036-.007-.08-.007-.116-.015-.043.167-.087.326-.13.492-.312 1.1-.623 2.2-.92 3.308-.065.239-.16.326-.413.319-2.303-.051-4.606-.08-6.91-.123-.448-.008-.89-.037-1.34-.037-.224 0-.332-.065-.397-.296a134.14 134.14 0 00-.848-2.946c-.029-.109-.065-.224-.116-.405v9.314c2.615-.137 5.179-.275 7.771-.412v-4.372h1.109v5.277c-.689.036-1.391.087-2.1.123-2.05.108-4.1.166-6.142.325-2.724.21-5.425-.08-8.134-.21-1.093-.05-2.194-.115-3.288-.173-.536-.03-.536-.015-.543-.572v-1.332c-.152.058-.26.094-.362.13.355-.166.362-.456.355-.788-.051-14.135-.094-28.27-.13-42.406v-.955c.905-.101 1.752-.203 2.6-.297 2.063-.224 4.12-.492 6.184-.658.804-.066 1.63.08 2.449.159 1.499.145 2.998.318 4.497.47 1.267.13 2.542.24 3.81.384.123.014.29.203.34.34.311.89.601 1.788.934 2.772zM83.412 21.3c.202 16.408.398 32.736.6 49.122 2.637-.137 5.23-.282 7.859-.42-.232-15.937-.456-31.823-.688-47.753-2.579-.319-5.142-.63-7.772-.949zm-23.763 2.628l5.374 16.487c.029-.058.05-.101.065-.145 1.173-3.843 2.347-7.686 3.513-11.53a.8.8 0 00-.015-.412c-.297-.94-.608-1.874-.92-2.815-.268-.81-.268-.782-1.122-.862-1.5-.137-2.999-.31-4.49-.47-.79-.087-1.58-.166-2.405-.253z" fill="#F2F2F2"/><path d="M7.025 24.984c1.745-.666 3.404-1.295 5.063-1.932 5.142-1.962 10.291-3.93 15.433-5.892 9.531-3.633 19.063-7.259 28.594-10.892 3.874-1.477 7.742-2.953 11.61-4.437 1.368-.521 2.744-1.05 4.12-1.556a.77.77 0 01.478-.007c4.933 1.766 9.857 3.546 14.79 5.312 4.222 1.513 8.444 3.018 12.66 4.524 4.294 1.541 8.589 3.083 12.877 4.625 4.273 1.534 8.546 3.076 12.812 4.61 2.404.861 4.801 1.737 7.206 2.598 2.079.746 4.157 1.484 6.243 2.222.072.03.145.065.268.123-.123.058-.203.109-.29.138-1.035.362-2.071.695-3.092 1.085-.507.196-.993.13-1.492.066-3.158-.406-6.316-.811-9.466-1.224-2.521-.325-5.041-.658-7.569-.984-2.535-.326-5.069-.644-7.604-.97-2.702-.347-5.403-.702-8.105-1.05-2.513-.325-5.019-.643-7.532-.97l-6.525-.846c-2.347-.304-4.686-.6-7.033-.89-.775-.094-1.564-.246-2.332-.188-1.572.108-3.136.325-4.707.506l-6.034.695c-1.998.232-3.997.456-6.003.68-2.441.283-4.89.558-7.33.84l-7.366.847c-2.201.253-4.41.5-6.612.753l-6.033.694c-2.028.232-4.049.45-6.076.68-1.941.218-3.882.45-5.823.674-2.231.253-4.455.506-6.685.767l-4.773.565c-.442.05-.884.108-1.325.144-.116.008-.254.008-.348-.043-.645-.39-1.275-.803-1.999-1.267z" fill="#F2F2F2"/><path d="M24.74 65.522c-.651.355-1.303.702-1.955 1.05-.015-.022-.022-.044-.036-.065.55-.456 1.1-.905 1.666-1.368-.261-.37-.5-.688-.71-1.013-1.565-2.396-2.542-5.009-2.68-7.875-.109-2.287-.094-4.581-.101-6.869-.008-2.786.014-5.573.021-8.36.015-2.41.203-4.805 1.108-7.063.493-1.223 1.181-2.36 1.79-3.54.064-.13.159-.238.26-.383-.232-.195-.449-.376-.666-.564.007-.015.014-.037.021-.051.269.116.53.232.718.319.796-.782 1.52-1.6 2.353-2.28 2.21-1.817 4.766-2.7 7.634-2.57 1.188.05 2.375.24 3.556.37l3.81.412c1.52.16 3.041.326 4.562.485.276.029.544.058.862.087-.036.325-.072.615-.109.948-1.955-.203-3.896-.405-5.83-.608-.007.022-.021.043-.029.065.225.166.457.326.681.5 2.289 1.852 3.68 4.255 4.396 7.085.507 1.99.616 4.017.623 6.058.007 4.545.036 9.09.03 13.636 0 2.518-.298 5-1.225 7.375-.89 2.28-2.223 4.241-4.179 5.746-.463.355-.97.66-1.484 1.006 1.296-.065 2.563-.137 3.845-.202.03.318.058.6.087.926-.29.03-.565.065-.833.08-2.47.13-4.94.268-7.409.369-1.238.05-2.491.13-3.722.007-2.695-.275-4.947-1.505-6.801-3.467-.065-.072-.13-.137-.196-.21a.672.672 0 00-.058-.036zm11.48-18.637c.007-2.265.007-4.538 0-6.803 0-.376-.022-.745-.058-1.122-.138-1.31-.934-2.258-2.202-2.62a.738.738 0 00-.355-.014c-1.506.398-2.593 1.26-2.984 2.822a6.165 6.165 0 00-.166 1.361c-.015 2.135-.007 4.27 0 6.405.007 2.483 0 4.965.043 7.455.022 1.404.746 2.389 2.02 2.953.334.145.74.319 1.066.239 1.006-.232 1.883-.775 2.295-1.759.24-.579.326-1.26.334-1.896.029-2.345.007-4.683.007-7.02zm75.184-.6c-.044-3.236-.131-6.463-.123-9.699.007-3.257.84-6.29 2.788-8.96 1.325-1.817 3.078-2.83 5.338-3.062 2.962-.303 5.164 1.021 7.04 3.113 2.324 2.605 3.469 5.71 3.7 9.14.189 2.802.232 5.617.312 8.425.101 3.8.217 7.593.246 11.393.022 2.316-.297 4.595-1.282 6.73-.92 1.998-2.129 3.779-4.005 5.023-1.412.934-2.977 1.252-4.657 1.108-2.723-.24-4.693-1.658-6.178-3.858-1.006-1.484-1.847-3.047-2.296-4.798a22.196 22.196 0 01-.659-4.828c-.079-2.902-.123-5.812-.181-8.721-.007-.34 0-.673 0-1.014-.014.008-.029.008-.043.008zm11.479 1.165c-.065-2.794-.101-5.595-.203-8.389-.029-.745-.239-1.49-.405-2.221-.131-.58-.594-.883-1.108-1.108-.261-.116-.5-.08-.761.05-.652.32-.862.906-.891 1.55a53.804 53.804 0 00-.029 3.213c.095 5.016.196 10.032.319 15.047.015.652.174 1.31.333 1.947.131.514.869 1.035 1.326 1.02.485-.014 1.195-.52 1.303-1.049.145-.687.276-1.397.268-2.099-.007-2.656-.094-5.305-.152-7.961zm-21.546-5.848l-.789.92c-.297.34-.913.303-1.166-.066-1.413-2.056-2.818-4.118-4.23-6.174-.138-.202-.13-.34-.014-.543 2.39-4.045 4.794-8.084 7.148-12.144.311-.543.724-.63 1.209-.58 1.797.196 3.593.42 5.389.652.123.014.29.152.319.26.101.355.21.724.217 1.086.145 7.57.275 15.149.413 22.72.094 5.268.195 10.537.289 15.806.029 1.643.08 3.279.087 4.922 0 .354-.116.71-.21 1.05-.021.072-.174.144-.268.151a303.13 303.13 0 01-4.439.282c-.964.051-1.927.073-2.89.11-.217.006-.333-.059-.362-.29-.051-.427-.181-.855-.189-1.281a15276.5 15276.5 0 01-.434-25.325c-.007-.507 0-1.013 0-1.52a.679.679 0 01-.08-.036z" fill="#F2F2F2"/></svg>