<svg width="38" height="38" fill="none" xmlns="http://www.w3.org/2000/svg"><g clip-path="url(#clip0)"><path d="M37.615 19.904L26.78 13.403l1.353-.86a.792.792 0 000-1.336l-8.709-5.542a.793.793 0 00-.85 0l-8.708 5.542a.792.792 0 000 1.336l1.352.861-10.833 6.5a.79.79 0 00-.005 1.355l18.208 11.084a.786.786 0 00.824 0L37.62 21.259a.793.793 0 00-.005-1.355zM19 7.272l7.234 4.603L19 16.478l-7.234-4.603L19 7.272zm-6.289 7.082l5.863 3.73a.797.797 0 00.85 0l5.863-3.731 1.044.627L19 19.646l-7.332-4.666 1.043-.626zm-10.388 6.23l7.828-4.694 7.375 4.693-7.435 4.731-7.768-4.73zM19 30.74l-7.402-4.507L19 21.522l7.402 4.71L19 30.74zm8.91-5.423l-7.436-4.733 7.375-4.693 7.828 4.696-7.767 4.73z" fill="#000"/><path d="M19 17.219l-8.313-5.344L19 6.531l8.313 5.344L19 17.219z" fill="#F2C94C"/></g><defs><clipPath id="clip0"><path fill="#fff" d="M0 0h38v38H0z"/></clipPath></defs></svg>