<svg width="38" height="38" fill="none" xmlns="http://www.w3.org/2000/svg"><path d="M5 27.5L1 29v2.5l4-2 5 2 4.5-2L19 31l4.5-1 4.5 1.5 4.5-2L37 31v-2l-4.5-1.5L28 29l-4.5-1.5L19 29l-4.5-1.5L10 29l-5-1.5z" fill="#F2C94C"/><path d="M37.998 28.856c0-.01 0-.02-.002-.03 0-.007 0-.014-.002-.021l-.004-.034-.004-.017a.717.717 0 00-.01-.05L32.435 6.538a.79.79 0 00-.768-.6H6.333a.792.792 0 00-.768.6L.023 28.704l-.01.05c-.001.006-.001.011-.004.018 0 .01-.002.021-.004.033 0 .007-.002.014-.003.02v.03C0 28.864 0 28.872 0 28.879v2.392a.793.793 0 001.053.748l4.272-1.492 4.312 1.492a.79.79 0 00.52 0l4.29-1.492 4.293 1.492c.167.06.352.06.52 0l4.292-1.492 4.291 1.492c.17.06.353.06.52 0l4.293-1.492 4.292 1.492a.788.788 0 00.718-.102.791.791 0 00.334-.646v-2.392l-.002-.022zm-1.914-1.189l-3.168-1.103a.797.797 0 00-.52 0l-3.628 1.262-.788-6.306 3.236-1.12 3.348 1.184 1.52 6.083zm-3.3-13.204l1.32 5.28-2.622-.927a.792.792 0 00-.523-.002l-3.18 1.1-.69-5.524 2.712-.95 2.983 1.023zm-1.735-6.942l1.278 5.112-2.27-.78a.79.79 0 00-.52.002l-2.649.928-.659-5.262h4.82zm-11.258 0h4.843l.647 5.17-2.424-.837a.787.787 0 00-.517 0l-2.55.887V7.52zm0 6.896l2.809-.977 2.899 1.002.671 5.366-2.836-.992a.79.79 0 00-.521-.001l-3.022 1.05v-5.448zm0 7.125l3.28-1.141 3.318 1.16.77 6.168-3.346-1.165a.802.802 0 00-.521 0l-3.501 1.218v-6.24zM13.365 7.52h4.843v5.22l-2.548-.886a.79.79 0 00-.518 0l-2.423.836.646-5.17zm4.843 14.02v6.241l-3.501-1.218a.799.799 0 00-.52 0L10.84 27.73l.772-6.165 3.316-1.163 3.281 1.14zm-5.708-7.1l2.9-1.001 2.808.977v5.449l-3.021-1.051a.794.794 0 00-.522 0l-2.836.994.671-5.367zM6.951 7.52h4.819l-.658 5.262-2.649-.928a.789.789 0 00-.52-.001l-2.27.779L6.951 7.52zm-1.735 6.942L8.2 13.44l2.711.95-.689 5.523-3.182-1.099a.79.79 0 00-.522.002l-2.62.926 1.32-5.279zm-1.781 7.12l3.35-1.182 3.235 1.116-.789 6.31-3.647-1.263a.797.797 0 00-.52 0l-3.148 1.1 1.519-6.08zm32.98 8.574l-3.499-1.218a.799.799 0 00-.52 0l-4.293 1.493-4.29-1.493a.802.802 0 00-.521 0L19 30.432l-4.293-1.493a.799.799 0 00-.52 0l-4.293 1.494-4.31-1.494a.797.797 0 00-.52 0l-3.48 1.217v-.698l3.741-1.307 4.312 1.492v.002l.024.007.048.012a.634.634 0 00.074.015c.005 0 .01.002.014.003.008 0 .016 0 .023.002l.016.001.06.003.04-.003.028-.001.043-.005.024-.003a.52.52 0 00.042-.01l.025-.005.04-.012.018-.006 4.291-1.492 4.293 1.492.01.004.034.01.037.01.033.007.044.007c.01 0 .018.002.028.003a.8.8 0 00.147 0l.028-.003.044-.007.034-.007.036-.01.034-.01.01-.003 4.293-1.493 4.292 1.492.018.006.04.012.025.006.042.009a1.367 1.367 0 00.067.008l.037.002.03.002.06-.003.018-.002.02-.001a.725.725 0 00.063-.012l.027-.006a.727.727 0 00.072-.02l4.293-1.493 3.76 1.308v.698z" fill="#000"/></svg>