<svg width="1920" height="601" fill="none" xmlns="http://www.w3.org/2000/svg"><path d="M1112.26 253.042l66.88 6.488 111.3-14.474-58.4-10.481-119.78 18.467z" fill="#4F4F4F"/><path d="M1232.04 212.116l-120.28 24.456v16.47l120.28-18.467 58.89 10.481V226.59l-58.89-14.474z" fill="#BDBDBD"/><path d="M1172.65 415.746l-21.46 2.994 68.87 15.472 23.96-4.492-71.37-13.974zm24.95-14.973l-23.95 3.993 71.87 13.475 22.96-4.991-70.88-12.477z" fill="#4F4F4F"/><path d="M1520.52 416.744v-13.476l-236.07 91.833-384.804-112.295v10.481l384.804 126.769 236.07-103.312z" fill="#E0E0E0"/><path d="M1520.52 403.269l-236.07 91.333-384.304-111.796 135.754-10.98 143.24 22.958v8.984l-6.49.998v10.481l-22.46 3.493v11.479l70.37 17.469 28.45-6.988 20.46-5.49 21.96 4.492 160.21-42.423 68.88 5.99z" fill="#BDBDBD"/><path d="M1179.35 119.469v103.325m-67.46 30.263l67.46 6.577 111.88-14.276m-111.88 14.277v143.783m18.31-29.506l-18.31-2.034" stroke="#333" stroke-linecap="round" stroke-linejoin="round"/><path d="M1179.35 137.308l-142.77 54.888v179.683l142.77 22.942m111.87 44.817l159.83-42.084V163.838l-159.83-92.386v368.186z" stroke="#333" stroke-linecap="round" stroke-linejoin="round"/><path d="M1451.05 361.88l-159.83 22.423-21.75-2.426m-90.12-262.408l-3.59-4.894 115.46-50.428 164.76 96.958-4.93 2.735-159.83-92.387-111.87 48.016zm111.87-55.322v7.306m.01 155.031l-58.84-14.543-120.5 24.682v16.435l120.26-18.356 59.08 10.657v-18.875zm-58.84-14.543l-.24 22.761m-52.8 132.129l-142.77-13.336m232.89 59.991V280.459l-71.81 4.179v116.325l71.81 12.523z" stroke="#333" stroke-linecap="round" stroke-linejoin="round"/><path d="M1269.47 435.446l-49.16 12.565-70.07-17.473v-11.696l22.38-3.337v-10.644l28.03-4.362V285.927l68.82-4.235" stroke="#333" stroke-linecap="round" stroke-linejoin="round"/><path d="M1172.62 404.861l72.72 13.687 24.13-5.063v21.961l21.76 4.193" stroke="#333" stroke-linecap="round" stroke-linejoin="round"/><path d="M1245.34 418.548v11.5l-72.72-14.543m72.71 14.543l-25.02 4.375-70.07-15.58m70.07 7.798v30.052m-22.65-172.053l2.99 1.29" stroke="#333" stroke-linecap="round" stroke-linejoin="round"/><path d="M1208.47 293.949l51.75-2.033v18.553h-51.75v-16.52z" fill="#F2C94C"/><path d="M1208.47 293.949l51.75-2.033v18.553h-51.75v-16.52z" stroke="#333" stroke-linecap="round" stroke-linejoin="round"/><path d="M1208.47 320.215v14.935l51.75 1.529v-15.931l-51.75-.533z" fill="#F2C94C"/><path d="M1208.47 320.215v14.935l51.75 1.529v-15.931l-51.75-.533z" stroke="#333" stroke-linecap="round" stroke-linejoin="round"/><path d="M1216 248.934c0 1.964-9.53 3.562-21.3 3.562-11.77 0-21.33-1.598-21.33-3.562 0-1.963 9.53-3.576 21.3-3.576 11.77 0 21.33 1.599 21.33 3.576z" fill="#F2C94C"/><path d="M1216 248.934c0 1.964-9.53 3.562-21.3 3.562-11.77 0-21.33-1.598-21.33-3.562 0-1.963 9.53-3.576 21.3-3.576 11.77 0 21.33 1.599 21.33 3.576zm57.47 68.619l13.85-.421v19.142l-13.85-.407v-18.314z" stroke="#333" stroke-linecap="round" stroke-linejoin="round"/><path d="M1276.45 320.483v4.403l8.08-.154v-4.53l-8.08.281zm8.25 7.221h-8.25m8.08 2.678h-8.08m8.08 2.509l-8.08-.154" stroke="#333" stroke-linecap="round" stroke-linejoin="round"/><path d="M1337.58 272.858v77.007l45.69-2.495v-68.376l-45.69-6.136zm47.68 6.636v68.023l32.44-2.143v-61.389l-32.44-4.491z" fill="#F2C94C"/><path d="M1337.58 272.858v78.602l84.04-5.329v-61.493l-84.04-11.78z" stroke="#333" stroke-linecap="round" stroke-linejoin="round"/><path d="M1337.58 350.016l79.94-4.291v-61.662m0 61.661l4.1.407m-38.43-66.878v68.309m1.98-.099V279.52" stroke="#333" stroke-linecap="round" stroke-linejoin="round"/><path d="M1417.21 244.058l-31.95-7.986v-68.375l31.95 13.974v62.387zm-34.44-8.485l-45.42-10.98v-77.858l45.42 19.964v68.874z" fill="#F2C94C"/><path d="M1421.62 245.288l-84.04-20.615v-82.879l84.04 38.747v64.747z" stroke="#333" stroke-linecap="round" stroke-linejoin="round"/><path d="M1417.52 244.277v-62.713l-79.94-35.087m79.94 35.089l4.1-1.024m-36.45 55.798v-68.967m-1.98 68.492v-69.361m-116.48-91.643V64.147l-64.65-35.325-56.44 33.446v6.858l21.01 8.274v60.483" stroke="#333" stroke-linecap="round" stroke-linejoin="round"/><path d="M1172.03 135.793V74.538l-5.4 2.86m5.4-2.86l41.71 18.118m0 5.328V52.76l7.43-3.885v45.87" stroke="#333" stroke-linecap="round" stroke-linejoin="round"/><path d="M1221.17 48.876l-19.09-10.672-56.46 30.921m56.44-40.303l.02 9.382" stroke="#333" stroke-linecap="round" stroke-linejoin="round"/><path d="M1146.51 283.985v58.808l-87.65-3.907v-46.915l37.43-3.494.5 52.1 1.99.089.5-52.189 47.23-4.492z" fill="#F2C94C"/><path d="M1146.51 282.814v59.979l-90.82-3.927v-47.623l90.82-8.429z" stroke="#333" stroke-linecap="round" stroke-linejoin="round"/><path d="M1055.69 291.244l3.09.8 87.73-8.106m-87.73 8.104v46.965m39.97-50.653v52.377m-2.14-52.181v52.098" stroke="#333" stroke-linecap="round" stroke-linejoin="round"/><path d="M1058.36 243.06v-41.924l40.42-13.975 47.73-15.971v52.137l-47.73 10.25v-46.416l-1.99.69v46.225l-38.43 8.984z" fill="#F2C94C"/><path d="M1055.69 243.395v-43.431l90.82-31.651v55.014l-90.82 20.068zm43.06-9.521v-46.459m-2.14 46.935v-46.221" stroke="#333" stroke-linecap="round" stroke-linejoin="round"/><path d="M1146.51 171.13l-88.16 30.039v41.635m121-109.856l-146.52 56.921 3.75 2.328m19.11 7.768l2.66 1.206m138.62-60.597v64.606l27.09-6.1v-68.744l-27.09 10.238z" stroke="#333" stroke-linecap="round" stroke-linejoin="round"/><path d="M1266.71 120.782l-27.68 9.483v65.88l27.68-5.396v-69.967z" fill="#F2C94C"/><path d="M1266.71 115.485l-33.3 11.976v70.174l33.3-6.886v-75.264z" stroke="#333" stroke-linecap="round" stroke-linejoin="round"/><path d="M1224.06 199.14l-23.31 4.991v-61.102l23.31-7.938" fill="#F2C94C"/><path d="M1200.75 204.395v-61.366l23.31-7.938m-27.09 5.484l3.78 2.455m32.66-15.566l5.38 2.65 27.92-9.55m-27.92 9.549v66.331m212.26 201.111l69.29 5.862v13.182l-235.81 103.732L899.84 393.25v-10.559l136.74-10.813" stroke="#333" stroke-linecap="round" stroke-linejoin="round"/><path d="M1520.34 403.417l-235.81 91.489L899.84 382.69m384.69 112.216v25.425m166.52-417.745v366.336m0-71.366l78.95 6.661m-9.66-9.398v31.82m-284.47 87.157L1530 399.589m-294.13 142.129L1530 412.379m-651.814-36.012l455.094 132.76M880.11 386.728l450.12 148.691M923.121 373.913l383.309 95.57m-96.34-18.863l71.18-18.189m-193.95-27.57l219.11 48.703m-156.19-40.079v20.937m-9.41-14.162l9.41-1.417m0 11.695l-9.41 1.894m79.48 1.99l-10.22 1.795m74.44 38.187V551m-4.13-286.164l233.83 32.787m-233.83 57.456l222.19-14.08M1184.1 1.11l321.34 189.092m-336.1-72.821L1435.82 1m69.62 382.25l-420.78 110.758m195.92-108.221l224.86-31.524m-232.57 27.993l29.41 3.269m-128.45-14.263l6.18.687m-204.974-4.292l328.634 61.871m-55.12-11.653l-12.68 2.666m-47.36-18.162l-22.19 3.465m79.02-306.598l260.1 119.957m14.9 197.396l9.66 1.052m-253.91 19.072l186.02 35.816m-289.35-212.078l130.91-16.688m-95.2-13.335l95.2 17.164m-95.2-41.579l53.32 13.182m-169.8 21.499l180.88-37.064m0 24.848L1091.99 256.1m72.8 2.105l-58.7-5.708m5.8-15.874l-5.8-.841m66.67 50.301l130.91-7.601m-129.84 118.316l128.45 22.409m-132.94-208.319l304.22-62.937M1190.3 22.328l87.22 48.143m-170.96 14.234L1240.5 6.089m-134.41 84.689l143.98-78.868m-86.56 64.255l-105.16-41.37m87.27 27.472l-82.85-34.988m145.7 165.731l311.87 76.498m-573.937 31.888l232.947-21.638m-214.818 55.169l214.818 9.297m-107.93 12.523l-108.039-11.079m125.259 34.568l-124.108-19.927m204.808-223.464l-211.983 82.36m122.683-43.711l-50.27 19.324m-80.278 42.154l229.858-80.102M949.492 266.871l229.858-50.807m0-56.123l-223.847 76.26m276.647-30.348v35.156m-120.26-7.991v23.699m85.77 38.845v-17.558m71.81 13.169v-18.315M1169.34 1l344.89 199.358M1283.47 74.775l167.58-71.94m-252.19 108.263l-29.52 12.677m-132.76 24.176v241.611M1145.62 59.1v13.448m56.44-50.22v22.27M925.985 380.615l-47.799 3.787m21.653 8.848l-21.653 1.571m413.034 44.818v102.077m0-477.568V1m-111.87 122.775v-90.27M899.84 373.449v31.581" stroke="#333" stroke-linecap="round" stroke-linejoin="round"/></svg>