<svg width="38" height="38" fill="none" xmlns="http://www.w3.org/2000/svg"><g clip-path="url(#clip0)"><path d="M16 12.5l-6-4-.5 3 7 4.5 5-4.5 4 2.5V8.5l-3.5-2-6 6zM18.5 4L15 1.5v4L18.5 4zm-10 20.5v4l9-4V21H17l-8.5 3.5z" fill="#F2C94C"/><path d="M37.962 33.806a.622.622 0 00-.201-.298c-.016-.013-.026-.032-.044-.044L23.846 24.27a.63.63 0 00-.073-.03.654.654 0 00-.35-.063.583.583 0 00-.331.147.601.601 0 00-.061.044l-1.766 1.913-2.883-1.923V20.9a.604.604 0 00-.012-.061.623.623 0 00-.021-.117c-.005-.016-.002-.033-.009-.05l-.005-.008a1.689 1.689 0 00-.1-.157c-.012-.015-.02-.035-.034-.05a.634.634 0 00-.06-.042c-.016-.014-.025-.032-.044-.044L1.011 9.137a.633.633 0 00-.98.529v18.073a.625.625 0 00.245.712l14.232 9.429.13.06a.63.63 0 00.22.045h22.51a.633.633 0 00.632-.633v-3.36a.58.58 0 00-.012-.06.617.617 0 00-.026-.126zm-17.567-6.584l-3.072 3.328a.762.762 0 00-.034.04c-.013.014-.019.033-.03.048-.012.015-.028.023-.039.038a.628.628 0 00-.023.058.64.64 0 00-.07.233c-.001.02-.01.037-.01.057v2.614L9.61 28.634l8.066-3.226 2.72 1.815zm-3.278-2.955l-8.227 3.29v-2.433l8.227-3.292v2.435zM1.297 10.84l15.092 9.922-8.058 3.222-7.035-4.69V10.84zm13.752 25.88L1.296 27.607v-6.793l6.329 4.22v3.457a.624.624 0 00.04.21c.003.009.001.017.005.025.003.01.01.016.014.025a.622.622 0 00.064.108l.03.044c.038.044.08.082.128.115l9.493 6.328a.633.633 0 00.983-.526v-2.626l6.9 4.524H15.048zm21.685 0H27.59l-8.87-5.817 4.876-5.28 13.14 8.71v2.386zM37.998.638a.631.631 0 00-.029-.184c-.003-.01-.01-.018-.014-.028a.587.587 0 00-.035-.068.618.618 0 00-.139-.18.623.623 0 00-.125-.084.624.624 0 00-.289-.078h-20.25a.617.617 0 00-.154.019l-2.531.633a.633.633 0 00-.194.084l-.01.01a.63.63 0 00-.154.153c-.004.006-.01.009-.015.015-.01.016-.011.034-.02.05a.617.617 0 00-.075.234.612.612 0 00-.011.067v3.991L9.3 7.017c-.01.003-.015.01-.024.015-.013.005-.028.007-.041.014a.63.63 0 00-.146.102l-.011.014a.63.63 0 00-.18.389c-.002.015-.006.028-.007.044l-.002.014v3.797c0 .203.097.393.26.512l6.957 5.059a.63.63 0 00.377.125h.004a.629.629 0 00.44-.181l.03-.032 4.234-4.705L25.63 15.1c.014.009.03.012.045.02.013.007.024.015.037.02.015.008.03.013.046.02.07.027.144.042.219.043h.006a.633.633 0 00.168-.026c.017-.005.032-.012.048-.018l.04-.016a.64.64 0 00.08-.045c.01-.006.02-.008.029-.014l11.39-8.227c.014-.01.021-.025.034-.036a.664.664 0 00.22-.429c0-.017.009-.031.009-.048V.648l-.002-.01zm-22.78 1.826l2.241 1.494-2.24.84V2.464zm.633 12.762l-5.695-4.142V8.852l5.695 4.142v2.232zm5.696-5.328l-4.43 4.922v-1.905l4.43-4.922v1.905zm3.797 3.5l-3.295-2.166.6-.668a.632.632 0 00.163-.423V7.526l2.532 1.688v4.183zm.618-5.293l-3.431-2.288c-.013-.008-.028-.01-.042-.017a.272.272 0 00-.152-.062.628.628 0 00-.235-.015c-.02.002-.04 0-.059.005a.631.631 0 00-.197.081c-.018.011-.031.026-.048.039a.613.613 0 00-.089.072l-5.314 5.905-5.549-4.036 8.215-3.08c.007-.003.012-.01.02-.013a.622.622 0 00.186-.116c.008-.007.013-.015.02-.023a.624.624 0 00.078-.09c.01-.014.01-.03.019-.046a.662.662 0 00.055-.477c-.005-.016-.002-.033-.008-.05a.575.575 0 00-.037-.059.568.568 0 00-.157-.197c-.018-.015-.028-.035-.048-.048l-3.062-2.042 1.068-.267H35.41l-9.448 6.824zM36.734 6.02L26.61 13.333V9.199l10.125-7.313V6.02z" fill="#000"/></g><defs><clipPath id="clip0"><path fill="#fff" d="M0 0h38v38H0z"/></clipPath></defs></svg>