<svg width="38" height="38" fill="none" xmlns="http://www.w3.org/2000/svg"><g clip-path="url(#clip0)"><path d="M19.058 38a.605.605 0 01-.361-.12L.47 24.37a.607.607 0 01.018-.987l2.145-1.47a.608.608 0 01.686 1.001l-1.443.989 17.18 12.735 17.197-12.746-1.422-1.015a.607.607 0 01.706-.987l2.099 1.5a.606.606 0 01.009.98L19.419 37.88a.602.602 0 01-.361.12z" fill="#000"/><path d="M19.058 34.942a.605.605 0 01-.361-.12L.47 21.312a.608.608 0 01.018-.989l1.987-1.36a.608.608 0 01.686 1l-1.285.88 17.18 12.736 17.197-12.746-1.223-.874a.606.606 0 11.705-.987l1.902 1.359a.606.606 0 01.008.98L19.42 34.823a.608.608 0 01-.362.12z" fill="#000"/><path d="M1.188 20.781l1.78-1.187L19 30.875l16.031-11.281 1.782 1.187L19 33.844 1.187 20.78z" fill="#F2C94C"/><path d="M30.671 13.648a.601.601 0 01-.352-.113l-6.091-4.35a.607.607 0 11.705-.987l6.091 4.35a.607.607 0 01-.353 1.1zM12.853 27.283a.604.604 0 01-.36-.12L6.51 22.73a.608.608 0 01.723-.976l5.982 4.434a.607.607 0 01-.362 1.095z" fill="#000"/><path d="M15.47 16.27a.599.599 0 01-.163-.022l-8.24-2.279a.606.606 0 01-.181-1.086L19.098 4.52a.606.606 0 01.696.007l5.14 3.672a.607.607 0 01.016.975l-9.112 6.972a.61.61 0 01-.369.125zm-6.822-3.123l6.692 1.85 8.22-6.289-4.126-2.947-10.786 7.386z" fill="#000"/><path d="M6.871 22.849a.605.605 0 01-.361-.12L.47 18.253a.608.608 0 01.019-.989l6.396-4.381a.608.608 0 01.686 1.001l-5.694 3.9 4.988 3.698 8.236-6.301a.607.607 0 01.737.963l-8.598 6.58a.605.605 0 01-.369.125zm12.187 9.033a.605.605 0 01-.361-.12l-6.205-4.599a.608.608 0 01-.007-.97l8.64-6.61a.606.606 0 01.965.375l1.48 8.308a.607.607 0 01-.235.594l-3.915 2.903a.607.607 0 01-.362.119zm-5.196-5.214l5.196 3.851 3.253-2.41-1.24-6.957-7.209 5.516z" fill="#000"/><path d="M22.974 28.98a.607.607 0 01-.362-1.094l13.642-10.112-5.57-3.978-8.822 6.75a.606.606 0 11-.737-.963l9.179-7.023a.605.605 0 01.72-.012l6.614 4.724a.606.606 0 01.008.98l-14.31 10.609a.604.604 0 01-.362.119zM15.905 4.524a.606.606 0 01-.43-.178l-1.92-1.922a.606.606 0 11.857-.857l1.922 1.92a.607.607 0 01-.43 1.037zm7.072 0a.606.606 0 01-.43-1.036l1.922-1.921a.606.606 0 11.858.857l-1.921 1.922a.605.605 0 01-.43.178zm-4.059-.884a.607.607 0 01-.607-.606V.607a.607.607 0 111.213 0v2.427a.606.606 0 01-.606.607z" fill="#000"/></g><defs><clipPath id="clip0"><path fill="#fff" d="M0 0h38v38H0z"/></clipPath></defs></svg>