<svg width="60" height="60" fill="none" xmlns="http://www.w3.org/2000/svg"><path fill="#F2C94C" d="M0 0h60v60H0z"/><g clip-path="url(#clip0)"><rect x="60" width="60" height="60" rx="10" transform="rotate(90 60 0)" fill="#fff"/><path fill-rule="evenodd" clip-rule="evenodd" d="M60 7.5A7.5 7.5 0 0052.5 0h-45A7.5 7.5 0 000 7.5v45A7.5 7.5 0 007.5 60h45a7.5 7.5 0 007.5-7.5v-45zM28.672 20.078a1.878 1.878 0 012.655-2.655l11.25 11.25a1.877 1.877 0 010 2.655l-11.25 11.25a1.877 1.877 0 11-2.655-2.656l8.052-8.047H18.75a1.875 1.875 0 110-3.75h17.974l-8.051-8.047z" fill="#F2C94C"/></g><defs><clipPath id="clip0"><path fill="#fff" transform="rotate(90 30 30)" d="M0 0h60v60H0z"/></clipPath></defs></svg>