<svg width="185" height="213" fill="none" xmlns="http://www.w3.org/2000/svg"><g filter="url(#filter0_d)"><rect x="10" y="8" width="165" height="165" rx="5" fill="#fff"/></g><path d="M145.234 49.484h-13.672v-3.906a5.873 5.873 0 00-5.859-5.86h-13.672V33.86a1.954 1.954 0 00-1.953-1.953H35.859a1.953 1.953 0 00-1.953 1.953v109.375a1.952 1.952 0 001.953 1.954h58.946a5.878 5.878 0 005.507 3.906h11.719a5.878 5.878 0 005.86-5.86v-33.203h1.953a1.954 1.954 0 001.953-1.953v-7.812a1.954 1.954 0 00-1.953-1.954h-7.813V90.5h33.203a5.875 5.875 0 005.86-5.86V55.345a5.878 5.878 0 00-5.86-5.86zM131.562 65.11v-3.906h7.813v17.578h-27.344V70.97h13.672a5.877 5.877 0 005.859-5.86zm-5.859-21.484a1.952 1.952 0 011.953 1.953V65.11a1.954 1.954 0 01-1.953 1.954H55.391a1.953 1.953 0 01-1.953-1.954V45.58a1.953 1.953 0 011.953-1.954h70.312zM82.734 72.922a5.876 5.876 0 00-5.859 5.86v13.671a1.953 1.953 0 01-3.906 0v-5.86a5.86 5.86 0 00-11.719 0v21.485a1.952 1.952 0 11-3.906 0v-37.11H92.5v15.626a1.953 1.953 0 01-3.906 0V78.78a5.877 5.877 0 00-5.86-5.86zm11.72 68.359H37.812V35.812h70.312v3.907H55.391a5.877 5.877 0 00-5.86 5.86v3.905h-1.953a3.918 3.918 0 00-3.906 3.907v3.906a3.918 3.918 0 003.906 3.906h1.953v3.906a5.879 5.879 0 003.907 5.508v37.461a5.859 5.859 0 0011.718 0V86.594a1.953 1.953 0 113.906 0v5.86a5.86 5.86 0 1011.72 0V78.78a1.953 1.953 0 013.906 0v7.813a5.86 5.86 0 1011.718 0V70.969h11.719v7.812h-1.953a5.877 5.877 0 00-5.86 5.86v13.671H92.5a1.953 1.953 0 00-1.953 1.954v7.812a1.952 1.952 0 001.953 1.953h1.953v31.25zM49.53 53.391v3.906h-1.953V53.39h1.953zm64.453 89.843a1.95 1.95 0 01-1.953 1.954h-11.719a1.95 1.95 0 01-1.953-1.954v-33.203h15.625v33.203zm3.907-41.015v3.906H94.453v-3.906h23.438zm29.297-17.578a1.951 1.951 0 01-1.954 1.953H112.03a3.917 3.917 0 00-3.906 3.906v7.813h-3.906V84.64a1.954 1.954 0 011.953-1.954h33.203a3.919 3.919 0 003.906-3.906V61.203a3.917 3.917 0 00-3.906-3.906h-7.813V53.39h13.672a1.952 1.952 0 011.954 1.953V84.64z" fill="url(#paint0_linear9)"/><path d="M59.297 117.844a5.858 5.858 0 00-4.143 10.002 5.855 5.855 0 006.385 1.27 5.854 5.854 0 003.617-5.413 5.86 5.86 0 00-5.86-5.859zm0 7.812a1.95 1.95 0 01-1.805-1.205 1.955 1.955 0 012.552-2.552 1.954 1.954 0 01.634 3.185 1.954 1.954 0 01-1.381.572z" fill="url(#paint1_linear9)"/><path d="M74.922 102.219a5.858 5.858 0 00-4.143 10.002 5.855 5.855 0 006.385 1.27 5.854 5.854 0 003.617-5.413 5.86 5.86 0 00-5.86-5.859zm0 7.812a1.95 1.95 0 01-1.805-1.205 1.955 1.955 0 012.552-2.552 1.954 1.954 0 01.634 3.185 1.954 1.954 0 01-1.381.572z" fill="url(#paint2_linear9)"/><path d="M57.344 49.484a1.953 1.953 0 001.953 1.953h52.734a1.952 1.952 0 100-3.906H59.297a1.953 1.953 0 00-1.953 1.953z" fill="url(#paint3_linear9)"/><path d="M119.844 51.438h1.953a1.952 1.952 0 100-3.907h-1.953a1.952 1.952 0 100 3.907z" fill="url(#paint4_linear9)"/><path fill="#fff" stroke="url(#paint5_linear9)" stroke-width="5" d="M69.5 165.5h45v45h-45z"/><path d="M91.578 175.512c3.52 0 6.272 1.168 8.256 3.504 2.016 2.304 3.024 5.552 3.024 9.744 0 4-.992 7.408-2.976 10.224-1.984 2.784-4.416 4.928-7.296 6.432-2.88 1.504-5.744 2.464-8.592 2.88l-.192-.96c1.92-.576 3.6-1.296 5.04-2.16 1.472-.864 2.768-2.176 3.888-3.936 1.152-1.728 1.968-4.016 2.448-6.864a6.11 6.11 0 01-2.64 2.208 8.583 8.583 0 01-3.504.72c-1.728 0-3.312-.416-4.752-1.248-1.408-.864-2.544-2.08-3.408-3.648-.832-1.568-1.248-3.408-1.248-5.52 0-2.368.528-4.4 1.584-6.096a10.583 10.583 0 014.368-3.936c1.824-.896 3.824-1.344 6-1.344zm-.624 20.4c.8 0 1.616-.272 2.448-.816.864-.576 1.536-1.456 2.016-2.64.128-1.056.192-2.368.192-3.936 0-4.256-.448-7.328-1.344-9.216-.896-1.888-1.968-2.832-3.216-2.832-1.184 0-2.176.832-2.976 2.496-.8 1.632-1.2 4.144-1.2 7.536 0 3.232.368 5.616 1.104 7.152.768 1.504 1.76 2.256 2.976 2.256z" fill="url(#paint6_linear9)"/><defs><linearGradient id="paint0_linear9" x1="92.5" y1="31.906" x2="92.5" y2="149.094" gradientUnits="userSpaceOnUse"><stop stop-color="#F2C94C"/><stop offset="1" stop-color="#F29C4C"/></linearGradient><linearGradient id="paint1_linear9" x1="59.297" y1="117.844" x2="59.297" y2="129.563" gradientUnits="userSpaceOnUse"><stop stop-color="#F2C94C"/><stop offset="1" stop-color="#F29C4C"/></linearGradient><linearGradient id="paint2_linear9" x1="74.922" y1="102.219" x2="74.922" y2="113.938" gradientUnits="userSpaceOnUse"><stop stop-color="#F2C94C"/><stop offset="1" stop-color="#F29C4C"/></linearGradient><linearGradient id="paint3_linear9" x1="85.664" y1="47.531" x2="85.664" y2="51.438" gradientUnits="userSpaceOnUse"><stop stop-color="#F2C94C"/><stop offset="1" stop-color="#F29C4C"/></linearGradient><linearGradient id="paint4_linear9" x1="120.82" y1="47.531" x2="120.82" y2="51.438" gradientUnits="userSpaceOnUse"><stop stop-color="#F2C94C"/><stop offset="1" stop-color="#F29C4C"/></linearGradient><linearGradient id="paint5_linear9" x1="92" y1="163" x2="92" y2="213" gradientUnits="userSpaceOnUse"><stop stop-color="#F2C94C"/><stop offset="1" stop-color="#F29C4C"/></linearGradient><linearGradient id="paint6_linear9" x1="91.5" y1="149" x2="91.5" y2="213" gradientUnits="userSpaceOnUse"><stop stop-color="#F2C94C"/><stop offset="1" stop-color="#F29C4C"/></linearGradient></defs></svg>