<svg width="185" height="213" fill="none" xmlns="http://www.w3.org/2000/svg"><g filter="url(#filter0_d)"><rect x="10" y="8" width="165" height="165" rx="5" fill="#fff"/></g><path d="M137.178 137.619a2.443 2.443 0 102.441 2.442 2.443 2.443 0 00-2.441-2.442z" fill="url(#paint0_linear7)"/><path d="M152.559 53.147h-2.442V30.44a2.441 2.441 0 00-2.441-2.44h-10.498a2.441 2.441 0 00-2.442 2.441v4.143l-12.207 6.443-12.207-6.443v-4.143A2.441 2.441 0 00107.881 28H97.383a2.441 2.441 0 00-2.442 2.441v8.057H82.734a2.441 2.441 0 00-2.441 2.442v22.704h-8.057a2.441 2.441 0 00-2.441 2.442v3.73L57.397 80.018l-12.016-10.18v-3.752a2.441 2.441 0 00-2.441-2.441h-10.5a2.441 2.441 0 00-2.44 2.44v84.475a2.441 2.441 0 002.441 2.44H152.56a2.441 2.441 0 002.441-2.441V55.588a2.441 2.441 0 00-2.441-2.441zm-12.94-1.647V32.883h5.615v20.264h-5.615V51.5zm-4.883-11.394v7.363l-6.976-3.681 6.976-3.682zm-24.414 0l6.977 3.681-6.977 3.682v-7.363zm0 12.884l12.207-6.442 12.207 6.442v.157h-24.414v-.157zm4.883 64.365h19.531v9.766h-19.531v-9.766zm-2.441-4.882h-12.94v-9.766h20.264v9.766h-7.324zm2.441-14.649V88.06h19.531v9.765h-19.531zm-2.441-14.648h-12.94V73.41h20.264v9.766h-7.324zm2.441-14.649V58.03h19.531v10.498h-19.531zM99.825 40.94v-8.057h5.614v20.264h-5.615V40.94zm-14.65 2.44h9.766v9.767h-9.765V43.38zm0 14.65h25.147v10.497H85.176V58.03zm0 15.38h9.766v9.766h-9.765V73.41zm0 14.649h25.147v9.765H85.176V88.06zm0 14.648h9.766v9.766h-9.765v-9.766zm0 14.648h25.147v9.766H85.176v-9.766zm-10.497-17.086V68.527h5.615v58.594h-5.615v-26.852zm-4.883-24.13v14.383l-8.611-7.296 8.61-7.086zm-24.414.098l8.184 6.935-8.184 6.735v-13.67zm0 19.994l11.97-9.852 12.444 10.543v2.191l-12.398 10.202-12.016-10.18V96.23zm24.414 9.206v14.382l-8.611-7.296 8.61-7.086zm-24.414.097l8.184 6.934-8.184 6.736v-13.67zm0 19.993l11.97-9.851 12.444 10.543v.902H45.38v-1.594zm-10.498-57h5.615v58.594h-5.615V68.527zm115.234 79.59H34.883v-16.113h115.234v16.113zm0-20.996h-10.498v-9.766h10.498v9.766zm0-14.648h-25.146v-9.766h25.146v9.766zm0-14.649h-10.498V88.06h10.498v9.765zm0-14.648h-25.146V73.41h25.146v9.766zm0-14.649h-10.498V58.03h10.498v10.498z" fill="url(#paint1_linear7)"/><path d="M127.412 137.619h-79.59a2.441 2.441 0 000 4.883h79.59a2.442 2.442 0 000-4.883z" fill="url(#paint2_linear7)"/><path fill="#fff" stroke="url(#paint3_linear7)" stroke-width="5" d="M69.5 165.5h45v45h-45z"/><path d="M101.87 177.24c-.384.896-1.168 2.432-2.352 4.608-1.28 2.304-2.32 4.32-3.12 6.048-.8 1.728-1.504 3.696-2.112 5.904a27.274 27.274 0 00-.864 6.912l.096 1.632c.096.832.144 1.584.144 2.256 0 .992-.304 1.824-.912 2.496-.608.672-1.472 1.008-2.592 1.008-1.152 0-2.032-.384-2.64-1.152-.576-.768-.864-1.792-.864-3.072 0-1.984.432-4 1.296-6.048.864-2.08 1.888-4 3.072-5.76 1.216-1.792 2.784-3.952 4.704-6.48.384-.544.8-1.104 1.248-1.68.448-.576.912-1.2 1.392-1.872H85.598c-.864 0-1.52.064-1.968.192-.416.128-.704.336-.864.624-.16.288-.288.736-.384 1.344h-1.008c0-3.84-.064-6.576-.192-8.208.704.16 3.088.24 7.152.24h13.536v1.008z" fill="url(#paint4_linear7)"/><defs><linearGradient id="paint0_linear7" x1="137.178" y1="137.619" x2="137.178" y2="142.502" gradientUnits="userSpaceOnUse"><stop stop-color="#F2C94C"/><stop offset="1" stop-color="#F29C4C"/></linearGradient><linearGradient id="paint1_linear7" x1="92.5" y1="28" x2="92.5" y2="153" gradientUnits="userSpaceOnUse"><stop stop-color="#F2C94C"/><stop offset="1" stop-color="#F29C4C"/></linearGradient><linearGradient id="paint2_linear7" x1="87.617" y1="137.619" x2="87.617" y2="142.502" gradientUnits="userSpaceOnUse"><stop stop-color="#F2C94C"/><stop offset="1" stop-color="#F29C4C"/></linearGradient><linearGradient id="paint3_linear7" x1="92" y1="163" x2="92" y2="213" gradientUnits="userSpaceOnUse"><stop stop-color="#F2C94C"/><stop offset="1" stop-color="#F29C4C"/></linearGradient><linearGradient id="paint4_linear7" x1="91" y1="149" x2="91" y2="213" gradientUnits="userSpaceOnUse"><stop stop-color="#F2C94C"/><stop offset="1" stop-color="#F29C4C"/></linearGradient></defs></svg>