<svg width="185" height="213" fill="none" xmlns="http://www.w3.org/2000/svg"><g filter="url(#filter0_d)"><rect x="10" y="8" width="165" height="165" rx="5" fill="#fff"/></g><g clip-path="url(#clip0)"><path d="M92.499 52.89a2.442 2.442 0 002.441-2.442V38.01a2.442 2.442 0 00-4.883 0v12.437a2.442 2.442 0 002.442 2.441z" fill="url(#paint0_linear)"/><path d="M74.144 56.9a2.439 2.439 0 003.367.763 2.442 2.442 0 00.763-3.367L71.77 43.975a2.441 2.441 0 10-4.13 2.603L74.144 56.9z" fill="url(#paint1_linear)"/><path d="M107.495 57.664a2.439 2.439 0 003.367-.765l6.498-10.321a2.442 2.442 0 00-4.132-2.602l-6.498 10.321a2.443 2.443 0 00.765 3.367z" fill="url(#paint2_linear)"/><path d="M154.213 93.047l-4.242-7.494a2.44 2.44 0 10-4.249 2.405l4.24 7.49c.213.377.158.74.106.923-.05.176-.187.5-.546.7l-6.538 3.62c-.581.321-1.339.119-1.655-.44l-1.661-2.938-.022-.038-17.17-30.37a1.19 1.19 0 01-.108-.912 1.14 1.14 0 01.544-.696l6.546-3.622c.588-.326 1.327-.128 1.649.442l3.826 6.76a2.443 2.443 0 004.25-2.404l-3.825-6.758c-1.632-2.892-5.338-3.93-8.263-2.313l-6.546 3.622a5.98 5.98 0 00-2.88 3.644 6.026 6.026 0 00.414 4.374l-3.606 1.044c-1.535.445-2.468.686-2.985.686h-.006c-.356-.001-.745-.137-1.853-.557-.503-.19-1.129-.428-1.899-.697l-6.388-2.233c-3.533-1.234-5.127-1.167-7.435-.957l-10.893.975c-4.965.44-8.131 1.56-9.879 3.503l-6.207-1.799a6.03 6.03 0 00.398-4.34 5.984 5.984 0 00-2.878-3.642l-6.542-3.623c-2.927-1.619-6.636-.58-8.268 2.31L30.794 93.043a6.04 6.04 0 00-.562 4.653 5.988 5.988 0 002.878 3.646l6.542 3.623a6.092 6.092 0 002.954.763c2.13 0 4.2-1.109 5.314-3.074l.691-1.222c1.886.83 3.47 2.036 4.55 3.465a8.143 8.143 0 00-1.905 4.405 8.148 8.148 0 001.739 6.043 8.15 8.15 0 005.463 3.017 8.13 8.13 0 001.748 5.984 8.18 8.18 0 005.46 3.019 8.142 8.142 0 001.742 5.979 8.136 8.136 0 005.465 3.023 8.137 8.137 0 001.748 5.988 8.195 8.195 0 006.416 3.075c1.8 0 3.612-.587 5.126-1.796l5.112-4.09a8.22 8.22 0 001.106-1.068l2.92 2.333a8.175 8.175 0 005.116 1.79 8.209 8.209 0 006.424-3.079 8.135 8.135 0 001.638-3.543 8.179 8.179 0 003.604.396 8.138 8.138 0 005.502-3.023 8.13 8.13 0 001.751-5.986 8.203 8.203 0 005.463-3.018 8.172 8.172 0 001.744-5.984 8.144 8.144 0 005.457-3.014 8.14 8.14 0 001.747-6.033 8.15 8.15 0 00-1.905-4.419c1.076-1.428 2.657-2.636 4.544-3.466l.693 1.225c1.112 1.965 3.182 3.072 5.313 3.072a6.1 6.1 0 002.956-.763l6.538-3.622a5.987 5.987 0 002.879-3.64 6.044 6.044 0 00-.552-4.655zM43.67 100.25c-.317.56-1.076.762-1.654.442l-6.541-3.623a1.148 1.148 0 01-.544-.697 1.198 1.198 0 01.11-.921l18.852-33.337a1.192 1.192 0 011.045-.597c.205 0 .414.05.607.157l6.54 3.622.002.002c.358.198.494.52.543.695.051.18.105.538-.11.916L43.67 100.25zm17.816 12.563a3.299 3.299 0 01-2.446.702 3.297 3.297 0 01-2.932-3.667 3.29 3.29 0 011.225-2.223l9.14-7.306a3.338 3.338 0 014.68.522c.552.689.801 1.557.701 2.442a3.28 3.28 0 01-1.22 2.218c-.016.012-.028.025-.043.038l-9.103 7.273-.002.001zm2.53 8.48a3.285 3.285 0 01-.701-2.437 3.308 3.308 0 011.221-2.23l.002-.001v-.001l13.166-10.518a3.335 3.335 0 014.681.522c.55.688.8 1.555.701 2.44a3.302 3.302 0 01-1.224 2.23L68.7 121.813a3.337 3.337 0 01-4.684-.52zm9.438 10.227a3.29 3.29 0 01-2.23-1.223 3.295 3.295 0 01-.702-2.44 3.301 3.301 0 011.223-2.229l.002-.001 9.11-7.278c.011-.009.023-.016.034-.024a3.335 3.335 0 014.677.518c.552.689.8 1.558.7 2.447a3.288 3.288 0 01-1.224 2.223l-9.14 7.306a3.317 3.317 0 01-2.45.701zm15.996 1.982a3.296 3.296 0 01-1.224 2.228l-5.112 4.091a3.337 3.337 0 01-4.683-.519 3.288 3.288 0 01-.701-2.439 3.293 3.293 0 011.22-2.227l.001-.001 5.111-4.086.009-.006a3.338 3.338 0 014.68.522 3.29 3.29 0 01.7 2.437zm38.74-21.207a3.298 3.298 0 01-2.232 1.22c-.888.1-1.757-.15-2.446-.702h-.001l-.001-.001-6.533-5.22a2.441 2.441 0 00-3.048 3.815l6.531 5.218c1.432 1.147 1.669 3.242.528 4.668a3.336 3.336 0 01-4.683.519l-7.087-5.655a2.442 2.442 0 00-3.045 3.816l7.083 5.652a3.308 3.308 0 011.223 2.232 3.295 3.295 0 01-.706 2.443 3.295 3.295 0 01-2.229 1.22c-.89.098-1.76-.15-2.448-.699l-3.526-2.82-.018-.015-2.979-2.381-.557-.446a2.44 2.44 0 10-3.05 3.813l3.546 2.835a3.33 3.33 0 01.516 4.663 3.337 3.337 0 01-4.68.523l-4.022-3.213a8.131 8.131 0 00-1.762-5.765 8.167 8.167 0 00-2.932-2.305 8.161 8.161 0 001.489-3.875 8.171 8.171 0 00-4.67-8.344 8.173 8.173 0 001.488-3.883 8.149 8.149 0 00-1.74-6.031c-2.35-2.937-6.323-3.83-9.63-2.426a8.142 8.142 0 00-1.603-3.36c-2.826-3.532-8.003-4.11-11.54-1.287l-6.538 5.225c-1.478-1.887-3.487-3.451-5.863-4.567l13.447-23.784 7.16 2.074c.032.383.094.786.198 1.213 1.733 7.126 8.294 10.446 17.123 8.667 7.439-1.497 10.501.733 16.601 5.175.632.46 1.29.94 1.978 1.432 4.387 3.147 9.074 6.846 12.217 9.353l7.925 6.334a3.289 3.289 0 011.22 2.227 3.292 3.292 0 01-.704 2.442zm-.076-10.568l-5.318-4.25c-3.187-2.542-7.94-6.292-12.419-9.506-.679-.486-1.326-.957-1.949-1.41-6.325-4.607-10.896-7.934-20.439-6.015-2.92.589-9.88 1.277-11.414-5.034-.217-.89.003-1.197.096-1.327.327-.456 1.64-1.563 6.78-2.018l10.903-.976c1.777-.162 2.669-.244 5.38.704l6.389 2.233c.71.248 1.278.463 1.779.653 3.077 1.165 3.892 1.165 7.933-.005l4.71-1.365 13.429 23.753c-2.377 1.115-4.384 2.678-5.86 4.563z" fill="url(#paint3_linear)"/><path d="M142.444 79.66a2.444 2.444 0 000-4.887 2.441 2.441 0 00-2.441 2.442v.007a2.439 2.439 0 002.441 2.438z" fill="url(#paint4_linear)"/></g><path fill="#fff" stroke="url(#paint5_linear)" stroke-width="5" d="M69.5 165.5h45v45h-45z"/><path d="M95.849 196.344c0 1.376.255 2.336.767 2.88.513.512 1.409.768 2.689.768V201c-3.457-.128-5.665-.192-6.625-.192-1.056 0-3.36.048-6.912.144l-1.344.048v-1.008c1.504 0 2.624-.288 3.36-.864.768-.576 1.152-1.6 1.152-3.072v-11.712c0-1.536-.144-2.656-.432-3.36-.255-.736-.704-1.216-1.344-1.44-.64-.256-1.615-.384-2.927-.384v-1.056c2.783-.064 5.072-.272 6.864-.624 1.791-.384 3.376-.992 4.752-1.824v20.688z" fill="url(#paint6_linear)"/><defs><linearGradient id="paint0_linear" x1="92.499" y1="35.57" x2="92.499" y2="52.889" gradientUnits="userSpaceOnUse"><stop stop-color="#F2C94C"/><stop offset="1" stop-color="#F29C4C"/></linearGradient><linearGradient id="paint1_linear" x1="72.957" y1="42.835" x2="72.957" y2="58.039" gradientUnits="userSpaceOnUse"><stop stop-color="#F2C94C"/><stop offset="1" stop-color="#F29C4C"/></linearGradient><linearGradient id="paint2_linear" x1="112.045" y1="42.835" x2="112.045" y2="58.04" gradientUnits="userSpaceOnUse"><stop stop-color="#F2C94C"/><stop offset="1" stop-color="#F29C4C"/></linearGradient><linearGradient id="paint3_linear" x1="92.5" y1="56.638" x2="92.5" y2="145.43" gradientUnits="userSpaceOnUse"><stop stop-color="#F2C94C"/><stop offset="1" stop-color="#F29C4C"/></linearGradient><linearGradient id="paint4_linear" x1="142.444" y1="74.773" x2="142.444" y2="79.66" gradientUnits="userSpaceOnUse"><stop stop-color="#F2C94C"/><stop offset="1" stop-color="#F29C4C"/></linearGradient><linearGradient id="paint5_linear" x1="92" y1="163" x2="92" y2="213" gradientUnits="userSpaceOnUse"><stop stop-color="#F2C94C"/><stop offset="1" stop-color="#F29C4C"/></linearGradient><linearGradient id="paint6_linear" x1="91.5" y1="149" x2="91.5" y2="213" gradientUnits="userSpaceOnUse"><stop stop-color="#F2C94C"/><stop offset="1" stop-color="#F29C4C"/></linearGradient><clipPath id="clip0"><path fill="#fff" transform="translate(30 28)" d="M0 0h125v125H0z"/></clipPath><filter id="filter0_d" x="0" y="0" width="185" height="185" filterUnits="userSpaceOnUse" color-interpolation-filters="sRGB"><feFlood flood-opacity="0" result="BackgroundImageFix"/><feColorMatrix in="SourceAlpha" values="0 0 0 0 0 0 0 0 0 0 0 0 0 0 0 0 0 0 127 0"/><feOffset dy="2"/><feGaussianBlur stdDeviation="5"/><feColorMatrix values="0 0 0 0 0 0 0 0 0 0 0 0 0 0 0 0 0 0 0.25 0"/><feBlend in2="BackgroundImageFix" result="effect1_dropShadow"/><feBlend in="SourceGraphic" in2="effect1_dropShadow" result="shape"/></filter></defs></svg>