<svg width="185" height="213" fill="none" xmlns="http://www.w3.org/2000/svg"><g filter="url(#filter0_d)"><rect x="10" y="8" width="165" height="165" rx="5" fill="#fff"/></g><g clip-path="url(#clip0)"><path d="M150.79 35.24v-5.41c0-1.011-.82-1.831-1.831-1.831h-24.575c-1.011 0-1.831.82-1.831 1.831v5.408a4.67 4.67 0 00-4.21 4.641v7.447a4.666 4.666 0 004.346 4.648v65.358c0 10.025-16.044 9.732-15.852-.317a4.667 4.667 0 003.992-4.61v-7.447a4.669 4.669 0 00-4.03-4.616V80.678a4.668 4.668 0 004.03-4.616v-7.447a4.67 4.67 0 00-4.169-4.637v-7.336C106.66 40.85 93.635 28 77.627 28H64.138c-6.272 0-12.292 1.873-17.408 5.417-1.933 1.339.15 4.351 2.085 3.01 4.5-3.117 9.8-4.765 15.323-4.765h13.489c13.99 0 25.371 11.206 25.371 24.98v7.31H81.825c.102-6.344-5.075-11.357-11.326-11.474-6.295-.117-11.85 4.72-11.85 11.189v65.037H37.476v-70.79c0-5.06 1.465-9.97 4.235-14.203 1.288-1.967-1.774-3.976-3.063-2.006a29.519 29.519 0 00-4.834 16.21v70.951A4.669 4.669 0 0030 133.449v7.447a4.669 4.669 0 004.089 4.625v5.641c0 1.011.82 1.831 1.83 1.831h24.575a1.83 1.83 0 001.831-1.831v-5.619a4.667 4.667 0 004.332-4.647v-7.448a4.667 4.667 0 00-4.346-4.648V63.667c0-10.038 16.057-9.725 15.852.339a4.667 4.667 0 00-3.992 4.61v7.447a4.67 4.67 0 003.654 4.55v19.796a4.67 4.67 0 00-3.654 4.55v7.447a4.67 4.67 0 004.169 4.637v7.315c0 15.793 13.024 28.642 29.033 28.642h13.489a30.67 30.67 0 0014.677-3.732c2.063-1.127.31-4.342-1.756-3.213a27.004 27.004 0 01-12.921 3.283h-13.489c-13.99 0-25.371-11.206-25.371-24.98v-7.287h21.173c-.097 6.334 5.089 11.335 11.325 11.451 6.296.117 11.851-4.72 11.851-11.189V51.992h21.173v71.093c0 6.044-2.027 11.724-5.862 16.426-1.486 1.822 1.349 4.138 2.838 2.314a29.737 29.737 0 006.686-18.74V51.91A4.67 4.67 0 00155 47.328V39.88a4.67 4.67 0 00-4.21-4.642zM44.965 141.897v-9.451h6.728v9.451h-6.728zm-11.303-1.002v-7.447c0-.553.45-1.002 1.002-1.002h6.638v9.451h-6.638c-.552 0-1.002-.45-1.002-1.002zm25.001 8.435H37.751v-3.725h20.912v3.725zm4.332-15.882v7.447c0 .552-.45 1.002-1.002 1.002h-6.638v-9.451h6.638c.553 0 1.002.449 1.002 1.002zm44.172-28.49v7.447c0 .553-.45 1.002-1.002 1.002l-6.639-.022v-9.397l6.639-.032c.552 0 1.002.45 1.002 1.002zM89.136 77.065v-9.451h6.728v9.45h-6.728zm14.001 3.818v19.412h-21.65V80.883h21.65zm-7.273 23.106v9.397h-6.728v-9.397h6.728zm8.965-36.376h1.336c.552 0 1.002.45 1.002 1.002v7.447c0 .553-.45 1.002-1.002 1.002h-6.639v-9.45h5.303zm-26.996 1.002c0-.552.45-1.002 1.002-1.002h6.639v9.451h-6.639a1.003 1.003 0 01-1.002-1.002v-7.447zm0 43.791v-7.446c0-.553.45-1.002 1.002-1.002l6.639.031v9.398l-6.639.022a1.004 1.004 0 01-1.002-1.003zm48.382-80.744h20.913v3.554h-20.913v-3.554zm13.82 7.216v9.452h-6.728v-9.452h6.728zm-17.028 9.452c-.553 0-1.002-.45-1.002-1.002V39.88c0-.553.449-1.002 1.002-1.002h6.638v9.45h-6.638zm28.331-1.002c0 .552-.45 1.002-1.002 1.002h-6.638v-9.452h6.638c.553 0 1.002.45 1.002 1.002v7.448z" fill="url(#paint0_linear8)"/></g><path fill="#fff" stroke="url(#paint1_linear8)" stroke-width="5" d="M69.5 165.5h45v45h-45z"/><path d="M94.703 180.84c1.984 1.696 3.472 3.04 4.464 4.032 1.024.96 1.92 2.112 2.688 3.456a8.309 8.309 0 011.152 4.272c0 1.76-.512 3.328-1.536 4.704-.992 1.376-2.384 2.448-4.176 3.216-1.792.768-3.808 1.152-6.048 1.152-2.016 0-3.872-.304-5.568-.912-1.696-.64-3.056-1.584-4.08-2.832-.992-1.248-1.488-2.736-1.488-4.464 0-2.08.704-3.888 2.112-5.424 1.408-1.536 3.312-2.832 5.712-3.888-1.984-1.696-3.52-3.296-4.608-4.8-1.088-1.536-1.632-3.264-1.632-5.184 0-1.664.464-3.088 1.392-4.272.928-1.184 2.16-2.064 3.696-2.64 1.536-.608 3.232-.912 5.088-.912 2.752 0 5.008.624 6.768 1.872 1.76 1.216 2.64 2.832 2.64 4.848 0 1.568-.56 2.976-1.68 4.224-1.088 1.216-2.72 2.4-4.896 3.552zm-3.216-13.632c-1.056 0-1.904.368-2.544 1.104-.608.704-.912 1.664-.912 2.88 0 1.6.496 3.088 1.488 4.464 1.024 1.376 2.496 2.896 4.416 4.56.608-.864 1.056-1.904 1.344-3.12.288-1.248.432-2.464.432-3.648 0-1.952-.384-3.472-1.152-4.56-.736-1.12-1.76-1.68-3.072-1.68zm0 33.6c1.504 0 2.688-.464 3.552-1.392.864-.96 1.296-2.224 1.296-3.792 0-1.44-.352-2.768-1.056-3.984a14.651 14.651 0 00-2.496-3.216c-.96-.928-2.336-2.144-4.128-3.648-1.728 1.824-2.592 4.432-2.592 7.824 0 2.432.416 4.416 1.248 5.952.864 1.504 2.256 2.256 4.176 2.256z" fill="url(#paint2_linear8)"/><defs><linearGradient id="paint0_linear8" x1="92.5" y1="28" x2="92.5" y2="153" gradientUnits="userSpaceOnUse"><stop stop-color="#F2C94C"/><stop offset="1" stop-color="#F29C4C"/></linearGradient><linearGradient id="paint1_linear8" x1="92" y1="163" x2="92" y2="213" gradientUnits="userSpaceOnUse"><stop stop-color="#F2C94C"/><stop offset="1" stop-color="#F29C4C"/></linearGradient><linearGradient id="paint2_linear8" x1="91.5" y1="149" x2="91.5" y2="213" gradientUnits="userSpaceOnUse"><stop stop-color="#F2C94C"/><stop offset="1" stop-color="#F29C4C"/></linearGradient><clipPath id="clip0"><path fill="#fff" transform="translate(30 28)" d="M0 0h125v125H0z"/></clipPath></defs></svg>