<svg width="185" height="213" fill="none" xmlns="http://www.w3.org/2000/svg"><g filter="url(#filter0_d)"><rect x="10" y="8" width="165" height="165" rx="5" fill="#fff"/></g><g clip-path="url(#clip0)"><path d="M39.619 121.606a2.094 2.094 0 002.27-.447l33.95-33.59 33.938 33.59c.594.59 1.49.767 2.271.447a2.064 2.064 0 001.285-1.905V92.903a2.073 2.073 0 00-2.083-2.061c-1.15 0-2.083.923-2.083 2.061v21.82L77.319 83.2c-.781-.773-2.177-.773-2.958 0L42.5 114.725V90.842h10.416c1.15 0 2.083-.924 2.083-2.062v-2.06h4.167v2.06c0 1.138.933 2.062 2.083 2.062 1.15 0 2.084-.924 2.084-2.062v-4.123a2.073 2.073 0 00-2.084-2.06h-8.333c-1.15 0-2.084.923-2.084 2.06v2.062H40.418c-1.15 0-2.084.923-2.084 2.061v30.921c0 .833.509 1.586 1.286 1.905z" fill="url(#paint0_linear10)"/><path d="M88.54 72.275a91.94 91.94 0 00-.207 6.199c0 10.325 3.115 16.491 8.334 16.491 6.579 0 8.333-7.773 8.333-12.368a2.074 2.074 0 00-2.084-2.062 2.074 2.074 0 00-2.083 2.062c0 .082-.179 8.245-4.166 8.245-2.415 0-4.167-5.2-4.167-12.368 0-24.034 8.525-26.772 8.793-26.848a2.064 2.064 0 001.582-2.416 2.075 2.075 0 00-2.45-1.616c-.417.082-1.927.474-3.744 2.014.002-.355.031-.71.127-1.062a4.096 4.096 0 011.942-2.502 4.18 4.18 0 013.16-.413 4.136 4.136 0 012.529 1.922 4.102 4.102 0 01-1.523 5.631 2.052 2.052 0 00-.762 2.818 2.087 2.087 0 001.806 1.029c.354 0 .713-.089 1.04-.276 3.979-2.276 5.346-7.329 3.05-11.264a8.277 8.277 0 00-5.061-3.842 8.348 8.348 0 00-6.323.824 8.21 8.21 0 00-3.883 5.007c-.54 1.992-.283 4.06.696 5.941-1.788 2.878-3.458 7.164-4.388 13.538-3.118-3.697-4.924-8.405-4.924-13.222 0-11.367 9.345-20.614 20.833-20.614 11.487 0 20.833 9.247 20.833 20.614 0 11.366-9.346 20.614-20.833 20.614a21.04 21.04 0 01-6.61-1.058c-1.088-.359-2.271.223-2.636 1.3a2.053 2.053 0 001.315 2.609A25.22 25.22 0 00105 78.473c13.785 0 25-11.096 25-24.736S118.785 29 105 29 80 40.097 80 53.737c0 7.03 3.19 13.86 8.54 18.538z" fill="url(#paint1_linear10)"/><path d="M154.39 89.385l-21.638-21.41a2.1 2.1 0 00-2.945 0 2.047 2.047 0 000 2.915l21.027 20.806v7.392h-7.471l-.863-.853v-5.33a2.073 2.073 0 00-2.083-2.062h-2.083V88.78a2.074 2.074 0 00-2.084-2.06h-5.385l-.865-.856v-5.329a2.073 2.073 0 00-2.083-2.061h-5.387l-.203-.2a2.1 2.1 0 00-2.945 0 2.047 2.047 0 000 2.914l.812.804c.39.388.921.604 1.473.604h4.167v4.121c0 .546.218 1.07.608 1.456l2.083 2.065c.392.387.921.604 1.475.604h4.167v2.061c0 1.138.934 2.062 2.083 2.062h2.084v4.122c0 .547.218 1.072.61 1.458l2.083 2.061c.39.388.921.604 1.473.604h10.417c1.15 0 2.083-.924 2.083-2.061V90.843c0-.547-.218-1.072-.61-1.458z" fill="url(#paint2_linear10)"/><path d="M82.083 119.702c-1.15 0-2.083.924-2.083 2.061v16.492c0 1.138.933 2.061 2.083 2.061h12.5c1.15 0 2.084-.923 2.084-2.061v-16.492a2.073 2.073 0 00-2.084-2.061h-12.5zM92.5 136.193h-8.333v-12.368H92.5v12.368z" fill="url(#paint3_linear10)"/><path d="M152.917 148.561H130v-8.454c4.748-.958 8.333-5.12 8.333-10.098 0-.268-.118-26.799-10.416-26.799S117.5 129.741 117.5 130.009c0 4.978 3.585 9.14 8.333 10.098v8.454h-16.667v-23.706a2.073 2.073 0 00-2.083-2.061c-1.15 0-2.083.923-2.083 2.061v23.706H75.833v-26.798a2.073 2.073 0 00-2.083-2.061H57.083c-1.15 0-2.083.923-2.083 2.061v26.798h-8.333v-23.706a2.073 2.073 0 00-2.084-2.061c-1.15 0-2.083.923-2.083 2.061v23.706H32.083c-1.15 0-2.083.924-2.083 2.062 0 1.137.933 2.061 2.083 2.061h120.834a2.073 2.073 0 002.083-2.061 2.073 2.073 0 00-2.083-2.062zm-81.25-14.43h-2.084c-1.15 0-2.083.924-2.083 2.062s.934 2.061 2.084 2.061h2.083v10.307h-12.5v-24.737h12.5v10.307zm50-4.122c0-10.27 2.787-22.676 6.25-22.676 3.462 0 6.25 12.406 6.25 22.676 0 3.409-2.804 6.184-6.25 6.184s-6.25-2.775-6.25-6.184z" fill="url(#paint4_linear10)"/></g><path fill="#fff" stroke="url(#paint5_linear10)" stroke-width="5" d="M69.5 165.5h45v45h-45z"/><path d="M82.001 195.023c0 1.175.22 1.995.656 2.46.438.437 1.203.656 2.297.656V199c-2.953-.109-4.838-.164-5.658-.164-.903 0-2.87.041-5.905.123l-1.148.041v-.861c1.285 0 2.242-.246 2.87-.738.656-.492.984-1.367.984-2.624v-10.004c0-1.312-.122-2.269-.368-2.87-.22-.629-.602-1.039-1.148-1.23-.547-.219-1.38-.328-2.502-.328v-.902c2.379-.055 4.333-.232 5.864-.533 1.53-.328 2.883-.847 4.058-1.558v17.671zm17.582-17.794c2.159 0 4.086.451 5.781 1.353 1.694.902 3.006 2.173 3.936 3.813.956 1.64 1.435 3.526 1.435 5.658 0 2.187-.492 4.155-1.476 5.904-.957 1.749-2.324 3.13-4.1 4.141-1.75.984-3.759 1.476-6.027 1.476-2.132 0-4.046-.451-5.74-1.353a9.892 9.892 0 01-3.977-3.813c-.957-1.64-1.435-3.54-1.435-5.699s.478-4.114 1.435-5.863a10.559 10.559 0 014.1-4.1c1.75-1.011 3.772-1.517 6.068-1.517zm-.37.738c-.983 0-1.858.424-2.623 1.271-.766.847-1.367 2.077-1.804 3.69-.41 1.585-.615 3.471-.615 5.658 0 3.471.492 6.054 1.476 7.749 1.011 1.667 2.296 2.501 3.854 2.501.984 0 1.845-.424 2.583-1.271.765-.875 1.366-2.105 1.804-3.69.437-1.613.656-3.512.656-5.699 0-3.471-.506-6.041-1.517-7.708-.984-1.667-2.255-2.501-3.813-2.501z" fill="url(#paint6_linear10)"/><defs><linearGradient id="paint0_linear10" x1="75.833" y1="82.596" x2="75.833" y2="121.763" gradientUnits="userSpaceOnUse"><stop stop-color="#F2C94C"/><stop offset="1" stop-color="#F29C4C"/></linearGradient><linearGradient id="paint1_linear10" x1="105" y1="29" x2="105" y2="94.965" gradientUnits="userSpaceOnUse"><stop stop-color="#F2C94C"/><stop offset="1" stop-color="#F29C4C"/></linearGradient><linearGradient id="paint2_linear10" x1="136.886" y1="67.373" x2="136.886" y2="103.211" gradientUnits="userSpaceOnUse"><stop stop-color="#F2C94C"/><stop offset="1" stop-color="#F29C4C"/></linearGradient><linearGradient id="paint3_linea10" x1="88.333" y1="119.702" x2="88.333" y2="140.316" gradientUnits="userSpaceOnUse"><stop stop-color="#F2C94C"/><stop offset="1" stop-color="#F29C4C"/></linearGradient><linearGradient id="paint4_linear10" x1="92.5" y1="103.21" x2="92.5" y2="152.684" gradientUnits="userSpaceOnUse"><stop stop-color="#F2C94C"/><stop offset="1" stop-color="#F29C4C"/></linearGradient><linearGradient id="paint5_linear10" x1="92" y1="163" x2="92" y2="213" gradientUnits="userSpaceOnUse"><stop stop-color="#F2C94C"/><stop offset="1" stop-color="#F29C4C"/></linearGradient><linearGradient id="paint6_linear10" x1="91.5" y1="154" x2="91.5" y2="209" gradientUnits="userSpaceOnUse"><stop stop-color="#F2C94C"/><stop offset="1" stop-color="#F29C4C"/></linearGradient><clipPath id="clip0"><path fill="#fff" transform="translate(30 29)" d="M0 0h125v123.684H0z"/></clipPath></defs></svg>