<svg width="185" height="213" fill="none" xmlns="http://www.w3.org/2000/svg"><g filter="url(#filter0_d)"><rect x="10" y="8" width="165" height="165" rx="5" fill="#fff"/></g><g clip-path="url(#clip0)"><path d="M152.721 136.138h-2.083v-14.583a2.084 2.084 0 00-2.084-2.084h-6.25v-10.416a2.083 2.083 0 00-2.083-2.084h-6.251V96.554c0-1.15-.932-2.083-2.083-2.083h-14.583V29.888a2.083 2.083 0 10-4.167 0v35.417h-4.167V29.888a2.083 2.083 0 10-4.167 0v35.417h-4.166V29.888a2.083 2.083 0 10-4.167 0v106.25H63.138V29.888a2.084 2.084 0 00-4.167 0v35.417h-4.167V29.888a2.083 2.083 0 10-4.166 0v35.417H46.47V29.888a2.083 2.083 0 10-4.166 0v106.25H31.888a2.083 2.083 0 00-2.083 2.083v12.501c0 1.15.932 2.083 2.083 2.083h120.834c1.15 0 2.083-.933 2.083-2.083v-12.501c0-1.15-.933-2.083-2.084-2.083zm-6.25 0h-29.167v-12.5h29.167v12.5zm-8.333-16.667h-20.834v-8.333h20.834v8.333zm-8.333-20.834v8.334h-12.501v-8.334h12.501zm-29.167-29.165h12.5v66.666h-12.5V69.472zm-54.167 0h12.5v66.666h-12.5V69.472zm104.167 79.166H33.971v-8.333h116.667v8.333z" fill="url(#paint0_linear5)"/></g><path fill="#fff" stroke="url(#paint1_linear5)" stroke-width="5" d="M69.5 165.5h45v45h-45z"/><path d="M98.964 174.36c0 3.744.064 6.432.192 8.064-.672-.16-2.896-.24-6.672-.24h-7.392l-.768 8.208c1.856-1.28 4.272-1.92 7.248-1.92 3.072 0 5.392.704 6.96 2.112 1.6 1.408 2.4 3.232 2.4 5.472 0 2.368-.928 4.464-2.784 6.288-1.856 1.856-4.256 3.28-7.2 4.272a27.795 27.795 0 01-9.024 1.488v-.864a13.817 13.817 0 005.76-1.344 10.456 10.456 0 004.416-3.744c1.12-1.632 1.68-3.568 1.68-5.808 0-2.016-.48-3.552-1.44-4.608-.928-1.088-2.288-1.632-4.08-1.632-.864 0-1.632.112-2.304.336-.672.224-1.344.576-2.016 1.056l-.672-.432 1.536-15.024c.64.128 1.504.192 2.592.192h7.92c.928 0 1.568-.128 1.92-.384.384-.288.624-.784.72-1.488h1.008z" fill="url(#paint2_linear5)"/><defs><linearGradient id="paint0_linear5" x1="92.305" y1="27.805" x2="92.305" y2="152.805" gradientUnits="userSpaceOnUse"><stop stop-color="#F2C94C"/><stop offset="1" stop-color="#F29C4C"/></linearGradient><linearGradient id="paint1_linear5" x1="92" y1="163" x2="92" y2="213" gradientUnits="userSpaceOnUse"><stop stop-color="#F2C94C"/><stop offset="1" stop-color="#F29C4C"/></linearGradient><linearGradient id="paint2_linear5" x1="91.5" y1="149" x2="91.5" y2="213" gradientUnits="userSpaceOnUse"><stop stop-color="#F2C94C"/><stop offset="1" stop-color="#F29C4C"/></linearGradient><clipPath id="clip0"><path fill="#fff" transform="translate(30 28)" d="M0 0h125v125H0z"/></clipPath></defs></svg>