<svg width="185" height="213" fill="none" xmlns="http://www.w3.org/2000/svg"><g filter="url(#filter0_d)"><rect x="10" y="8" width="165" height="165" rx="5" fill="#fff"/></g><g clip-path="url(#clip0)"><path d="M121.1 32.913L48.971 28.09a4.278 4.278 0 00-4.548 3.978l-.564 8.437h-9.587A4.277 4.277 0 0030 44.776V148.65a4.278 4.278 0 004.273 4.272h55.21a1.85 1.85 0 001.292-.533l8.334-8.298c.085.018.171.032.26.038l14.229.952c2.271.15 4.396-1.697 4.548-3.978l6.932-103.641c.156-2.326-1.652-4.393-3.978-4.549zM91.314 146.66v-12.72c0-.336.274-.61.61-.61h12.671l-13.281 13.33zm23.178-5.8c-.059.369-.276.558-.649.568l-11.299-.756 7.752-7.717c.345-.344.539-.811.539-1.298v-86.88a4.277 4.277 0 00-4.272-4.272H87.522c-2.368 0-2.368 3.662 0 3.662h19.041c.336 0 .61.274.61.61v84.891H91.924a4.278 4.278 0 00-4.272 4.272v15.321h-53.38a.611.611 0 01-.61-.61V44.776c0-.336.274-.61.61-.61H77.77c2.368 0 2.368-3.662 0-3.662H47.53l.547-8.192c.06-.37.276-.559.65-.569l72.129 4.825c.369.06.558.276.568.65l-6.932 103.641z" fill="url(#paint0_linear)"/><path d="M95.388 85.873h-49.94a1.831 1.831 0 000 3.662h49.94a1.831 1.831 0 000-3.662z" fill="url(#paint1_linear)"/><path d="M95.388 98.638h-49.94a1.831 1.831 0 000 3.662h49.94a1.831 1.831 0 000-3.662z" fill="url(#paint2_linear)"/><path d="M43.617 74.939c0 1.011.82 1.831 1.83 1.831h49.94a1.83 1.83 0 100-3.662h-49.94c-1.01 0-1.83.82-1.83 1.831z" fill="url(#paint3_linear)"/><path d="M52.414 62.174c0 1.011.82 1.831 1.831 1.831h32.346a1.831 1.831 0 000-3.662H54.245c-1.011 0-1.831.82-1.831 1.831z" fill="url(#paint4_linear)"/><path d="M77.547 135.126c-3.293.008-6.586.015-9.88.021-1.106.001-2.213.003-3.32.003-2.005.002-3.356-.401-3.806-2.607-.38-1.865-3.018-1.614-3.53 0-1.268 3.989-3.364 2.426-4.538-.257-1.17-2.676-1.47-5.672-1.982-8.52-.376-2.093-3.542-1.507-3.597.487-.073 2.624-.318 5.207-.984 7.753-.688 2.626-1.717 5.151-2.74 7.66-.891 2.188 2.653 3.129 3.531.974.906-2.224 1.813-4.46 2.489-6.766 1.255 3.017 3.85 6.43 7.55 4.419.689-.374 1.331-.906 1.896-1.527 1.923 2.223 4.787 2.048 7.466 2.045 3.816-.005 7.63-.013 11.446-.023 2.356-.006 2.36-3.669 0-3.662z" fill="url(#paint5_linear)"/><path d="M153.519 88.166c-.952-.947-2.26-1.432-3.588-1.468l-1.384.007v-2.617c0-1.594-.947-3.278-2.303-4.117v-3.686c0-7.585-11.809-7.552-11.809.036v3.686a4.839 4.839 0 00-2.309 4.114v2.681c-6.095.415-6.112 9.704.007 10.067.039 8.197.037 16.26-.007 24.594-.012 2.298 3.65 2.433 3.662.019.044-8.341.046-16.411.008-24.615l9.084-.045s-.011 27.063-.011 39.254c0 5.942-9.087 5.981-9.087-.062l.003-3.339c.143-2.363-3.512-2.584-3.656-.221v3.134c0 2.685.831 4.96 2.439 6.559a15.31 15.31 0 004.485 10.244c.782.776 1.865.539 2.623-.045a15.098 15.098 0 004.435-10.355c1.209-1.204 2.419-2.416 2.419-6.566l.002-16.687c3.166.9 6.468-1.55 6.468-4.87V91.731a4.996 4.996 0 00-1.481-3.565zm-17.731-1.398V84.12c0-.542.372-.996.873-1.131l7.33-.036a1.154 1.154 0 01.894 1.134v2.635l-9.097.045zm4.559-12.695c1.124 0 2.235 1.102 2.235 2.212v2.97l-4.485.022v-2.956a2.26 2.26 0 012.25-2.248zm-.003 74.194a11.689 11.689 0 01-1.811-4.005 8.153 8.153 0 001.716.186c.641 0 1.282-.079 1.914-.233a11.432 11.432 0 01-1.819 4.052zm10.994-34.399c0 1.734-2.796 1.87-2.796.032 0 0 .003-17.328.005-18.916.001-1.024-.85-1.833-1.845-1.833l-14.255.07c-1.768 0-1.727-2.766.018-2.775l17.484-.086c.846.072 1.308.53 1.389 1.371v22.137z" fill="url(#paint6_linear)"/></g><path fill="#fff" stroke="url(#paint7_linear)" stroke-width="5" d="M69.5 165.5h45v45h-45z"/><path d="M91.09 175.512c2.4 0 4.367.496 5.903 1.488 1.536.992 2.304 2.336 2.304 4.032 0 1.824-.88 3.456-2.64 4.896-1.76 1.44-4.128 2.448-7.104 3.024 3.36-.128 6.112.464 8.256 1.776 2.144 1.28 3.216 3.12 3.216 5.52 0 2.336-1.008 4.416-3.024 6.24-2.016 1.856-4.608 3.28-7.776 4.272a31.496 31.496 0 01-9.552 1.488v-.96c2.112-.064 4.176-.544 6.192-1.44 2.048-.864 3.728-2.112 5.04-3.744 1.312-1.632 1.968-3.568 1.968-5.808 0-1.888-.464-3.44-1.392-4.656-.896-1.216-2.112-1.888-3.648-2.016-.448.224-.896.416-1.344.576a3.815 3.815 0 01-1.104.192c-.608 0-.912-.224-.912-.672 0-.352.144-.608.432-.768.288-.192.656-.288 1.104-.288.192 0 .448.032.768.096.352.032.656.064.912.096 2.464-1.728 3.696-3.872 3.696-6.432 0-1.44-.368-2.496-1.104-3.168-.736-.704-1.792-1.056-3.168-1.056-1.28 0-2.464.32-3.552.96-1.056.64-1.952 1.568-2.688 2.784l-.864-.432c.992-1.824 2.272-3.28 3.84-4.368 1.6-1.088 3.68-1.632 6.24-1.632z" fill="url(#paint8_linear)"/><defs><linearGradient id="paint0_linear" x1="77.544" y1="28.08" x2="77.544" y2="152.922" gradientUnits="userSpaceOnUse"><stop stop-color="#F2C94C"/><stop offset="1" stop-color="#F29C4C"/></linearGradient><linearGradient id="paint1_linear" x1="70.418" y1="85.873" x2="70.418" y2="89.535" gradientUnits="userSpaceOnUse"><stop stop-color="#F2C94C"/><stop offset="1" stop-color="#F29C4C"/></linearGradient><linearGradient id="paint2_linear" x1="70.418" y1="98.638" x2="70.418" y2="102.3" gradientUnits="userSpaceOnUse"><stop stop-color="#F2C94C"/><stop offset="1" stop-color="#F29C4C"/></linearGradient><linearGradient id="paint3_linear" x1="70.418" y1="73.108" x2="70.418" y2="76.77" gradientUnits="userSpaceOnUse"><stop stop-color="#F2C94C"/><stop offset="1" stop-color="#F29C4C"/></linearGradient><linearGradient id="paint4_linear" x1="70.418" y1="60.343" x2="70.418" y2="64.005" gradientUnits="userSpaceOnUse"><stop stop-color="#F2C94C"/><stop offset="1" stop-color="#F29C4C"/></linearGradient><linearGradient id="paint5_linear" x1="61.172" y1="122.451" x2="61.172" y2="141.858" gradientUnits="userSpaceOnUse"><stop stop-color="#F2C94C"/><stop offset="1" stop-color="#F29C4C"/></linearGradient><linearGradient id="paint6_linear" x1="141.275" y1="70.613" x2="141.275" y2="152.884" gradientUnits="userSpaceOnUse"><stop stop-color="#F2C94C"/><stop offset="1" stop-color="#F29C4C"/></linearGradient><linearGradient id="paint7_linear" x1="92" y1="163" x2="92" y2="213" gradientUnits="userSpaceOnUse"><stop stop-color="#F2C94C"/><stop offset="1" stop-color="#F29C4C"/></linearGradient><linearGradient id="paint8_linear" x1="91" y1="149" x2="91" y2="213" gradientUnits="userSpaceOnUse"><stop stop-color="#F2C94C"/><stop offset="1" stop-color="#F29C4C"/></linearGradient><clipPath id="clip0"><path fill="#fff" transform="translate(30 28)" d="M0 0h125v125H0z"/></clipPath></defs></svg>