<svg width="185" height="213" fill="none" xmlns="http://www.w3.org/2000/svg"><g filter="url(#filter0_d)"><rect x="10" y="8" width="165" height="165" rx="5" fill="#fff"/></g><path d="M43.672 114.033h78.125c.518 0 1.015-.204 1.381-.566a1.922 1.922 0 000-2.733 1.96 1.96 0 00-1.381-.566H43.672a5.892 5.892 0 01-4.143-1.698 5.768 5.768 0 01-1.717-4.1c0-1.537.618-3.012 1.717-4.099a5.89 5.89 0 014.143-1.698h7.812c.518 0 1.015-.204 1.381-.567.367-.362.572-.853.572-1.366V85.044c0-.512-.205-1.004-.572-1.366a1.964 1.964 0 00-2.762 0 1.922 1.922 0 00-.572 1.367v9.662h-5.86a9.795 9.795 0 00-5.858 1.933V42.528c0-1.538.617-3.012 1.716-4.1a5.891 5.891 0 014.143-1.698h5.86v40.584c0 .513.205 1.004.571 1.367a1.964 1.964 0 002.762 0 1.92 1.92 0 00.572-1.367V44.461h72.266c.518 0 1.015-.204 1.381-.566.366-.363.572-.854.572-1.367 0-.512-.206-1.004-.572-1.367a1.963 1.963 0 00-1.381-.566H53.437v-5.797a1.92 1.92 0 00-.572-1.367 1.963 1.963 0 00-1.38-.566h-7.813A9.83 9.83 0 0036.77 35.7a9.624 9.624 0 00-2.864 6.83v61.841a9.622 9.622 0 002.864 6.829 9.828 9.828 0 006.902 2.834z" fill="url(#paint0_linear)"/><path d="M141.328 32.865h-7.812c-.518 0-1.015.204-1.381.566a1.92 1.92 0 00-.573 1.367V96.64c0 .513.206 1.004.573 1.366.366.363.863.567 1.381.567h7.812a5.89 5.89 0 014.143 1.698 5.766 5.766 0 011.717 4.099 5.769 5.769 0 01-1.717 4.1 5.892 5.892 0 01-4.143 1.698h-11.719c-.518 0-1.014.203-1.381.566a1.922 1.922 0 000 2.733c.367.362.863.566 1.381.566h11.719a9.829 9.829 0 006.902-2.834 9.62 9.62 0 002.864-6.829V42.528a9.622 9.622 0 00-2.864-6.83 9.831 9.831 0 00-6.902-2.833zm0 61.842h-5.859V36.73h5.859a5.89 5.89 0 014.143 1.699 5.767 5.767 0 011.717 4.1v54.11a9.797 9.797 0 00-5.86-1.932z" fill="url(#paint1_linear)"/><path d="M108.125 65.72a1.928 1.928 0 00-.732-1.51L87.861 48.75a1.966 1.966 0 00-2.44 0l-19.53 15.46c-.026.021-.035.054-.059.075-.18.2-.344.413-.49.638-.12.249-.183.52-.186.796V88.91c0 .513.206 1.004.572 1.367.367.362.863.566 1.381.566h39.063c.518 0 1.015-.204 1.381-.567a1.92 1.92 0 00.572-1.366V65.72zm-31.25 21.257v-7.73h3.906v7.73h-3.906zm27.344 0H84.688v-9.662c0-.513-.206-1.004-.573-1.367a1.963 1.963 0 00-1.38-.566h-7.813c-.518 0-1.015.204-1.381.566a1.922 1.922 0 00-.572 1.367v9.662h-3.906V67.652h25.39c.518 0 1.015-.204 1.381-.566a1.922 1.922 0 000-2.733 1.964 1.964 0 00-1.38-.566H72.677L86.64 52.734l17.578 13.915v20.328z" fill="url(#paint2_linear)"/><path d="M88.594 73.45v7.73c0 .512.206 1.003.572 1.366.366.362.863.566 1.38.566h7.813c.518 0 1.015-.204 1.381-.566a1.92 1.92 0 00.572-1.367v-7.73a1.92 1.92 0 00-.572-1.366 1.963 1.963 0 00-1.38-.566h-7.813a1.96 1.96 0 00-1.381.566 1.922 1.922 0 00-.572 1.366zm3.906 1.932h3.906v3.865H92.5v-3.865z" fill="url(#paint3_linear)"/><path d="M113.984 86.977c-.518 0-1.014.204-1.381.566a1.924 1.924 0 00-.572 1.367c0 .512.206 1.004.572 1.366.367.362.863.566 1.381.566h7.813c.518 0 1.015-.204 1.381-.566a1.922 1.922 0 000-2.733 1.963 1.963 0 00-1.381-.566h-1.953V52.191h1.953c.518 0 1.015-.204 1.381-.566a1.922 1.922 0 000-2.733 1.963 1.963 0 00-1.381-.566h-7.813c-.518 0-1.014.203-1.381.566a1.923 1.923 0 00-.572 1.366c0 .513.206 1.004.572 1.367.367.362.863.566 1.381.566h1.954v34.786h-1.954z" fill="url(#paint4_linear)"/><path d="M106.172 106.302a1.96 1.96 0 001.381-.566c.366-.362.572-.854.572-1.366v-7.73c0-.513-.206-1.005-.572-1.367a1.963 1.963 0 00-1.381-.566c-.518 0-1.015.204-1.381.566a1.923 1.923 0 00-.572 1.367v1.932H69.063V96.64a1.92 1.92 0 00-.573-1.367 1.964 1.964 0 00-2.762 0 1.922 1.922 0 00-.572 1.367v7.73c0 .512.206 1.004.572 1.366.367.363.863.566 1.381.566a1.96 1.96 0 001.381-.566 1.92 1.92 0 00.573-1.366v-1.933h35.156v1.933c0 .512.206 1.004.572 1.366a1.96 1.96 0 001.381.566z" fill="url(#paint5_linear)"/><path d="M125.703 104.37c.518 0 1.015-.204 1.381-.566.366-.363.572-.854.572-1.367v-2.898c0-.898-.252-1.777-.729-2.54a4.867 4.867 0 00-1.97-1.782 4.927 4.927 0 00-5.113.456 4.928 4.928 0 00-5.114-.456 4.867 4.867 0 00-1.97 1.781 4.8 4.8 0 00-.729 2.54v2.899c0 .513.206 1.004.572 1.367a1.967 1.967 0 002.762 0c.367-.363.573-.854.573-1.367v-2.898c0-.257.102-.503.286-.684a.98.98 0 011.667.683c0 .513.205 1.005.572 1.367a1.965 1.965 0 002.762 0c.366-.362.572-.854.572-1.367 0-.256.103-.502.286-.683a.98.98 0 011.667.683v2.899c0 .513.206 1.004.572 1.367.366.362.863.566 1.381.566z" fill="url(#paint6_linear)"/><path d="M133.516 117.898h-33.204c-.518 0-1.014.204-1.38.566a1.922 1.922 0 000 2.733c.366.362.862.566 1.38.566h19.532v3.865h-37.11v-3.865H92.5a1.96 1.96 0 001.38-.566 1.921 1.921 0 000-2.733 1.965 1.965 0 00-1.38-.566H80.78c-.187 0-.373.027-.553.079l-11.718 3.421a1.956 1.956 0 00-.999.668 1.922 1.922 0 00-.08 2.268c.23.338.563.596.95.736l11.719 4.311c.218.077.449.115.681.112h52.735c1.554 0 3.044-.61 4.143-1.698a5.765 5.765 0 001.716-4.099 5.766 5.766 0 00-1.716-4.1 5.892 5.892 0 00-4.143-1.698zm-9.766 3.865h3.906v3.865h-3.906v-3.865zm-44.922.653v2.364l-3.586-1.318 3.586-1.046zm54.688 3.212h-1.954v-3.865h1.954c.518 0 1.014.204 1.381.566a1.922 1.922 0 010 2.733 1.962 1.962 0 01-1.381.566z" fill="url(#paint7_linear)"/><path d="M137.422 133.359H35.859c-.518 0-1.014.203-1.38.566a1.921 1.921 0 00-.573 1.366v11.596c0 .512.206 1.004.572 1.366.367.363.863.566 1.381.566h23.438a1.96 1.96 0 001.38-.566 1.921 1.921 0 000-2.733 1.965 1.965 0 00-1.38-.566H37.813v-7.73h3.906v1.933c0 .512.206 1.004.572 1.366a1.96 1.96 0 001.38.566 1.96 1.96 0 001.382-.566c.366-.362.572-.854.572-1.366v-1.933h3.906v1.933c0 .512.206 1.004.572 1.366.367.363.863.566 1.381.566a1.96 1.96 0 001.381-.566c.367-.362.572-.854.572-1.366v-1.933h3.907v1.933c0 .512.206 1.004.572 1.366a1.96 1.96 0 001.38.566 1.96 1.96 0 001.382-.566c.366-.362.572-.854.572-1.366v-1.933h3.906v1.933c0 .512.206 1.004.572 1.366.367.363.863.566 1.381.566a1.96 1.96 0 001.381-.566 1.92 1.92 0 00.573-1.366v-1.933h3.906v1.933c0 .512.206 1.004.572 1.366a1.96 1.96 0 001.38.566 1.96 1.96 0 001.382-.566c.366-.362.572-.854.572-1.366v-1.933h3.906v1.933c0 .512.206 1.004.572 1.366.367.363.863.566 1.381.566a1.96 1.96 0 001.381-.566 1.92 1.92 0 00.573-1.366v-1.933h3.906v1.933c0 .512.206 1.004.572 1.366a1.96 1.96 0 001.38.566 1.96 1.96 0 001.382-.566c.366-.362.572-.854.572-1.366v-1.933h3.906v1.933c0 .512.206 1.004.572 1.366.367.363.863.566 1.381.566a1.96 1.96 0 001.381-.566 1.92 1.92 0 00.572-1.366v-1.933h3.907v1.933c0 .512.206 1.004.572 1.366a1.96 1.96 0 001.381.566 1.96 1.96 0 001.381-.566c.366-.362.572-.854.572-1.366v-1.933h3.906v1.933c0 .512.206 1.004.572 1.366.367.363.863.566 1.381.566a1.96 1.96 0 001.381-.566 1.92 1.92 0 00.573-1.366v-1.933h3.906v1.933c0 .512.206 1.004.572 1.366a1.96 1.96 0 001.381.566 1.96 1.96 0 001.381-.566c.366-.362.572-.854.572-1.366v-1.933h3.906v1.933c0 .512.206 1.004.572 1.366.367.363.863.566 1.381.566a1.96 1.96 0 001.381-.566c.367-.362.572-.854.572-1.366v-1.933h3.907v7.73h-68.36c-.518 0-1.014.204-1.38.566a1.921 1.921 0 000 2.733c.366.363.862.566 1.38.566h70.313a1.96 1.96 0 001.381-.566c.366-.362.572-.854.572-1.366v-11.596c0-.512-.206-1.004-.572-1.366a1.96 1.96 0 00-1.381-.566z" fill="url(#paint8_linear)"/><path fill="#fff" stroke="url(#paint9_linear)" stroke-width="5" d="M69.5 165.5h45v45h-45z"/><path d="M91.638 175.512c2.463 0 4.415.544 5.855 1.632 1.44 1.056 2.16 2.544 2.16 4.464 0 1.312-.384 2.528-1.152 3.648a13.763 13.763 0 01-2.64 2.976c-1.023.864-2.431 1.936-4.224 3.216-2.303 1.6-3.92 2.88-4.847 3.84h10.367c.865 0 1.505-.064 1.92-.192.448-.128.752-.336.913-.624.16-.288.288-.736.384-1.344h1.008c0 3.776.064 6.48.192 8.112-.704-.16-3.088-.24-7.153-.24H80.453v-.912c.416-.448 1.233-1.216 2.448-2.304 1.856-1.696 3.392-3.2 4.609-4.512a20.793 20.793 0 003.215-4.608c.928-1.76 1.393-3.584 1.393-5.472 0-1.696-.384-2.928-1.152-3.696-.736-.8-1.84-1.2-3.313-1.2-1.344 0-2.544.32-3.6.96-1.023.608-1.968 1.52-2.831 2.736l-.816-.48c2.367-4 6.111-6 11.231-6z" fill="url(#paint10_linear)"/><defs><linearGradient id="paint0_linear" x1="80.781" y1="32.865" x2="80.781" y2="114.033" gradientUnits="userSpaceOnUse"><stop stop-color="#F2C94C"/><stop offset="1" stop-color="#F29C4C"/></linearGradient><linearGradient id="paint1_linear" x1="139.375" y1="32.865" x2="139.375" y2="114.033" gradientUnits="userSpaceOnUse"><stop stop-color="#F2C94C"/><stop offset="1" stop-color="#F29C4C"/></linearGradient><linearGradient id="paint2_linear" x1="86.641" y1="48.326" x2="86.641" y2="90.843" gradientUnits="userSpaceOnUse"><stop stop-color="#F2C94C"/><stop offset="1" stop-color="#F29C4C"/></linearGradient><linearGradient id="paint3_linear" x1="94.453" y1="71.517" x2="94.453" y2="83.112" gradientUnits="userSpaceOnUse"><stop stop-color="#F2C94C"/><stop offset="1" stop-color="#F29C4C"/></linearGradient><linearGradient id="paint4_linear" x1="117.891" y1="48.326" x2="117.891" y2="90.842" gradientUnits="userSpaceOnUse"><stop stop-color="#F2C94C"/><stop offset="1" stop-color="#F29C4C"/></linearGradient><linearGradient id="paint5_linear" x1="86.641" y1="94.707" x2="86.641" y2="106.302" gradientUnits="userSpaceOnUse"><stop stop-color="#F2C94C"/><stop offset="1" stop-color="#F29C4C"/></linearGradient><linearGradient id="paint6_linear" x1="119.844" y1="94.707" x2="119.844" y2="104.37" gradientUnits="userSpaceOnUse"><stop stop-color="#F2C94C"/><stop offset="1" stop-color="#F29C4C"/></linearGradient><linearGradient id="paint7_linear" x1="103.237" y1="117.898" x2="103.237" y2="129.493" gradientUnits="userSpaceOnUse"><stop stop-color="#F2C94C"/><stop offset="1" stop-color="#F29C4C"/></linearGradient><linearGradient id="paint8_linear" x1="86.641" y1="133.359" x2="86.641" y2="148.819" gradientUnits="userSpaceOnUse"><stop stop-color="#F2C94C"/><stop offset="1" stop-color="#F29C4C"/></linearGradient><linearGradient id="paint9_linear" x1="92" y1="163" x2="92" y2="213" gradientUnits="userSpaceOnUse"><stop stop-color="#F2C94C"/><stop offset="1" stop-color="#F29C4C"/></linearGradient><linearGradient id="paint10_linear" x1="91" y1="149" x2="91" y2="213" gradientUnits="userSpaceOnUse"><stop stop-color="#F2C94C"/><stop offset="1" stop-color="#F29C4C"/></linearGradient><filter id="filter0_d" x="0" y="0" width="185" height="185" filterUnits="userSpaceOnUse" color-interpolation-filters="sRGB"><feFlood flood-opacity="0" result="BackgroundImageFix"/><feColorMatrix in="SourceAlpha" values="0 0 0 0 0 0 0 0 0 0 0 0 0 0 0 0 0 0 127 0"/><feOffset dy="2"/><feGaussianBlur stdDeviation="5"/><feColorMatrix values="0 0 0 0 0 0 0 0 0 0 0 0 0 0 0 0 0 0 0.25 0"/><feBlend in2="BackgroundImageFix" result="effect1_dropShadow"/><feBlend in="SourceGraphic" in2="effect1_dropShadow" result="shape"/></filter></defs></svg>