<svg width="45" height="45" fill="none" xmlns="http://www.w3.org/2000/svg"><path fill-rule="evenodd" clip-rule="evenodd" d="M39.375 2.813H5.625a2.813 2.813 0 00-2.813 2.812v33.75a2.812 2.812 0 002.813 2.813h33.75a2.812 2.812 0 002.813-2.813V5.625a2.812 2.812 0 00-2.813-2.813zM5.625 0A5.625 5.625 0 000 5.625v33.75A5.625 5.625 0 005.625 45h33.75A5.625 5.625 0 0045 39.375V5.625A5.625 5.625 0 0039.375 0H5.625z" fill="#BDBDBD"/><path fill-rule="evenodd" clip-rule="evenodd" d="M23.496 31.933a1.406 1.406 0 000-1.99L16.05 22.5l7.445-7.442a1.405 1.405 0 000-1.99 1.405 1.405 0 00-1.992 0l-8.437 8.437a1.406 1.406 0 000 1.99l8.437 8.438a1.406 1.406 0 001.992 0z" fill="#BDBDBD"/><path fill-rule="evenodd" clip-rule="evenodd" d="M32.344 22.5a1.407 1.407 0 00-1.407-1.406H16.876a1.406 1.406 0 100 2.812h14.063a1.406 1.406 0 001.406-1.406z" fill="#BDBDBD"/></svg>