<svg width="185" height="213" fill="none" xmlns="http://www.w3.org/2000/svg"><g filter="url(#filter0_d)"><rect x="10" y="8" width="165" height="165" rx="5" fill="#fff"/></g><path d="M73.195 104.222c-4.567 0-8.282 3.716-8.282 8.283 0 4.566 3.716 8.282 8.282 8.282 4.567 0 8.282-3.716 8.282-8.282 0-4.567-3.715-8.283-8.282-8.283zm0 11.682a3.403 3.403 0 01-3.4-3.399c0-1.875 1.526-3.4 3.4-3.4a3.403 3.403 0 013.399 3.4 3.403 3.403 0 01-3.4 3.399z" fill="url(#paint0_linear6)"/><path d="M150.571 28H69.534a2.441 2.441 0 00-2.442 2.441v56.924h-5.69c-.607 0-1.193.226-1.642.634L32.997 112.29a2.44 2.44 0 001.641 4.249h10.838v34.019A2.441 2.441 0 0047.918 153h50.555a2.441 2.441 0 002.441-2.441v-9.202h49.657a2.442 2.442 0 002.442-2.442V67.978a2.441 2.441 0 10-4.883 0v68.496h-47.216V116.54h10.837a2.44 2.44 0 001.641-4.249l-1.38-1.253-25.383-23.04a2.438 2.438 0 00-1.64-.635H71.975v-54.48h76.155v15.57a2.441 2.441 0 104.883 0V30.441A2.441 2.441 0 00150.571 28zM62.344 92.248h21.702l21.382 19.409h-5.996L83.246 96.6a2.442 2.442 0 00-1.663-.654h-16.52a2.44 2.44 0 00-1.648.641l-16.448 15.07H40.96l21.383-19.409zm5.924 55.869v-18.858h9.853v18.858h-9.853zm14.736 0v-21.299a2.441 2.441 0 00-2.441-2.442H65.827a2.441 2.441 0 00-2.442 2.442v21.299H50.358v-32.944l15.656-14.345h14.61l15.407 14.335v32.954H83.004z" fill="url(#paint1_linear6)"/><path d="M110.972 47.383h24.552a2.442 2.442 0 000-4.883h-24.552a2.441 2.441 0 100 4.883z" fill="url(#paint2_linear6)"/><path d="M110.972 59.6h24.552a2.442 2.442 0 000-4.883h-24.552a2.441 2.441 0 100 4.883z" fill="url(#paint3_linear6)"/><path d="M110.972 71.816h24.552a2.442 2.442 0 000-4.882h-24.552a2.441 2.441 0 100 4.882z" fill="url(#paint4_linear6)"/><path d="M93.725 84.033h41.799a2.442 2.442 0 000-4.883h-41.8a2.441 2.441 0 100 4.883z" fill="url(#paint5_linear6)"/><path d="M108.53 96.25h26.994a2.441 2.441 0 000-4.883H108.53a2.441 2.441 0 000 4.882z" fill="url(#paint6_linear6)"/><path d="M135.524 103.583h-15.139a2.442 2.442 0 100 4.883h15.139a2.442 2.442 0 000-4.883z" fill="url(#paint7_linear6)"/><path d="M127.591 126.158a2.443 2.443 0 002.428 2.183l.062-.001a2.441 2.441 0 002.376-2.305c.012-.219.021-.446.027-.676.077-.323.279-.819.668-1.239.318-.342.654-.516.998-.516.539 0 1.196 1.059 1.196 2.295a2.441 2.441 0 104.883 0c0-4.025-2.671-7.178-6.079-7.178-.941 0-1.855.222-2.693.646-.47-1.031-1.13-1.974-2.049-2.735-2.896-2.398-6.922-2.28-9.789.287-2.897 2.592-2.897 5.986-2.897 8.98a2.442 2.442 0 104.883 0c0-2.686.059-4.258 1.271-5.342.801-.717 2.177-1.191 3.418-.164.847.702 1.322 2.376 1.313 4.558-.05.413-.057.82-.016 1.207z" fill="url(#paint8_linear6)"/><path d="M85.038 75.773a2.441 2.441 0 002.661-.53l4.062-4.062 4.063 4.063a2.441 2.441 0 004.167-1.726v-13.64a10.575 10.575 0 002.432-6.755c0-5.858-4.766-10.623-10.623-10.623-5.856 0-10.622 4.765-10.622 10.623 0 2.518.882 4.834 2.353 6.656v13.739a2.44 2.44 0 001.507 2.255zm10.071-8.149l-1.621-1.622a2.432 2.432 0 00-1.726-.714c-.626 0-1.25.237-1.727.714l-1.62 1.622v-4.428c.563.189 1.146.33 1.74.42 1.65.26 3.366.123 4.954-.396v4.404zm-3.308-20.24a5.746 5.746 0 015.74 5.739 5.72 5.72 0 01-1.773 4.141 5.782 5.782 0 01-4.944 1.514 5.748 5.748 0 01-4.763-5.655 5.746 5.746 0 015.74-5.74z" fill="url(#paint9_linear6)"/><path d="M152.6 56.511c-.532-.813-1.555-1.23-2.505-1.04a2.469 2.469 0 00-1.943 2.075 2.46 2.46 0 001.34 2.507 2.463 2.463 0 002.75-.408 2.463 2.463 0 00.358-3.134z" fill="url(#paint10_linear6)"/><path fill="#fff" stroke="url(#paint11_linear6)" stroke-width="5" d="M69.5 165.5h45v45h-45z"/><path d="M94.127 179.88c1.728 0 3.296.416 4.704 1.248 1.44.832 2.576 2.048 3.408 3.648.864 1.568 1.296 3.392 1.296 5.472 0 2.368-.544 4.416-1.632 6.144a10.268 10.268 0 01-4.32 3.936c-1.824.896-3.824 1.344-6 1.344-3.52 0-6.288-1.2-8.304-3.6-1.984-2.4-2.976-5.76-2.976-10.08 0-4.448.992-8.224 2.976-11.328 2.016-3.104 4.48-5.488 7.392-7.152 2.944-1.664 5.872-2.736 8.784-3.216l.192.96c-2.048.64-3.856 1.472-5.424 2.496-1.536 1.024-2.896 2.608-4.08 4.752-1.152 2.144-1.92 4.992-2.304 8.544.672-1.088 1.552-1.888 2.64-2.4 1.12-.512 2.336-.768 3.648-.768zm-2.064 20.832c1.216 0 2.224-.816 3.024-2.448.8-1.664 1.2-4.192 1.2-7.584 0-3.264-.384-5.648-1.152-7.152-.736-1.504-1.712-2.256-2.928-2.256-.832 0-1.68.304-2.544.912-.864.608-1.536 1.52-2.016 2.736a77.944 77.944 0 00-.096 3.36c0 4.384.432 7.552 1.296 9.504.896 1.952 1.968 2.928 3.216 2.928z" fill="url(#paint12_linear6)"/><defs><linearGradient id="paint0_linear6" x1="73.195" y1="104.222" x2="73.195" y2="120.787" gradientUnits="userSpaceOnUse"><stop stop-color="#F2C94C"/><stop offset="1" stop-color="#F29C4C"/></linearGradient><linearGradient id="paint1_linear6" x1="92.605" y1="28" x2="92.605" y2="153" gradientUnits="userSpaceOnUse"><stop stop-color="#F2C94C"/><stop offset="1" stop-color="#F29C4C"/></linearGradient><linearGradient id="paint2_linear6" x1="123.248" y1="42.501" x2="123.248" y2="47.383" gradientUnits="userSpaceOnUse"><stop stop-color="#F2C94C"/><stop offset="1" stop-color="#F29C4C"/></linearGradient><linearGradient id="paint3_linear6" x1="123.248" y1="54.717" x2="123.248" y2="59.6" gradientUnits="userSpaceOnUse"><stop stop-color="#F2C94C"/><stop offset="1" stop-color="#F29C4C"/></linearGradient><linearGradient id="paint4_linear6" x1="123.248" y1="66.934" x2="123.248" y2="71.816" gradientUnits="userSpaceOnUse"><stop stop-color="#F2C94C"/><stop offset="1" stop-color="#F29C4C"/></linearGradient><linearGradient id="paint5_linear6" x1="114.624" y1="79.15" x2="114.624" y2="84.033" gradientUnits="userSpaceOnUse"><stop stop-color="#F2C94C"/><stop offset="1" stop-color="#F29C4C"/></linearGradient><linearGradient id="paint6_linear6" x1="122.027" y1="91.367" x2="122.027" y2="96.249" gradientUnits="userSpaceOnUse"><stop stop-color="#F2C94C"/><stop offset="1" stop-color="#F29C4C"/></linearGradient><linearGradient id="paint7_linear6" x1="127.954" y1="103.583" x2="127.954" y2="108.466" gradientUnits="userSpaceOnUse"><stop stop-color="#F2C94C"/><stop offset="1" stop-color="#F29C4C"/></linearGradient><linearGradient id="paint8_linear6" x1="128.475" y1="114.911" x2="128.475" y2="128.341" gradientUnits="userSpaceOnUse"><stop stop-color="#F2C94C"/><stop offset="1" stop-color="#F29C4C"/></linearGradient><linearGradient id="paint9_linear6" x1="91.8" y1="42.499" x2="91.8" y2="75.959" gradientUnits="userSpaceOnUse"><stop stop-color="#F2C94C"/><stop offset="1" stop-color="#F29C4C"/></linearGradient><linearGradient id="paint10_linear6" x1="150.567" y1="55.425" x2="150.567" y2="60.301" gradientUnits="userSpaceOnUse"><stop stop-color="#F2C94C"/><stop offset="1" stop-color="#F29C4C"/></linearGradient><linearGradient id="paint11_linear6" x1="92" y1="163" x2="92" y2="213" gradientUnits="userSpaceOnUse"><stop stop-color="#F2C94C"/><stop offset="1" stop-color="#F29C4C"/></linearGradient><linearGradient id="paint12_linear6" x1="91.5" y1="149" x2="91.5" y2="213" gradientUnits="userSpaceOnUse"><stop stop-color="#F2C94C"/><stop offset="1" stop-color="#F29C4C"/></linearGradient></defs></svg>