<svg width="185" height="213" fill="none" xmlns="http://www.w3.org/2000/svg"><g filter="url(#filter0_d)"><rect x="10" y="8" width="165" height="165" rx="5" fill="#fff"/></g><path d="M130.608 64.458H111.25c-1.15 0-2.083.931-2.083 2.083v25c0 1.152.933 2.084 2.083 2.084h29.167c1.15 0 2.083-.932 2.083-2.084V76.35c0-6.556-5.335-11.892-11.892-11.892zm7.725 25h-25V68.625h17.275c4.258 0 7.725 3.464 7.725 7.725v13.108z" fill="url(#paint0_linear4)"/><path d="M123.75 97.791h-6.25a2.082 2.082 0 100 4.167h6.25a2.082 2.082 0 100-4.166z" fill="url(#paint1_linear4)"/><path d="M130 106.125c-8.042 0-14.583 6.544-14.583 14.583 0 8.04 6.541 14.584 14.583 14.584 8.041 0 14.583-6.544 14.583-14.584 0-8.039-6.542-14.583-14.583-14.583zm0 25c-5.744 0-10.417-4.673-10.417-10.417 0-5.743 4.673-10.416 10.417-10.416 5.743 0 10.416 4.672 10.416 10.416 0 5.744-4.673 10.417-10.416 10.417z" fill="url(#paint2_linear4)"/><path d="M132.127 114.458h-4.254a4.128 4.128 0 00-4.123 4.121v4.257a4.127 4.127 0 004.123 4.122h4.254a4.128 4.128 0 004.123-4.12v-4.257a4.129 4.129 0 00-4.123-4.123zm-.044 8.334h-4.166v-4.167h4.166v4.167z" fill="url(#paint3_linear4)"/><path d="M55 106.125c-8.042 0-14.583 6.544-14.583 14.583 0 8.04 6.541 14.584 14.583 14.584 8.041 0 14.583-6.544 14.583-14.584 0-8.039-6.541-14.583-14.583-14.583zm0 25c-5.744 0-10.417-4.673-10.417-10.417 0-5.743 4.673-10.416 10.417-10.416s10.417 4.672 10.417 10.416c0 5.744-4.673 10.417-10.417 10.417z" fill="url(#paint4_linear4)"/><path d="M57.127 114.458h-4.254a4.129 4.129 0 00-4.123 4.121v4.257a4.127 4.127 0 004.123 4.122h4.254a4.127 4.127 0 004.123-4.12v-4.257a4.129 4.129 0 00-4.123-4.123zm-.044 8.334h-4.166v-4.167h4.167v4.167z" fill="url(#paint5_linear4)"/><path d="M142.329 74.565a2.082 2.082 0 00-2.06-1.773h-20.685c-1.15 0-2.084.931-2.084 2.083v8.334c0 1.152.934 2.083 2.084 2.083h20.833c1.15 0 2.083-.931 2.083-2.084V76.35c0-.6-.079-1.179-.171-1.785zm-3.996 6.56h-16.666V76.96h16.666v4.166z" fill="url(#paint6_linear4)"/><path d="M142.5 89.459h-35.417c-1.15 0-2.083.93-2.083 2.083v25c0 1.152.933 2.083 2.083 2.083h11.144a2.083 2.083 0 000-4.167h-9.061V93.625H142.5c4.596 0 8.333 3.738 8.333 8.334v12.499h-9.06a2.084 2.084 0 100 4.167h11.143c1.15 0 2.084-.931 2.084-2.083v-14.583c0-6.894-5.609-12.5-12.5-12.5z" fill="url(#paint7_linear4)"/><path d="M55 106.125H32.083c-1.15 0-2.083.931-2.083 2.083v8.333c0 1.153.933 2.084 2.083 2.084h11.144c.881 0 1.669-.556 1.963-1.388a10.432 10.432 0 019.81-6.945 2.083 2.083 0 000-4.167zm-13.164 8.333h-7.67v-4.166h10.645a14.554 14.554 0 00-2.975 4.166z" fill="url(#paint8_linear4)"/><path d="M107.083 106.125H55a2.083 2.083 0 100 4.167c4.395 0 8.34 2.791 9.808 6.945a2.085 2.085 0 001.965 1.388h40.31c1.15 0 2.083-.931 2.083-2.084v-8.333a2.082 2.082 0 00-2.083-2.083zM105 114.458H68.164a14.552 14.552 0 00-2.975-4.166H105v4.166z" fill="url(#paint9_linear4)"/><path d="M154.748 99.462a2.082 2.082 0 00-2.042-1.67h-8.122c-1.15 0-2.084.93-2.084 2.083v8.333c0 1.152.934 2.083 2.084 2.083h8.333c1.15 0 2.083-.931 2.083-2.083v-6.25c0-.833-.085-1.675-.252-2.496zm-3.914 6.663h-4.167v-4.167h4.167v4.167z" fill="url(#paint10_linear4)"/><path d="M40.417 131.125h-8.334a2.082 2.082 0 100 4.167h8.334a2.083 2.083 0 000-4.167z" fill="url(#paint11_linear4)"/><path d="M152.917 131.125H105a2.083 2.083 0 000 4.167h47.917a2.083 2.083 0 000-4.167z" fill="url(#paint12_linear4)"/><path d="M96.667 131.125h-8.333a2.082 2.082 0 100 4.167h8.333a2.083 2.083 0 000-4.167z" fill="url(#paint13_linear4)"/><path d="M80 131.125H55a2.083 2.083 0 100 4.167h25a2.083 2.083 0 000-4.167z" fill="url(#paint14_linear4)"/><path d="M107.083 89.459h-75c-1.15 0-2.083.93-2.083 2.083v16.666c0 1.153.933 2.084 2.083 2.084h75c1.15 0 2.084-.931 2.084-2.084V91.542a2.083 2.083 0 00-2.084-2.084zM105 106.124H34.167v-12.5H105v12.5z" fill="url(#paint15_linear4)"/><path d="M63.333 72.792h-25c-1.15 0-2.083.931-2.083 2.083v16.667c0 1.152.933 2.083 2.083 2.083h25c1.15 0 2.084-.93 2.084-2.083V74.875a2.082 2.082 0 00-2.084-2.083zM61.25 89.458H40.417v-12.5H61.25v12.5z" fill="url(#paint16_linear4)"/><path d="M94.583 64.458h-31.25c-1.15 0-2.083.931-2.083 2.083v25c0 1.152.933 2.084 2.083 2.084h31.25c1.15 0 2.084-.932 2.084-2.084v-25a2.083 2.083 0 00-2.084-2.083zm-2.083 25H65.417V68.625H92.5v20.833z" fill="url(#paint17_linear4)"/><path d="M73.75 51.959h-25c-1.15 0-2.083.93-2.083 2.083v20.833c0 1.152.933 2.084 2.083 2.084h14.583c1.15 0 2.084-.932 2.084-2.084v-6.25h8.333c1.15 0 2.083-.93 2.083-2.083v-12.5a2.083 2.083 0 00-2.083-2.084zm-2.083 12.5h-8.334c-1.15 0-2.083.93-2.083 2.083v6.25H50.833V56.125h20.834v8.334z" fill="url(#paint18_linear4)"/><path d="M79.39 81.735l-4.167-4.166a2.08 2.08 0 00-2.946 0 2.08 2.08 0 000 2.945l4.167 4.167a2.078 2.078 0 002.946 0 2.081 2.081 0 000-2.946z" fill="url(#paint19_linear4)"/><path d="M85.417 73.21a2.084 2.084 0 00-2.917.417l-6.25 8.334a2.081 2.081 0 001.665 3.33 2.08 2.08 0 001.669-.832l6.25-8.334a2.082 2.082 0 00-.417-2.915z" fill="url(#paint20_linear4)"/><path d="M107.083 54.042a6.258 6.258 0 00-6.25 6.25v31.25c0 1.152.934 2.083 2.084 2.083h8.333c1.15 0 2.083-.93 2.083-2.083v-31.25a6.258 6.258 0 00-6.25-6.25zm2.084 35.416H105V60.293a2.084 2.084 0 014.167 0v29.166z" fill="url(#paint21_linear4)"/><path d="M98.75 45.708a2.083 2.083 0 100 4.167 6.258 6.258 0 016.25 6.25 2.082 2.082 0 104.166 0c.001-5.744-4.672-10.417-10.416-10.417z" fill="url(#paint22_linear4)"/><path d="M107.083 97.791h-75c-1.15 0-2.083.932-2.083 2.084v8.333c0 1.152.933 2.083 2.083 2.083h75c1.15 0 2.084-.931 2.084-2.083v-8.333a2.083 2.083 0 00-2.084-2.084zM105 106.126H34.167v-4.167H105v4.167z" fill="url(#paint23_linear4)"/><path fill="#fff" stroke="url(#paint24_linear4)" stroke-width="5" d="M69.5 165.5h45v45h-45z"/><path d="M102.176 199.512c-.384-.096-1.984-.176-4.8-.24v8.496h-5.568v-8.496H78.704v-1.008l17.904-22.752h.768v18.816h.384c.864 0 1.504-.064 1.92-.192.448-.128.752-.336.912-.624.16-.288.288-.736.384-1.344h1.008c0 3.392.064 5.84.192 7.344zm-10.368-5.184v-11.184l-8.688 11.184h8.688z" fill="url(#paint25_linear4)"/><defs><linearGradient id="paint0_linear4" x1="125.833" y1="64.458" x2="125.833" y2="93.624" gradientUnits="userSpaceOnUse"><stop stop-color="#F2C94C"/><stop offset="1" stop-color="#F29C4C"/></linearGradient><linearGradient id="paint1_linear4" x1="120.625" y1="97.791" x2="120.625" y2="101.958" gradientUnits="userSpaceOnUse"><stop stop-color="#F2C94C"/><stop offset="1" stop-color="#F29C4C"/></linearGradient><linearGradient id="paint2_linear4" x1="130" y1="106.125" x2="130" y2="135.292" gradientUnits="userSpaceOnUse"><stop stop-color="#F2C94C"/><stop offset="1" stop-color="#F29C4C"/></linearGradient><linearGradient id="paint3_linear4" x1="130" y1="114.458" x2="130" y2="126.958" gradientUnits="userSpaceOnUse"><stop stop-color="#F2C94C"/><stop offset="1" stop-color="#F29C4C"/></linearGradient><linearGradient id="paint4_linear4" x1="55" y1="106.125" x2="55" y2="135.292" gradientUnits="userSpaceOnUse"><stop stop-color="#F2C94C"/><stop offset="1" stop-color="#F29C4C"/></linearGradient><linearGradient id="paint5_linear4" x1="55" y1="114.458" x2="55" y2="126.958" gradientUnits="userSpaceOnUse"><stop stop-color="#F2C94C"/><stop offset="1" stop-color="#F29C4C"/></linearGradient><linearGradient id="paint6_linear4" x1="130" y1="72.792" x2="130" y2="85.292" gradientUnits="userSpaceOnUse"><stop stop-color="#F2C94C"/><stop offset="1" stop-color="#F29C4C"/></linearGradient><linearGradient id="paint7_linear4" x1="130" y1="89.459" x2="130" y2="118.625" gradientUnits="userSpaceOnUse"><stop stop-color="#F2C94C"/><stop offset="1" stop-color="#F29C4C"/></linearGradient><linearGradient id="paint8_linear4" x1="43.541" y1="106.125" x2="43.541" y2="118.625" gradientUnits="userSpaceOnUse"><stop stop-color="#F2C94C"/><stop offset="1" stop-color="#F29C4C"/></linearGradient><linearGradient id="paint9_linear4" x1="81.041" y1="106.125" x2="81.041" y2="118.625" gradientUnits="userSpaceOnUse"><stop stop-color="#F2C94C"/><stop offset="1" stop-color="#F29C4C"/></linearGradient><linearGradient id="paint10_linear4" x1="148.75" y1="97.791" x2="148.75" y2="110.291" gradientUnits="userSpaceOnUse"><stop stop-color="#F2C94C"/><stop offset="1" stop-color="#F29C4C"/></linearGradient><linearGradient id="paint11_linear4" x1="36.25" y1="131.125" x2="36.25" y2="135.292" gradientUnits="userSpaceOnUse"><stop stop-color="#F2C94C"/><stop offset="1" stop-color="#F29C4C"/></linearGradient><linearGradient id="paint12_linear4" x1="128.958" y1="131.125" x2="128.958" y2="135.292" gradientUnits="userSpaceOnUse"><stop stop-color="#F2C94C"/><stop offset="1" stop-color="#F29C4C"/></linearGradient><linearGradient id="paint13_linear4" x1="92.5" y1="131.125" x2="92.5" y2="135.292" gradientUnits="userSpaceOnUse"><stop stop-color="#F2C94C"/><stop offset="1" stop-color="#F29C4C"/></linearGradient><linearGradient id="paint14_linear4" x1="67.5" y1="131.125" x2="67.5" y2="135.292" gradientUnits="userSpaceOnUse"><stop stop-color="#F2C94C"/><stop offset="1" stop-color="#F29C4C"/></linearGradient><linearGradient id="paint15_linear4" x1="69.583" y1="89.459" x2="69.583" y2="110.292" gradientUnits="userSpaceOnUse"><stop stop-color="#F2C94C"/><stop offset="1" stop-color="#F29C4C"/></linearGradient><linearGradient id="paint16_linear4" x1="50.833" y1="72.792" x2="50.833" y2="93.625" gradientUnits="userSpaceOnUse"><stop stop-color="#F2C94C"/><stop offset="1" stop-color="#F29C4C"/></linearGradient><linearGradient id="paint17_linear4" x1="78.958" y1="64.458" x2="78.958" y2="93.624" gradientUnits="userSpaceOnUse"><stop stop-color="#F2C94C"/><stop offset="1" stop-color="#F29C4C"/></linearGradient><linearGradient id="paint18_linear4" x1="61.25" y1="51.959" x2="61.25" y2="76.959" gradientUnits="userSpaceOnUse"><stop stop-color="#F2C94C"/><stop offset="1" stop-color="#F29C4C"/></linearGradient><linearGradient id="paint19_linear4" x1="75.834" y1="76.957" x2="75.834" y2="85.291" gradientUnits="userSpaceOnUse"><stop stop-color="#F2C94C"/><stop offset="1" stop-color="#F29C4C"/></linearGradient><linearGradient id="paint20_linear4" x1="81.042" y1="72.794" x2="81.042" y2="85.292" gradientUnits="userSpaceOnUse"><stop stop-color="#F2C94C"/><stop offset="1" stop-color="#F29C4C"/></linearGradient><linearGradient id="paint21_linear4" x1="107.083" y1="54.042" x2="107.083" y2="93.625" gradientUnits="userSpaceOnUse"><stop stop-color="#F2C94C"/><stop offset="1" stop-color="#F29C4C"/></linearGradient><linearGradient id="paint22_linear4" x1="102.917" y1="45.708" x2="102.917" y2="58.208" gradientUnits="userSpaceOnUse"><stop stop-color="#F2C94C"/><stop offset="1" stop-color="#F29C4C"/></linearGradient><linearGradient id="paint23_linear4" x1="69.583" y1="97.791" x2="69.583" y2="110.291" gradientUnits="userSpaceOnUse"><stop stop-color="#F2C94C"/><stop offset="1" stop-color="#F29C4C"/></linearGradient><linearGradient id="paint24_linear4" x1="92" y1="163" x2="92" y2="213" gradientUnits="userSpaceOnUse"><stop stop-color="#F2C94C"/><stop offset="1" stop-color="#F29C4C"/></linearGradient><linearGradient id="paint25_linear4" x1="91" y1="149" x2="91" y2="213" gradientUnits="userSpaceOnUse"><stop stop-color="#F2C94C"/><stop offset="1" stop-color="#F29C4C"/></linearGradient></defs></svg>