<svg width="26" height="26" fill="none" xmlns="http://www.w3.org/2000/svg"><g clip-path="url(#clip0)" fill-rule="evenodd" clip-rule="evenodd" fill="#828282"><path d="M17.875 1.625h-9.75A1.625 1.625 0 006.5 3.25v19.5a1.625 1.625 0 001.625 1.625h9.75A1.625 1.625 0 0019.5 22.75V3.25a1.625 1.625 0 00-1.625-1.625zM8.125 0a3.25 3.25 0 00-3.25 3.25v19.5A3.25 3.25 0 008.125 26h9.75a3.25 3.25 0 003.25-3.25V3.25A3.25 3.25 0 0017.875 0h-9.75z"/><path d="M13 22.75a1.625 1.625 0 100-3.25 1.625 1.625 0 000 3.25z"/></g><defs><clipPath id="clip0"><path fill="#fff" d="M0 0h26v26H0z"/></clipPath></defs></svg>