<svg width="48" height="48" fill="none" xmlns="http://www.w3.org/2000/svg"><path fill="#F2F2F2" d="M0 0h48v48H0z"/><path d="M24 0v3.879h20.121V44.12H24V48h24V0H24z" fill="#2488FF"/><path d="M3.879 44.121V3.88H24V0H0v48h24v-3.879H3.879z" fill="#57A4FF"/><path d="M9.267 23.454l7.038 2.627 2.724 8.761a.828.828 0 001.316.396l3.924-3.198a1.17 1.17 0 011.426-.04l7.077 5.138a.83.83 0 001.3-.502l5.183-24.934a.83.83 0 00-1.11-.943L9.258 21.902c-.713.275-.707 1.284.008 1.552zm9.323 1.229l13.756-8.472c.247-.152.501.183.289.38L21.283 27.142c-.4.371-.657.868-.73 1.408l-.386 2.866c-.052.382-.589.42-.695.05l-1.487-5.226a1.385 1.385 0 01.605-1.558z" fill="#57A4FF"/></svg>