<svg width="48" height="48" fill="none" xmlns="http://www.w3.org/2000/svg"><path fill-rule="evenodd" clip-rule="evenodd" d="M0 0v48h48V0H0zm40.596 10.621l-5.64 27.127a.902.902 0 01-1.414.545l-7.698-5.589a1.273 1.273 0 00-1.552.044l-4.268 3.479a.901.901 0 01-1.432-.43l-2.963-9.532-7.658-2.858c-.777-.292-.784-1.39-.008-1.688L39.387 9.596a.903.903 0 011.209 1.025z" fill="#828282"/><path fill-rule="evenodd" clip-rule="evenodd" d="M33.08 15.527l-14.965 9.217a1.507 1.507 0 00-.659 1.695l1.618 5.685c.115.403.7.362.756-.054l.42-3.118a2.56 2.56 0 01.794-1.532l12.35-11.48c.231-.214-.046-.578-.314-.413z" fill="#828282"/></svg>