<svg width="90" height="90" fill="none" xmlns="http://www.w3.org/2000/svg"><g clip-path="url(#clip0)" fill="#F2F2F2"><path d="M88.083 9.276L69.528.156a1.511 1.511 0 00-1.338 0L49.652 9.252c-.515.26-.835.793-.822 1.37v12.82l-7.74-6.154a1.545 1.545 0 00-1.92 0L1.643 47.237a1.525 1.525 0 00-.183 2.219L8.946 57.7c.29.32.7.501 1.13.5.333 0 .654-.118.906-.335l2.35-1.921v32.45A1.682 1.682 0 0014.954 90H65.26c.844 0 1.51-.763 1.51-1.607V55.944l2.407 1.921c.63.504 1.545.432 2.09-.165l7.489-8.245a1.527 1.527 0 00-.177-2.22l-2.808-2.24 6.133-4.203c4.01-2.733 7.004-8.451 7.004-13.3V10.646a1.501 1.501 0 00-.825-1.37zm-39.635 77.67H31.844V67.29h16.604v19.657zm15.268 0H51.502V65.732c0-.843-.776-1.496-1.62-1.496H30.333a1.513 1.513 0 00-1.542 1.496v21.214H16.386V53.498L40.05 34.571l23.665 18.927v33.448zm11.687-38.338l-5.429 5.977-28.912-23.163a1.527 1.527 0 00-1.908 0L10.24 54.585l-5.428-5.977 35.326-28.174 8.692 6.916v.141c0 4.85 2.994 10.568 7.002 13.3l12.19 8.325a1.51 1.51 0 001.71 0l3.401-2.322 2.27 1.814zM85.854 27.49c0 3.8-2.528 8.636-5.67 10.778l-11.33 7.738-11.309-7.738c-3.142-2.143-5.662-6.977-5.662-10.778V11.575L68.87 3.227l16.985 8.37v15.894z"/><path d="M62.877 23.512a1.525 1.525 0 00-2.57.666 1.53 1.53 0 00.4 1.482l4.756 4.763c.29.279.68.428 1.08.413h.004c.4.015.79-.132 1.08-.408l9.395-9.376a1.523 1.523 0 10-2.159-2.144l-8.31 8.313-3.676-3.71z"/></g><defs><clipPath id="clip0"><path fill="#fff" d="M0 0h90v90H0z"/></clipPath></defs></svg>