<svg width="80" height="80" fill="none" xmlns="http://www.w3.org/2000/svg"><path d="M76 52a4 4 0 000-8h-4.387a14.902 14.902 0 00-8.201 2.167c2.4-9.971-2.87-22.224-11.232-28.515l1.881-4.997a9.457 9.457 0 00-1.066-8.678A9.167 9.167 0 0045.44 0H34.56a9.17 9.17 0 00-7.552 3.976 9.467 9.467 0 00-1.067 8.681l1.882 4.995c-8.328 6.267-13.639 18.499-11.234 28.513A14.921 14.921 0 008.387 44H4a4 4 0 000 8h2.667v5.419A32.75 32.75 0 004 57.333a4 4 0 000 8c.573 0 1.352 0 1.867.019.15.219.324.48.454.676 2.558 3.853 6.775 7.093 12.895 9.905C27.413 79.707 37.2 80 40 80c2.8 0 12.585-.293 20.787-4.064a34.69 34.69 0 0013.42-10.588c.509-.015 1.201-.015 1.793-.015a4 4 0 100-8c-1.016 0-1.888 0-2.667.054V52H76zM28.436 11.72a6.667 6.667 0 016.124-9.053h10.88a6.667 6.667 0 016.125 9.05l-1.664 4.416c-.771-.454-1.57-.86-2.392-1.214l1.548-4.134a3.987 3.987 0 00-.446-3.76 3.784 3.784 0 00-3.171-1.692H34.56a3.773 3.773 0 00-3.16 1.678 3.988 3.988 0 00-.467 3.764l1.552 4.144c-.822.354-1.621.76-2.393 1.214l-1.656-4.413zm6.568 2.305l-1.573-4.197a1.357 1.357 0 01.166-1.305c.21-.328.574-.525.963-.523h10.88c.395-.001.762.2.973.533.271.38.328.872.151 1.303l-1.568 4.187a18.368 18.368 0 00-9.992.002zM40 16c12.007 0 20.735 12.607 21.301 24a16.922 16.922 0 01-2.8 10.753C55.2 55.708 48.283 58.667 40 58.667c-8.33 0-15.245-2.955-18.52-7.938a16.845 16.845 0 01-2.813-10.156C18.957 27.733 28.972 16 40 16zM2.667 48c0-.736.597-1.333 1.333-1.333h4.387a12.17 12.17 0 017.045 1.898 19.572 19.572 0 013.91 3.758c3.773 5.642 11.48 9.01 20.658 9.01 9.144 0 16.867-3.378 20.667-9.018a19.525 19.525 0 013.908-3.752 12.166 12.166 0 017.038-1.896H76a1.333 1.333 0 110 2.666h-4.387a9.558 9.558 0 00-5.517 1.423 19.116 19.116 0 00-4.416 4.641 19.003 19.003 0 01-7.568 6A37.162 37.162 0 0140 64a37.154 37.154 0 01-14.105-2.596 19.005 19.005 0 01-7.572-6 19.102 19.102 0 00-4.416-4.643 9.554 9.554 0 00-5.52-1.428H4A1.333 1.333 0 012.667 48zm30.666 23.548v-5.392c1.768.261 3.548.422 5.334.483v5.333a52.943 52.943 0 01-5.334-.424zm-16-13.117a21.47 21.47 0 005.334 4.297v5.985a35.047 35.047 0 01-5.334-2.958V58.43zm8 5.618a29.627 29.627 0 005.334 1.636v5.443a39.017 39.017 0 01-5.334-1.368v-5.71zm16 2.59a47.263 47.263 0 005.334-.484v5.393c-2.143.279-4.016.39-5.334.43v-5.34zm8-.955a29.554 29.554 0 005.334-1.635v5.712a38.951 38.951 0 01-5.334 1.367v-5.444zm8-2.956a21.455 21.455 0 005.334-4.299v7.156a29.522 29.522 0 01-5.334 3.128v-5.985zm-48-10.683c1.08.03 2.134.342 3.056.906.838.618 1.602 1.33 2.278 2.122v8.534a12.588 12.588 0 01-1.687-2 8.792 8.792 0 00-3.647-3.596v-5.966zm68 9.288c0 .737-.597 1.334-1.333 1.334-1.024 0-2.081 0-2.636.058-.358.039-.685.22-.907.503a27.794 27.794 0 01-2.468 3.007 33.25 33.25 0 01-10.317 7.277C51.964 77.057 42.667 77.333 40 77.333c-2.667 0-11.964-.276-19.676-3.822C10.307 68.907 8.731 64.509 7.577 63.2a1.334 1.334 0 00-.753-.43A19.643 19.643 0 004 62.668 1.333 1.333 0 014 60c4.407 0 4.848.201 6.759 3.079 1.966 2.961 5.56 5.656 10.68 8.009 7.218 3.321 16.028 3.579 18.561 3.579 2.533 0 11.341-.258 18.557-3.578 4.519-2 8.459-5.11 11.455-9.038C71.536 60 72.133 60 76 60c.736 0 1.333.597 1.333 1.333zm-9.466-.873a18.683 18.683 0 01-2.534 2.873v-8.26a13.626 13.626 0 012.28-2.125 6.198 6.198 0 013.054-.903v5.947a7.306 7.306 0 00-2.8 2.468z" fill="#F2F2F2"/></svg>