<svg width="100" height="100" fill="none" xmlns="http://www.w3.org/2000/svg"><g clip-path="url(#clip0)" fill="#F2F2F2"><path d="M50 8.394c.81 0 1.465-.656 1.465-1.465V1.465a1.465 1.465 0 10-2.93 0v5.464c0 .809.656 1.465 1.465 1.465zm28.795 4.392L74.93 16.65a1.465 1.465 0 102.072 2.071l3.865-3.865a1.465 1.465 0 10-2.072-2.071zM22.998 68.582l-3.864 3.865a1.465 1.465 0 102.071 2.072l3.865-3.865a1.465 1.465 0 10-2.072-2.072zm69.19-26.394h-5.465a1.465 1.465 0 100 2.93h5.465a1.465 1.465 0 100-2.93zm-78.911 0H7.813a1.465 1.465 0 100 2.93h5.464a1.465 1.465 0 000-2.93zm63.724 26.394a1.465 1.465 0 00-2.071 2.072l3.865 3.865c.286.286.66.429 1.036.429a1.465 1.465 0 001.036-2.5L77 68.581zm-54.003-49.86a1.46 1.46 0 002.072 0c.572-.572.572-1.5 0-2.072l-3.865-3.864a1.465 1.465 0 10-2.071 2.071l3.864 3.865zm57.764 24.93c0-9.32-4.157-18.034-11.405-23.908a1.465 1.465 0 10-1.844 2.276c6.558 5.315 10.319 13.2 10.319 21.632 0 14.856-11.699 27.03-26.367 27.794V68.1c3.665-.33 6.923-1.898 9.287-4.499 2.868-3.158 4.385-7.736 4.385-13.24 0-6.717-3.86-13.212-6.16-16.485-1.967-2.8-6.375-8.094-8.977-8.094-2.602 0-7.01 5.295-8.977 8.094-2.3 3.273-6.16 9.768-6.16 16.484 0 2.533.318 4.877.945 6.97a1.465 1.465 0 002.806-.841c-.545-1.82-.821-3.881-.821-6.129 0-5.745 3.363-11.505 5.367-14.426 3.14-4.575 6.008-6.885 6.84-7.2.832.315 3.7 2.625 6.84 7.2 2.004 2.921 5.367 8.68 5.367 14.426 0 8.565-4.076 14.101-10.742 14.8v-5.89l5.944-4.81a1.465 1.465 0 10-1.843-2.277L51.465 55.5v-6.882l4.53-3.604a1.465 1.465 0 10-1.824-2.292l-2.706 2.152V38.38a1.465 1.465 0 10-2.93 0v6.495l-2.706-2.153a1.465 1.465 0 10-1.824 2.293l4.53 3.604V55.5l-4.101-3.318a1.465 1.465 0 00-1.843 2.278l5.944 4.809v5.89c-2.935-.314-5.433-1.583-7.287-3.718a1.465 1.465 0 10-2.212 1.92c2.385 2.748 5.718 4.4 9.5 4.739v3.347c-14.67-.764-26.368-12.938-26.368-27.794C22.168 28.306 34.653 15.82 50 15.82a27.55 27.55 0 0112.545 2.98 1.465 1.465 0 101.322-2.614C59.544 14 54.878 12.891 50 12.891c-16.962 0-30.762 13.8-30.762 30.761 0 12.754 7.801 23.719 18.882 28.375a4.398 4.398 0 00-2.28 3.852 4.403 4.403 0 002.93 4.143v3.432a4.402 4.402 0 00-2.93 4.144 4.402 4.402 0 002.93 4.143v2.855A5.41 5.41 0 0044.174 100h11.652a5.41 5.41 0 005.404-5.404V91.74a4.402 4.402 0 002.93-4.143 4.402 4.402 0 00-2.93-4.144v-3.431a4.402 4.402 0 002.93-4.144 4.398 4.398 0 00-2.28-3.852c11.08-4.656 18.882-15.621 18.882-28.375zM58.3 80.273v2.93H41.699v-2.93h16.602zm1.465 8.79H50a1.465 1.465 0 100 2.93h8.3v2.603a2.477 2.477 0 01-2.474 2.474H44.174a2.477 2.477 0 01-2.475-2.474v-2.604h2.066a1.465 1.465 0 100-2.93h-3.53a1.466 1.466 0 01-1.465-1.464c0-.808.657-1.465 1.464-1.465h19.532c.807 0 1.465.657 1.465 1.465s-.658 1.465-1.465 1.465zm0-11.72H40.234a1.466 1.466 0 01-1.465-1.464c0-.808.658-1.465 1.465-1.465h19.532c.807 0 1.465.657 1.465 1.465s-.658 1.465-1.465 1.465z"/></g><defs><clipPath id="clip0"><path fill="#fff" d="M0 0h100v100H0z"/></clipPath></defs></svg>