<svg width="80" height="80" fill="none" xmlns="http://www.w3.org/2000/svg"><path d="M76.352 11.202c-1.084-3.408-2.552-5.848-2.614-5.95a1.121 1.121 0 00-1.186-.5c-.116.026-2.89.673-6.088 2.271-4.319 2.156-7.335 5.034-8.725 8.323-1.157 2.738-1.323 6.086-.502 9.784a31.161 31.161 0 00-5.859-5.098c-.654-1.294-2.385-4.477-5.091-7.805-.891-1.095-2.606.28-1.705 1.386a43.99 43.99 0 014.054 5.963l-10.008-1.95-9.51-12.97a15.5 15.5 0 012.773.282c2.922.573 5.81 2.061 8.582 4.424 1.087.926 2.497-.76 1.425-1.673-3.063-2.61-6.288-4.261-9.585-4.907-5.034-.985-10.906.308-16.981 3.741-4.528 2.559-7.556 5.37-7.683 5.488-.405.378-.47 1.066-.13 1.508.444.911 2.127 4.197 4.928 7.735 1.65 2.086 3.392 3.872 5.194 5.339a25.59 25.59 0 00-1.492 1.35 25.318 25.318 0 00-5.84 8.735 25.37 25.37 0 00-1.794 9.138 25.243 25.243 0 004.36 14.51 25.367 25.367 0 0011.491 9.307c1.308.53 2.136-1.505.826-2.036a23.197 23.197 0 01-4.752-2.615c.187-1.04.623-4.787-1.866-8.665-.348-.543.693-2.673 1.315-3.946.642-1.311 1.304-2.667 1.614-3.944.328-1.356-.041-2.495-1.07-3.293-.754-.587-1.741-.89-2.611-1.158-.566-.174-1.206-.37-1.435-.562-.472-.395-1.242-1.855-1.86-3.027-.687-1.3-1.341-2.538-2.008-3.3a23.362 23.362 0 016.935-9.138c2.76 1.88 5.91 3.177 9.258 3.44-3.883 3.008-5.139 6.85-3.343 10.54 2.096 4.31 6.411 3.622 10.219 3.015.658-.105 1.34-.214 1.993-.295.245-.03.318.036.368.08.833.741.809 4.283.79 6.87-.023 3.577-.046 6.956 1.286 8.69.68.885 1.637 1.337 2.76 1.337.672 0 1.402-.162 2.169-.49 3.313-1.42 6.758-5.69 6.232-9.07-.459-2.954-.763-4.906-.046-6.48.662-1.455 2.263-2.803 5.417-4.524.377 1.7.568 3.47.548 5.285a23.04 23.04 0 01-6.972 16.327c-4.95 4.842-11.907 7.233-18.788 6.475-1.402-.152-1.645 2.03-.24 2.184 7.532.83 15.148-1.789 20.564-7.088 4.849-4.744 7.56-11.091 7.634-17.875.098-8.993-4.517-16.961-11.542-21.551a42.865 42.865 0 003.132-2.45 29.236 29.236 0 016.724 6.739c4.537 6.332 6.336 14.051 5.068 21.737-2.621 15.866-17.66 26.643-33.529 24.021-7.686-1.269-14.417-5.455-18.955-11.787-4.537-6.332-6.337-14.052-5.068-21.737.228-1.383-1.938-1.746-2.167-.358-1.366 8.264.57 16.566 5.449 23.375 4.88 6.809 12.119 11.31 20.384 12.676a31.8 31.8 0 005.177.426c6.495 0 12.815-2.017 18.2-5.876 6.81-4.879 11.311-12.117 12.676-20.382 1-6.056.226-12.132-2.178-17.626a31.641 31.641 0 005.066-1.995c4.318-2.157 7.335-5.035 8.724-8.323 1.39-3.29 1.352-7.458-.112-12.057zm-63.77 30.21c.818 1.55 1.591 3.015 2.395 3.687.569.476 1.36.72 2.199.977 2.147.66 2.397.984 2.19 1.834-.252 1.044-.862 2.29-1.45 3.496-1.136 2.322-2.207 4.514-1.192 6.097a10.449 10.449 0 011.663 5.83c-6.544-5.901-9.209-15.222-6.771-23.693.323.554.663 1.198.967 1.773zm53.158-21.59l-3.122-7.568c1.52-1.42 3.282-2.49 4.784-3.243a29.331 29.331 0 013.471-1.462L65.74 19.821zM72.9 8.401c.436.937.942 2.146 1.374 3.512.474 1.5.909 3.358.995 5.297l-7.317 3.019L72.9 8.4zm-13.136 7.8c.324-.767.742-1.478 1.226-2.134l3.555 8.613-3.19 7.627a29.018 29.018 0 01-1.423-3.618c-.899-2.84-1.657-6.966-.168-10.489zm7.039 13.391a29.185 29.185 0 01-3.363 1.424l3.31-7.914 8.426-3.476c-.122.944-.355 1.88-.735 2.776-1.488 3.523-4.975 5.855-7.638 7.19zm-39.619-.625a14.81 14.81 0 01-1.148-.274l12.16-8.914 10.012 1.951c-3.647 2.874-12.524 8.902-21.024 7.237zM16.07 22.094c-2.6-2.803-4.506-5.8-5.6-7.719l12.74 2.485-7.14 5.235zm2.25-14.659l5.332 7.272-12.824-2.5c1.614-1.275 4.28-3.19 7.493-4.772zm8.51 7.891L20.368 6.51c1.935-.795 4.012-1.42 6.141-1.699l8.941 12.195-8.618-1.68zm-.683 2.106l9.112 1.776-11.695 8.572c-2.206-1.018-4.19-2.483-5.927-4.11l8.51-6.238zM55.96 38.887c-3.961 2.11-5.9 3.768-6.82 5.79-.99 2.171-.627 4.502-.126 7.727.296 1.902-1.964 5.444-4.926 6.712-1.096.47-1.876.414-2.32-.165-.873-1.136-.85-4.575-.831-7.338.026-3.822.049-7.123-1.528-8.526-.567-.505-1.293-.718-2.099-.619-.69.086-1.391.198-2.069.306-4.038.643-6.58.901-7.896-1.806-2.133-4.384 2.185-7.63 4.14-8.823a6.956 6.956 0 001.111-.848c4.727-.565 9.193-2.593 13.172-5.133A23.322 23.322 0 0155.96 38.887z" fill="#F2F2F2"/></svg>