<svg width="100" height="100" fill="none" xmlns="http://www.w3.org/2000/svg"><g clip-path="url(#clip0)" fill="#F2F2F2"><path d="M59.185 12.027a1.952 1.952 0 10-.915 3.798C74.1 19.641 85.156 33.695 85.156 50c0 19.385-15.77 35.156-35.156 35.156-19.385 0-35.156-15.77-35.156-35.156 0-16.305 11.055-30.358 26.885-34.175a1.953 1.953 0 00-.915-3.797c-8.375 2.02-15.963 6.86-21.366 13.632-5.567 6.978-8.51 15.395-8.51 24.34 0 21.54 17.523 39.063 39.062 39.063 21.54 0 39.062-17.523 39.062-39.063 0-8.945-2.942-17.363-8.51-24.341-5.403-6.771-12.991-11.612-21.367-13.631z"/><path d="M98.823 45.302l-2.285-4.263.38-5.27a9.97 9.97 0 00-3.608-8.825l-3.793-3.106-1.492-4.495a10.039 10.039 0 00-6.832-7.221l-4.682-1.414-3.585-4.145a9.995 9.995 0 00-8.59-3.473l-4.86.484-4.777-2.396a9.964 9.964 0 00-9.397 0l-4.263 2.284-5.27-.381a9.968 9.968 0 00-8.825 3.609l-3.106 3.793-4.495 1.492a10.039 10.039 0 00-7.221 6.832l-1.415 4.681-4.144 3.586a9.994 9.994 0 00-3.474 8.59l.484 4.86L1.177 45.3a9.965 9.965 0 000 9.398l2.285 4.263-.382 5.27a9.97 9.97 0 003.61 8.825l3.793 3.106 1.492 4.495a10.038 10.038 0 006.831 7.221l4.682 1.414 3.586 4.145a9.993 9.993 0 008.59 3.474l4.86-.485 4.775 2.396a9.972 9.972 0 009.398 0l4.264-2.284 5.27.382a9.973 9.973 0 008.825-3.61l3.106-3.793 4.494-1.491a10.039 10.039 0 007.221-6.832l1.415-4.682 4.144-3.585a9.994 9.994 0 003.474-8.59l-.484-4.86 2.396-4.777a9.967 9.967 0 000-9.398zm-3.456 7.575a1.84 1.84 0 00-.025.049L92.68 58.23c-.166.33-.234.702-.198 1.07l.54 5.42a6.094 6.094 0 01-2.128 5.24l-4.586 3.967a1.95 1.95 0 00-.592.912l-1.578 5.224a6.122 6.122 0 01-4.46 4.179c-.058.013-.116.03-.172.048l-5.112 1.697c-.351.117-.662.33-.896.616l-3.465 4.232a6.08 6.08 0 01-5.484 2.19l-5.871-.425a1.952 1.952 0 00-1.064.227l-4.758 2.55a6.064 6.064 0 01-5.782-.036l-5.305-2.66a1.955 1.955 0 00-1.07-.199l-5.42.54a6.093 6.093 0 01-5.24-2.129l-3.967-4.585a1.951 1.951 0 00-.913-.592l-5.223-1.578a6.121 6.121 0 01-4.18-4.46 1.95 1.95 0 00-.048-.172l-1.696-5.113a1.952 1.952 0 00-.617-.895l-4.231-3.465a6.079 6.079 0 01-2.19-5.484l.425-5.872a1.953 1.953 0 00-.227-1.063l-2.55-4.759a6.065 6.065 0 01.035-5.781l2.662-5.306c.165-.33.234-.701.197-1.07l-.54-5.42a6.094 6.094 0 012.13-5.24l4.585-3.967a1.95 1.95 0 00.592-.912l1.578-5.224a6.122 6.122 0 014.46-4.179 1.95 1.95 0 00.172-.048l5.112-1.697c.351-.117.662-.33.896-.616l3.465-4.232a6.08 6.08 0 015.484-2.19l5.871.425a1.96 1.96 0 001.064-.227l4.758-2.55a6.064 6.064 0 015.782.036l5.305 2.66c.33.167.702.235 1.07.199l5.42-.54a6.093 6.093 0 015.24 2.129l3.967 4.585c.242.28.558.485.912.592l5.224 1.578a6.122 6.122 0 014.179 4.46c.013.059.03.116.048.173l1.697 5.112c.117.35.33.661.617.895l4.231 3.465a6.078 6.078 0 012.19 5.484l-.424 5.872c-.027.368.052.737.226 1.063l2.55 4.759a6.064 6.064 0 01-.01 5.733z"/><path d="M41.524 39.358a1.951 1.951 0 00-1.764-1.117H29.44a1.953 1.953 0 00-1.952 1.953v29.563c0 1.08.874 1.953 1.953 1.953h10.32c.809 0 1.503-.492 1.8-1.194 1.488.21 3.022.633 4.619 1.075 2.4.665 4.883 1.352 7.462 1.352h11.275c3.486 0 6.31-1.848 7.556-4.943.606-1.509.713-3.074.358-4.384a7.046 7.046 0 001.611-2.156c.84-1.718 1.008-3.649.532-5.275.887-.857 1.55-1.99 1.895-3.325.324-1.248.318-2.48.03-3.546 1.762-1.036 2.949-2.92 2.949-5.04 0-1.665-.648-3.198-1.825-4.318-1.13-1.075-2.634-1.667-4.236-1.667H57.894c-1.208-1.515-1.583-3.57-.896-5.225 1.411-3.395 1.324-6.27-.283-9.32-1.193-2.263-4.4-4.516-7.094-4.131-1.63.232-2.808 1.384-3.154 3.08-.102.499-.13 1.038-.162 1.662-.08 1.54-.189 3.649-1.518 6.195-.901 1.727-1.201 3.503-1.467 5.07-.38 2.243-.564 3.324-1.796 3.739zm-10.13 2.789h6.413v25.657h-6.413V42.147zm15.778-5.876c.227-1.344.463-2.734 1.078-3.913 1.723-3.301 1.87-6.118 1.956-7.8.024-.449.046-.872.089-1.085l.001-.005c.678.01 2.345.924 2.963 2.098 1.07 2.03 1.105 3.657.132 6-.878 2.113-.812 4.565.056 6.744a1.952 1.952 0 00.271 3.886h20.069c.595 0 1.143.209 1.543.59.279.265.611.74.611 1.487 0 1.048-.96 1.954-2.097 1.979l-5.027.11a1.953 1.953 0 00.042 3.905h.043l4.187-.091c.136.387.207 1.125-.08 1.97-.245.72-.902 1.925-2.554 1.925a1.953 1.953 0 000 3.907c.296 0 .587-.019.871-.055a3.83 3.83 0 01-.393 1.82c-.358.733-1.067 1.607-2.407 1.607a1.953 1.953 0 000 3.906c.202 0 .402-.009.6-.026a3.688 3.688 0 01-.295 1.355c-.306.738-1.3 2.452-3.913 2.452H53.642c-2.048 0-4.171-.588-6.42-1.21-1.788-.496-3.622-1.003-5.508-1.23V43.311c4.397-.796 5.004-4.356 5.458-7.04zM50 14.844a1.953 1.953 0 100-3.906 1.952 1.952 0 100 3.906z"/></g><defs><clipPath id="clip0"><path fill="#fff" d="M0 0h100v100H0z"/></clipPath></defs></svg>