<svg width="48" height="48" fill="none" xmlns="http://www.w3.org/2000/svg"><path fill="#F2F2F2" d="M0 0h48v48H0z"/><path d="M24 0v3.879h20.121V44.12H24V48h24V0H24z" fill="#5AAAE7"/><path d="M3.879 44.121V3.88H24V0H0v48h24v-3.879H3.879z" fill="#78B9EB"/><path d="M14.521 27.245c1.18 1.598 2.534 3.01 4.285 4.01 1.982 1.133 4.116 1.475 6.367 1.37 1.052-.05 1.368-.324 1.416-1.372.033-.718.116-1.433.47-2.078.346-.633.874-.753 1.481-.359.303.199.558.448.8.714.592.647 1.165 1.316 1.779 1.941.772.786 1.687 1.249 2.835 1.155l4.448.002c.716-.049 1.089-.927.678-1.728-.29-.56-.67-1.057-1.072-1.54-.909-1.092-1.98-2.023-2.992-3.01-.914-.892-.971-1.41-.238-2.438.803-1.124 1.663-2.202 2.472-3.32.755-1.044 1.529-2.086 1.924-3.335.253-.797.03-1.148-.785-1.289-.14-.023-.288-.023-.43-.023l-4.84-.006c-.597-.01-.925.251-1.136.78a29.25 29.25 0 01-.919 2.116c-.767 1.563-1.627 3.074-2.83 4.351-.267.282-.562.64-1.006.492-.554-.202-.718-1.117-.708-1.425l-.004-5.588c-.108-.797-.286-1.154-1.079-1.309H20.41c-.67 0-1.008.261-1.367.68-.205.243-.268.4.157.48.833.159 1.306.7 1.43 1.535.198 1.338.185 2.68.069 4.022-.033.392-.1.781-.255 1.148-.243.577-.637.693-1.152.338-.465-.32-.793-.772-1.116-1.225-1.206-1.705-2.167-3.542-2.952-5.472-.226-.558-.618-.895-1.208-.905a122.23 122.23 0 00-4.358.002c-.872.015-1.133.44-.776 1.233 1.58 3.518 3.341 6.938 5.64 10.053z" fill="#78B9EB"/></svg>