<svg width="48" height="48" fill="none" xmlns="http://www.w3.org/2000/svg"><path fill-rule="evenodd" clip-rule="evenodd" d="M0 0v48h48V0H0zm35.984 26.556c1.102 1.075 2.267 2.087 3.256 3.275.437.526.85 1.067 1.165 1.676.447.872.042 1.827-.736 1.88l-4.84-.003c-1.25.103-2.245-.4-3.084-1.255-.668-.68-1.292-1.41-1.936-2.113a4.56 4.56 0 00-.87-.776c-.66-.429-1.234-.299-1.612.39-.384.701-.475 1.48-.51 2.261-.053 1.14-.397 1.438-1.54 1.493-2.45.114-4.771-.258-6.928-1.49-1.904-1.088-3.378-2.625-4.66-4.364-2.501-3.389-4.416-7.109-6.136-10.937-.388-.862-.104-1.325.844-1.341 1.582-.031 3.162-.028 4.741-.002.643.01 1.069.378 1.315.984.854 2.1 1.9 4.099 3.212 5.953.35.494.708.985 1.213 1.333.56.387.99.26 1.254-.367.168-.4.242-.823.277-1.25.126-1.459.14-2.92-.076-4.375-.134-.91-.648-1.497-1.555-1.67-.462-.087-.393-.257-.17-.522.39-.456.758-.74 1.486-.74h5.47c.862.169 1.056.557 1.173 1.424l.004 6.079c-.01.336.169 1.33.771 1.551.483.16.804-.229 1.094-.535 1.31-1.39 2.244-3.034 3.08-4.734.37-.748.689-1.525 1-2.302.228-.575.585-.859 1.234-.848l5.266.006c.155 0 .315 0 .468.025.886.154 1.13.536.854 1.403-.43 1.358-1.272 2.492-2.093 3.628-.88 1.216-1.816 2.389-2.69 3.611-.797 1.12-.734 1.682.259 2.652z" fill="#828282"/></svg>