<svg width="48" height="48" fill="none" xmlns="http://www.w3.org/2000/svg"><path fill="#F2F2F2" d="M0 0h48v48H0z"/><path d="M24 0v3.879h20.121V44.12H24V48h24V0H24z" fill="#C70024"/><path d="M3.879 44.121V3.88H24V0H0v48h24v-3.879H3.879z" fill="#FF0C38"/><path d="M12.561 34.222c3.787.422 7.62.425 11.438.422 3.818.003 7.651 0 11.437-.422 1.6-.178 2.928-1.378 3.303-3.002.532-2.312.534-4.839.534-7.22 0-2.382.005-4.907-.528-7.22-.374-1.626-1.703-2.824-3.303-3.002-3.787-.423-7.62-.425-11.437-.423-3.817-.002-7.652 0-11.44.423-1.597.178-2.926 1.376-3.299 3.002-.532 2.313-.539 4.838-.539 7.22 0 2.381 0 4.908.533 7.22.373 1.624 1.701 2.824 3.301 3.002zM20.06 18.64l9.71 5.066-9.71 5.035v-10.1z" fill="#FF0C38"/></svg>