<svg width="48" height="48" fill="none" xmlns="http://www.w3.org/2000/svg"><path fill-rule="evenodd" clip-rule="evenodd" d="M0 0v48h48V0H0zm40.034 31.855c-.407 1.767-1.852 3.072-3.592 3.266-4.12.46-8.29.463-12.444.46-4.152.003-8.322 0-12.443-.46-1.74-.194-3.185-1.499-3.59-3.266-.58-2.515-.58-5.264-.58-7.855s.006-5.338.586-7.854c.405-1.769 1.85-3.072 3.59-3.266 4.12-.46 8.292-.463 12.444-.46 4.152-.002 8.323 0 12.443.46 1.74.194 3.186 1.497 3.593 3.266.58 2.516.574 5.263.574 7.854s-.001 5.34-.58 7.855z" fill="#828282"/><path fill-rule="evenodd" clip-rule="evenodd" d="M19.712 29.158l10.564-5.478c-3.544-1.85-7.043-3.674-10.564-5.511v10.99z" fill="#828282"/></svg>